Alegreya-Italic.ufo
<glyph name="exclam" format="2">
  <advance width="274"/>
  <unicode hex="0021"/>
  <outline>
    <contour>
      <point x="84" y="-12" type="curve" smooth="yes"/>
      <point x="126" y="-12"/>
      <point x="154" y="20"/>
      <point x="154" y="57" type="curve" smooth="yes"/>
      <point x="154" y="85"/>
      <point x="137" y="107"/>
      <point x="105" y="107" type="curve" smooth="yes"/>
      <point x="64" y="107"/>
      <point x="36" y="75"/>
      <point x="36" y="38" type="curve" smooth="yes"/>
      <point x="36" y="12"/>
      <point x="51" y="-12"/>
    </contour>
    <contour>
      <point x="147" y="666" type="line"/>
      <point x="100" y="210" type="line"/>
      <point x="110" y="202" type="line"/>
      <point x="139" y="209" type="line"/>
      <point x="248" y="683" type="line"/>
      <point x="240" y="694" type="line"/>
      <point x="156" y="676" type="line"/>
    </contour>
  </outline>
</glyph>
<glyph name="numbersign" format="2">
  <advance width="480"/>
  <unicode hex="0023"/>
  <outline>
    <contour>
      <point x="64" y="372" type="line"/>
      <point x="66" y="362" type="line"/>
      <point x="170" y="363" type="line"/>
      <point x="152" y="311" type="line"/>
      <point x="133" y="254" type="line"/>
      <point x="29" y="255" type="line"/>
      <point x="10" y="218" type="line"/>
      <point x="12" y="208" type="line"/>
      <point x="118" y="209" type="line"/>
      <point x="62" y="41" type="line"/>
      <point x="68" y="35" type="line"/>
      <point x="109" y="43" type="line"/>
      <point x="164" y="209" type="line"/>
      <point x="199" y="210" type="line"/>
      <point x="265" y="209" type="line"/>
      <point x="209" y="41" type="line"/>
      <point x="216" y="35" type="line"/>
      <point x="256" y="43" type="line"/>
      <point x="310" y="208" type="line"/>
      <point x="408" y="207" type="line"/>
      <point x="430" y="243" type="line"/>
      <point x="427" y="252" type="line"/>
      <point x="325" y="252" type="line"/>
      <point x="349" y="323" type="line"/>
      <point x="362" y="362" type="line"/>
      <point x="462" y="361" type="line"/>
      <point x="485" y="397" type="line"/>
      <point x="482" y="406" type="line"/>
      <point x="379" y="406" type="line"/>
      <point x="435" y="567" type="line"/>
      <point x="428" y="573" type="line"/>
      <point x="387" y="568" type="line"/>
      <point x="332" y="406" type="line"/>
      <point x="282" y="407" type="line"/>
      <point x="232" y="407" type="line"/>
      <point x="288" y="567" type="line"/>
      <point x="281" y="573" type="line"/>
      <point x="240" y="568" type="line"/>
      <point x="186" y="408" type="line"/>
      <point x="83" y="409" type="line"/>
    </contour>
    <contour>
      <point x="202" y="323" type="line"/>
      <point x="202" y="323" type="line"/>
      <point x="216" y="363" type="line"/>
      <point x="253" y="364" type="line"/>
      <point x="317" y="363" type="line"/>
      <point x="300" y="311" type="line"/>
      <point x="280" y="252" type="line"/>
      <point x="228" y="253" type="line"/>
      <point x="178" y="253" type="line"/>
    </contour>
  </outline>
</glyph>
<glyph name="dollar" format="2">
  <advance width="434"/>
  <unicode hex="0024"/>
  <anchor x="237" y="0" name="bottom"/>
  <anchor x="252" y="637" name="top"/>
  <outline>
    <contour>
      <point x="185" y="17" type="line"/>
      <point x="153" y="17" type="line"/>
      <point x="118" y="-147" type="line"/>
      <point x="122" y="-154" type="line"/>
      <point x="149" y="-151" type="line"/>
    </contour>
    <contour>
      <point x="153" y="17" type="line"/>
      <point x="185" y="17" type="line"/>
      <point x="286" y="486" type="line"/>
      <point x="253" y="486" type="line"/>
    </contour>
    <contour>
      <point x="253" y="486" type="line"/>
      <point x="286" y="486" type="line"/>
      <point x="321" y="649" type="line"/>
      <point x="317" y="658" type="line"/>
      <point x="289" y="654" type="line"/>
    </contour>
    <contour>
      <point x="163" y="-9" type="curve" smooth="yes"/>
      <point x="288" y="-9"/>
      <point x="374" y="60"/>
      <point x="374" y="154" type="curve" smooth="yes"/>
      <point x="374" y="232"/>
      <point x="277" y="266"/>
      <point x="212" y="306" type="curve" smooth="yes"/>
      <point x="178" y="328"/>
      <point x="152" y="350"/>
      <point x="152" y="382" type="curve" smooth="yes"/>
      <point x="152" y="426"/>
      <point x="199" y="459"/>
      <point x="258" y="459" type="curve" smooth="yes"/>
      <point x="318" y="459"/>
      <point x="340" y="445"/>
      <point x="340" y="403" type="curve" smooth="yes"/>
      <point x="340" y="382"/>
      <point x="332" y="350"/>
      <point x="332" y="350" type="curve"/>
      <point x="337" y="346" type="line"/>
      <point x="373" y="349" type="line"/>
      <point x="387" y="421"/>
      <point x="407" y="482"/>
      <point x="407" y="482" type="curve"/>
      <point x="405" y="487" type="line"/>
      <point x="405" y="487"/>
      <point x="348" y="507"/>
      <point x="277" y="507" type="curve" smooth="yes"/>
      <point x="164" y="507"/>
      <point x="79" y="437"/>
      <point x="79" y="348" type="curve" smooth="yes"/>
      <point x="79" y="280"/>
      <point x="148" y="246"/>
      <point x="209" y="212" type="curve" smooth="yes"/>
      <point x="255" y="187"/>
      <point x="295" y="161"/>
      <point x="295" y="121" type="curve" smooth="yes"/>
      <point x="295" y="69"/>
      <point x="247" y="34"/>
      <point x="179" y="34" type="curve" smooth="yes"/>
      <point x="97" y="34"/>
      <point x="83" y="57"/>
      <point x="97" y="165" type="curve"/>
      <point x="56" y="161" type="line"/>
      <point x="46" y="87"/>
      <point x="28" y="26"/>
      <point x="28" y="26" type="curve"/>
      <point x="31" y="17" type="line"/>
      <point x="31" y="17"/>
      <point x="87" y="-9"/>
    </contour>
  </outline>
</glyph>
<glyph name="ampersand" format="2">
  <advance width="567"/>
  <unicode hex="0026"/>
  <outline>
    <contour>
      <point x="174" y="479" type="curve" smooth="yes"/>
      <point x="174" y="551"/>
      <point x="226" y="594"/>
      <point x="311" y="594" type="curve" smooth="yes"/>
      <point x="371" y="594"/>
      <point x="404" y="569"/>
      <point x="404" y="524" type="curve" smooth="yes"/>
      <point x="404" y="507"/>
      <point x="395" y="471"/>
      <point x="395" y="471" type="curve"/>
      <point x="441" y="475" type="line"/>
      <point x="448" y="520"/>
      <point x="465" y="582"/>
      <point x="481" y="621" type="curve"/>
      <point x="479" y="625" type="line"/>
      <point x="431" y="639"/>
      <point x="369" y="649"/>
      <point x="326" y="649" type="curve" smooth="yes"/>
      <point x="203" y="649"/>
      <point x="103" y="565"/>
      <point x="103" y="462" type="curve" smooth="yes"/>
      <point x="103" y="397"/>
      <point x="142" y="344"/>
      <point x="209" y="319" type="curve"/>
      <point x="109" y="288"/>
      <point x="47" y="218"/>
      <point x="47" y="137" type="curve" smooth="yes"/>
      <point x="47" y="52"/>
      <point x="128" y="-12"/>
      <point x="235" y="-12" type="curve" smooth="yes"/>
      <point x="379" y="-12"/>
      <point x="502" y="97"/>
      <point x="502" y="226" type="curve" smooth="yes"/>
      <point x="502" y="254"/>
      <point x="492" y="285"/>
      <point x="477" y="306" type="curve"/>
      <point x="482" y="314" type="line"/>
      <point x="580" y="314" type="line" smooth="yes"/>
      <point x="619" y="314"/>
      <point x="635" y="323"/>
      <point x="651" y="355" type="curve" smooth="yes"/>
      <point x="674" y="401" type="line"/>
      <point x="656" y="411" type="line"/>
      <point x="634" y="390"/>
      <point x="604" y="375"/>
      <point x="569" y="374" type="curve" smooth="yes"/>
      <point x="308" y="357" type="line"/>
      <point x="229" y="357"/>
      <point x="174" y="407"/>
    </contour>
    <contour>
      <point x="443" y="213" type="curve" smooth="yes"/>
      <point x="443" y="117"/>
      <point x="364" y="46"/>
      <point x="257" y="46" type="curve" smooth="yes"/>
      <point x="180" y="46"/>
      <point x="124" y="97"/>
      <point x="124" y="167" type="curve" smooth="yes"/>
      <point x="124" y="229"/>
      <point x="158" y="265"/>
      <point x="259" y="314" type="curve"/>
      <point x="375" y="314" type="line" smooth="yes"/>
      <point x="414" y="314"/>
      <point x="443" y="271"/>
    </contour>
  </outline>
</glyph>
<glyph name="quotesingle" format="2">
  <advance width="177"/>
  <unicode hex="0027"/>
  <outline>
    <contour>
      <point x="184" y="641" type="curve"/>
      <point x="178" y="649" type="line"/>
      <point x="108" y="635" type="line"/>
      <point x="106" y="589"/>
      <point x="99" y="497"/>
      <point x="87" y="417" type="curve"/>
      <point x="97" y="415" type="line"/>
      <point x="124" y="429" type="line"/>
      <point x="148" y="503"/>
      <point x="172" y="594"/>
    </contour>
  </outline>
</glyph>
<glyph name="parenleft" format="2">
  <advance width="297"/>
  <unicode hex="0028"/>
  <outline>
    <contour>
      <point x="94" y="336" type="curve" smooth="yes"/>
      <point x="73" y="163" type="line"/>
      <point x="43" y="-79"/>
      <point x="212" y="-146"/>
      <point x="212" y="-146" type="curve"/>
      <point x="216" y="-146" type="line"/>
      <point x="241" y="-120" type="line"/>
      <point x="241" y="-115" type="line"/>
      <point x="241" y="-115"/>
      <point x="114" y="-45"/>
      <point x="142" y="178" type="curve" smooth="yes"/>
      <point x="163" y="351" type="line" smooth="yes"/>
      <point x="188" y="558"/>
      <point x="325" y="616"/>
      <point x="325" y="616" type="curve"/>
      <point x="327" y="620" type="line"/>
      <point x="317" y="649" type="line"/>
      <point x="312" y="649" type="line"/>
      <point x="312" y="649"/>
      <point x="124" y="581"/>
    </contour>
  </outline>
</glyph>
<glyph name="parenright" format="2">
  <advance width="301"/>
  <unicode hex="0029"/>
  <outline>
    <contour>
      <point x="210" y="167" type="curve" smooth="yes"/>
      <point x="232" y="340" type="line"/>
      <point x="261" y="582"/>
      <point x="92" y="649"/>
      <point x="92" y="649" type="curve"/>
      <point x="88" y="649" type="line"/>
      <point x="64" y="623" type="line"/>
      <point x="63" y="618" type="line"/>
      <point x="63" y="618"/>
      <point x="190" y="548"/>
      <point x="163" y="325" type="curve" smooth="yes"/>
      <point x="142" y="152" type="line" smooth="yes"/>
      <point x="116" y="-55"/>
      <point x="-21" y="-113"/>
      <point x="-21" y="-113" type="curve"/>
      <point x="-22" y="-117" type="line"/>
      <point x="-12" y="-146" type="line"/>
      <point x="-8" y="-146" type="line"/>
      <point x="-8" y="-146"/>
      <point x="180" y="-78"/>
    </contour>
  </outline>
</glyph>
<glyph name="asterisk" format="2">
  <advance width="435"/>
  <unicode hex="002A"/>
  <outline>
    <contour>
      <point x="124" y="666" type="curve"/>
      <point x="115" y="662" type="line"/>
      <point x="106" y="632"/>
      <point x="106" y="594"/>
      <point x="106" y="594" type="curve" smooth="yes"/>
      <point x="106" y="594"/>
      <point x="161" y="582"/>
      <point x="212" y="565" type="curve"/>
      <point x="218" y="570" type="line"/>
      <point x="224" y="603" type="line"/>
      <point x="179" y="637"/>
      <point x="124" y="666"/>
    </contour>
    <contour>
      <point x="129" y="473" type="curve"/>
      <point x="130" y="464" type="line"/>
      <point x="156" y="446"/>
      <point x="192" y="434"/>
      <point x="192" y="434" type="curve" smooth="yes"/>
      <point x="192" y="434"/>
      <point x="220" y="483"/>
      <point x="252" y="526" type="curve"/>
      <point x="249" y="533" type="line"/>
      <point x="220" y="549" type="line"/>
      <point x="173" y="517"/>
      <point x="129" y="473"/>
    </contour>
    <contour>
      <point x="314" y="418" type="curve"/>
      <point x="323" y="417" type="line"/>
      <point x="348" y="436"/>
      <point x="370" y="466"/>
      <point x="370" y="466" type="curve" smooth="yes"/>
      <point x="370" y="466"/>
      <point x="333" y="508"/>
      <point x="302" y="552" type="curve"/>
      <point x="294" y="551" type="line"/>
      <point x="270" y="528" type="line"/>
      <point x="286" y="474"/>
      <point x="314" y="418"/>
    </contour>
    <contour>
      <point x="423" y="577" type="curve"/>
      <point x="427" y="586" type="line"/>
      <point x="417" y="615"/>
      <point x="395" y="646"/>
      <point x="395" y="646" type="curve" smooth="yes"/>
      <point x="395" y="646"/>
      <point x="344" y="623"/>
      <point x="292" y="607" type="curve"/>
      <point x="291" y="599" type="line"/>
      <point x="305" y="570" type="line"/>
      <point x="361" y="568"/>
      <point x="423" y="577"/>
    </contour>
    <contour>
      <point x="306" y="730" type="curve"/>
      <point x="299" y="737" type="line"/>
      <point x="268" y="737"/>
      <point x="232" y="725"/>
      <point x="232" y="725" type="curve" smooth="yes"/>
      <point x="232" y="725"/>
      <point x="237" y="669"/>
      <point x="237" y="615" type="curve"/>
      <point x="243" y="611" type="line"/>
      <point x="277" y="616" type="line"/>
      <point x="295" y="669"/>
      <point x="306" y="730"/>
    </contour>
  </outline>
</glyph>
<glyph name="plus" format="2">
  <advance width="486"/>
  <unicode hex="002B"/>
  <outline>
    <contour>
      <point x="308" y="494" type="curve"/>
      <point x="299" y="500" type="line"/>
      <point x="246" y="492" type="line"/>
      <point x="221" y="291" type="line"/>
      <point x="138" y="291"/>
      <point x="37" y="292"/>
      <point x="37" y="292" type="curve"/>
      <point x="20" y="243" type="line"/>
      <point x="25" y="234" type="line"/>
      <point x="25" y="234"/>
      <point x="130" y="235"/>
      <point x="214" y="235" type="curve"/>
      <point x="203" y="147"/>
      <point x="188" y="36"/>
      <point x="188" y="36" type="curve"/>
      <point x="196" y="30" type="line"/>
      <point x="247" y="41" type="line"/>
      <point x="247" y="41"/>
      <point x="259" y="147"/>
      <point x="270" y="235" type="curve"/>
      <point x="463" y="236" type="line"/>
      <point x="477" y="287" type="line"/>
      <point x="472" y="297" type="line"/>
      <point x="472" y="297"/>
      <point x="354" y="291"/>
      <point x="277" y="291" type="curve"/>
      <point x="287" y="371"/>
      <point x="308" y="494"/>
    </contour>
  </outline>
</glyph>
<glyph name="comma" format="2">
  <advance width="228"/>
  <unicode hex="002C"/>
  <outline>
    <contour>
      <point x="35" y="73" type="curve"/>
      <point x="33" y="59" type="line"/>
      <point x="50" y="43"/>
      <point x="65" y="17"/>
      <point x="65" y="-11" type="curve" smooth="yes"/>
      <point x="65" y="-54"/>
      <point x="31" y="-101"/>
      <point x="-14" y="-132" type="curve"/>
      <point x="-14" y="-142" type="line"/>
      <point x="4" y="-157" type="line"/>
      <point x="64" y="-122"/>
      <point x="144" y="-56"/>
      <point x="144" y="21" type="curve" smooth="yes"/>
      <point x="144" y="72"/>
      <point x="121" y="99"/>
      <point x="93" y="99" type="curve" smooth="yes"/>
      <point x="71" y="99"/>
      <point x="48" y="83"/>
    </contour>
  </outline>
</glyph>
<glyph name="hyphen" format="2">
  <advance width="311"/>
  <unicode hex="002D"/>
  <outline>
    <contour>
      <point x="285" y="290" type="line"/>
      <point x="279" y="299" type="line"/>
      <point x="279" y="299"/>
      <point x="261" y="295"/>
      <point x="215" y="290" type="curve" smooth="yes"/>
      <point x="47" y="270" type="line"/>
      <point x="34" y="218" type="line"/>
      <point x="40" y="210" type="line"/>
      <point x="274" y="236" type="line"/>
    </contour>
  </outline>
</glyph>
<glyph name="period" format="2">
  <advance width="303"/>
  <unicode hex="002E"/>
  <outline>
    <contour>
      <point x="119" y="-12" type="curve" smooth="yes"/>
      <point x="160" y="-12"/>
      <point x="189" y="20"/>
      <point x="189" y="57" type="curve" smooth="yes"/>
      <point x="189" y="85"/>
      <point x="172" y="107"/>
      <point x="139" y="107" type="curve" smooth="yes"/>
      <point x="99" y="107"/>
      <point x="70" y="75"/>
      <point x="70" y="38" type="curve" smooth="yes"/>
      <point x="70" y="12"/>
      <point x="85" y="-12"/>
    </contour>
  </outline>
</glyph>
<glyph name="slash" format="2">
  <advance width="316"/>
  <unicode hex="002F"/>
  <outline>
    <contour>
      <point x="339" y="665" type="curve"/>
      <point x="333" y="675" type="line"/>
      <point x="286" y="675" type="line"/>
      <point x="121" y="226" type="line" smooth="yes"/>
      <point x="65" y="74"/>
      <point x="-8" y="-102"/>
      <point x="-8" y="-102" type="curve"/>
      <point x="-2" y="-110" type="line"/>
      <point x="46" y="-110" type="line"/>
      <point x="46" y="-110"/>
      <point x="106" y="50"/>
      <point x="167" y="215" type="curve" smooth="yes"/>
      <point x="228" y="377"/>
      <point x="339" y="665"/>
    </contour>
  </outline>
</glyph>
<glyph name="zero" format="2">
  <advance width="510"/>
  <unicode hex="0030"/>
  <outline>
    <contour>
      <point x="214" y="-12" type="curve" smooth="yes"/>
      <point x="362" y="-12"/>
      <point x="482" y="123"/>
      <point x="482" y="297" type="curve" smooth="yes"/>
      <point x="482" y="420"/>
      <point x="413" y="505"/>
      <point x="304" y="505" type="curve" smooth="yes"/>
      <point x="156" y="505"/>
      <point x="35" y="373"/>
      <point x="35" y="198" type="curve" smooth="yes"/>
      <point x="35" y="72"/>
      <point x="103" y="-12"/>
    </contour>
    <contour>
      <point x="240" y="64" type="curve" smooth="yes"/>
      <point x="150" y="64"/>
      <point x="93" y="130"/>
      <point x="93" y="225" type="curve" smooth="yes"/>
      <point x="93" y="343"/>
      <point x="168" y="424"/>
      <point x="274" y="424" type="curve" smooth="yes"/>
      <point x="364" y="424"/>
      <point x="423" y="357"/>
      <point x="423" y="260" type="curve" smooth="yes"/>
      <point x="423" y="144"/>
      <point x="345" y="64"/>
    </contour>
  </outline>
</glyph>
<glyph name="one" format="2">
  <advance width="340"/>
  <unicode hex="0031"/>
  <outline>
    <contour>
      <point x="235" y="404" type="curve"/>
      <point x="244" y="450"/>
      <point x="253" y="466"/>
      <point x="281" y="488" type="curve"/>
      <point x="277" y="505" type="line"/>
      <point x="275" y="505"/>
      <point x="273" y="503"/>
      <point x="176" y="487" type="curve" smooth="yes"/>
      <point x="126" y="479"/>
      <point x="69" y="472"/>
      <point x="68" y="472" type="curve"/>
      <point x="59" y="430" type="line"/>
      <point x="61" y="427" type="line"/>
      <point x="61" y="427"/>
      <point x="93" y="433"/>
      <point x="113" y="433" type="curve" smooth="yes"/>
      <point x="145" y="433"/>
      <point x="164" y="427"/>
      <point x="157" y="376" type="curve" smooth="yes"/>
      <point x="129" y="148" type="line" smooth="yes"/>
      <point x="119" y="60"/>
      <point x="100" y="40"/>
      <point x="29" y="34" type="curve"/>
      <point x="18" y="-12" type="line"/>
      <point x="18" y="-12"/>
      <point x="92" y="0"/>
      <point x="142" y="0" type="curve" smooth="yes"/>
      <point x="189" y="0"/>
      <point x="270" y="-3"/>
      <point x="270" y="-3" type="curve"/>
      <point x="284" y="43" type="line"/>
      <point x="283" y="47" type="line"/>
      <point x="283" y="47"/>
      <point x="255" y="44"/>
      <point x="232" y="44" type="curve" smooth="yes"/>
      <point x="202" y="44"/>
      <point x="191" y="55"/>
      <point x="191" y="89" type="curve" smooth="yes"/>
      <point x="191" y="115"/>
      <point x="214" y="274"/>
    </contour>
  </outline>
</glyph>
<glyph name="two" format="2">
  <advance width="456"/>
  <unicode hex="0032"/>
  <outline>
    <contour>
      <point x="-1" y="6" type="line"/>
      <point x="6" y="-12" type="line"/>
      <point x="60" y="0" type="line"/>
      <point x="143" y="0"/>
      <point x="369" y="-7"/>
      <point x="369" y="-7" type="curve"/>
      <point x="381" y="0" type="line"/>
      <point x="398" y="73"/>
      <point x="428" y="157"/>
      <point x="428" y="157" type="curve"/>
      <point x="387" y="152" type="line"/>
      <point x="359" y="76"/>
      <point x="339" y="61"/>
      <point x="269" y="61" type="curve" smooth="yes"/>
      <point x="126" y="61" type="line"/>
      <point x="123" y="68" type="line"/>
      <point x="320" y="271"/>
      <point x="366" y="334"/>
      <point x="366" y="399" type="curve" smooth="yes"/>
      <point x="366" y="464"/>
      <point x="319" y="505"/>
      <point x="247" y="505" type="curve" smooth="yes"/>
      <point x="185" y="505"/>
      <point x="110" y="458"/>
      <point x="69" y="394" type="curve"/>
      <point x="75" y="349" type="line"/>
      <point x="84" y="349" type="line"/>
      <point x="119" y="403"/>
      <point x="169" y="438"/>
      <point x="212" y="438" type="curve" smooth="yes"/>
      <point x="252" y="438"/>
      <point x="275" y="415"/>
      <point x="275" y="377" type="curve" smooth="yes"/>
      <point x="275" y="318"/>
      <point x="213" y="225"/>
      <point x="85" y="94" type="curve" smooth="yes"/>
    </contour>
  </outline>
</glyph>
<glyph name="four" format="2">
  <advance width="431"/>
  <unicode hex="0034"/>
  <outline>
    <contour>
      <point x="-12" y="89" type="curve"/>
      <point x="62" y="89"/>
      <point x="150" y="87"/>
      <point x="224" y="85" type="curve"/>
      <point x="213" y="7"/>
      <point x="196" y="-96"/>
      <point x="196" y="-96" type="curve"/>
      <point x="201" y="-105" type="line"/>
      <point x="273" y="-93" type="line"/>
      <point x="279" y="-86" type="line"/>
      <point x="279" y="-86"/>
      <point x="284" y="2"/>
      <point x="293" y="83" type="curve"/>
      <point x="344" y="81"/>
      <point x="379" y="80"/>
      <point x="379" y="80" type="curve"/>
      <point x="394" y="135" type="line"/>
      <point x="389" y="143" type="line"/>
      <point x="300" y="143" type="line"/>
      <point x="343" y="495" type="line"/>
      <point x="311" y="505" type="line"/>
      <point x="310" y="505"/>
      <point x="308" y="504"/>
      <point x="307" y="504" type="curve"/>
      <point x="-4" y="126" type="line"/>
      <point x="-6" y="114"/>
      <point x="-10" y="101"/>
    </contour>
    <contour>
      <point x="70" y="143" type="line"/>
      <point x="250" y="367" type="line"/>
      <point x="259" y="367" type="line"/>
      <point x="231" y="143" type="line"/>
    </contour>
  </outline>
</glyph>
<glyph name="five" format="2">
  <advance width="413"/>
  <unicode hex="0035"/>
  <outline>
    <contour>
      <point x="340" y="141" type="curve" smooth="yes"/>
      <point x="340" y="227"/>
      <point x="249" y="268"/>
      <point x="130" y="293" type="curve"/>
      <point x="152" y="422" type="line"/>
      <point x="263" y="422"/>
      <point x="360" y="414"/>
      <point x="360" y="414" type="curve"/>
      <point x="367" y="420" type="line"/>
      <point x="405" y="538" type="line"/>
      <point x="371" y="534" type="line"/>
      <point x="357" y="504"/>
      <point x="343" y="497"/>
      <point x="306" y="495" type="curve" smooth="yes"/>
      <point x="123" y="487" type="line"/>
      <point x="114" y="479" type="line"/>
      <point x="114" y="479"/>
      <point x="92" y="353"/>
      <point x="68" y="235" type="curve"/>
      <point x="75" y="224" type="line"/>
      <point x="212" y="199"/>
      <point x="260" y="167"/>
      <point x="260" y="109" type="curve" smooth="yes"/>
      <point x="260" y="24"/>
      <point x="173" y="-35"/>
      <point x="67" y="-35" type="curve" smooth="yes"/>
      <point x="41" y="-35"/>
      <point x="16" y="-32"/>
      <point x="-10" y="-26" type="curve"/>
      <point x="-16" y="-32" type="line"/>
      <point x="-21" y="-91"/>
      <point x="-1" y="-105"/>
      <point x="36" y="-105" type="curve" smooth="yes"/>
      <point x="158" y="-105"/>
      <point x="340" y="14"/>
    </contour>
  </outline>
</glyph>
<glyph name="six" format="2">
  <advance width="437"/>
  <unicode hex="0036"/>
  <outline>
    <contour>
      <point x="417" y="563" type="curve"/>
      <point x="410" y="593" type="line"/>
      <point x="404" y="598" type="line"/>
      <point x="404" y="598"/>
      <point x="33" y="489"/>
      <point x="33" y="167" type="curve" smooth="yes"/>
      <point x="33" y="65"/>
      <point x="87" y="-12"/>
      <point x="183" y="-12" type="curve" smooth="yes"/>
      <point x="306" y="-12"/>
      <point x="400" y="86"/>
      <point x="400" y="196" type="curve" smooth="yes"/>
      <point x="400" y="267"/>
      <point x="353" y="344"/>
      <point x="253" y="344" type="curve" smooth="yes"/>
      <point x="224" y="344"/>
      <point x="142" y="292"/>
      <point x="141" y="292" type="curve"/>
      <point x="138" y="294" type="line"/>
      <point x="212" y="489"/>
      <point x="417" y="563"/>
    </contour>
    <contour>
      <point x="224" y="285" type="curve" smooth="yes"/>
      <point x="285" y="285"/>
      <point x="323" y="231"/>
      <point x="323" y="170" type="curve" smooth="yes"/>
      <point x="323" y="90"/>
      <point x="276" y="36"/>
      <point x="208" y="36" type="curve" smooth="yes"/>
      <point x="146" y="36"/>
      <point x="112" y="89"/>
      <point x="112" y="171" type="curve" smooth="yes"/>
      <point x="112" y="196"/>
      <point x="116" y="219"/>
      <point x="123" y="248" type="curve"/>
      <point x="139" y="259"/>
      <point x="182" y="285"/>
    </contour>
  </outline>
</glyph>
<glyph name="seven" format="2">
  <advance width="404"/>
  <unicode hex="0037"/>
  <outline>
    <contour>
      <point x="117" y="-105" type="line"/>
      <point x="124" y="-105" type="line"/>
      <point x="159" y="-19" type="line"/>
      <point x="208" y="70"/>
      <point x="294" y="233"/>
      <point x="432" y="465" type="curve"/>
      <point x="413" y="493" type="line"/>
      <point x="210" y="493" type="line" smooth="yes"/>
      <point x="151" y="493"/>
      <point x="94" y="497"/>
      <point x="94" y="497" type="curve"/>
      <point x="87" y="492" type="line"/>
      <point x="73" y="416"/>
      <point x="48" y="319"/>
      <point x="48" y="319" type="curve"/>
      <point x="87" y="325" type="line"/>
      <point x="108" y="396"/>
      <point x="121" y="415"/>
      <point x="187" y="418" type="curve" smooth="yes"/>
      <point x="351" y="425" type="line"/>
      <point x="53" y="-65" type="line"/>
      <point x="60" y="-87" type="line"/>
    </contour>
  </outline>
</glyph>
<glyph name="eight" format="2">
  <advance width="466"/>
  <unicode hex="0038"/>
  <outline>
    <contour>
      <point x="40" y="110" type="curve" smooth="yes"/>
      <point x="40" y="31"/>
      <point x="108" y="-12"/>
      <point x="189" y="-12" type="curve" smooth="yes"/>
      <point x="309" y="-12"/>
      <point x="409" y="77"/>
      <point x="409" y="181" type="curve" smooth="yes"/>
      <point x="409" y="248"/>
      <point x="363" y="288"/>
      <point x="312" y="319" type="curve"/>
      <point x="358" y="343"/>
      <point x="426" y="393"/>
      <point x="426" y="479" type="curve" smooth="yes"/>
      <point x="426" y="559"/>
      <point x="360" y="598"/>
      <point x="290" y="598" type="curve" smooth="yes"/>
      <point x="181" y="598"/>
      <point x="95" y="510"/>
      <point x="95" y="420" type="curve" smooth="yes"/>
      <point x="95" y="356"/>
      <point x="136" y="318"/>
      <point x="184" y="289" type="curve"/>
      <point x="135" y="266"/>
      <point x="40" y="212"/>
    </contour>
    <contour>
      <point x="217" y="31" type="curve" smooth="yes"/>
      <point x="155" y="31"/>
      <point x="115" y="81"/>
      <point x="115" y="136" type="curve" smooth="yes"/>
      <point x="115" y="218"/>
      <point x="181" y="256"/>
      <point x="217" y="271" type="curve"/>
      <point x="276" y="238"/>
      <point x="336" y="208"/>
      <point x="336" y="147" type="curve" smooth="yes"/>
      <point x="336" y="81"/>
      <point x="277" y="31"/>
    </contour>
    <contour>
      <point x="169" y="456" type="curve" smooth="yes"/>
      <point x="169" y="505"/>
      <point x="210" y="552"/>
      <point x="268" y="552" type="curve" smooth="yes"/>
      <point x="315" y="552"/>
      <point x="349" y="520"/>
      <point x="349" y="460" type="curve" smooth="yes"/>
      <point x="349" y="390"/>
      <point x="309" y="355"/>
      <point x="278" y="337" type="curve"/>
      <point x="223" y="370"/>
      <point x="169" y="400"/>
    </contour>
  </outline>
</glyph>
<glyph name="nine" format="2">
  <advance width="437"/>
  <unicode hex="0039"/>
  <outline>
    <contour>
      <point x="26" y="-70" type="curve"/>
      <point x="34" y="-100" type="line"/>
      <point x="40" y="-105" type="line"/>
      <point x="40" y="-105"/>
      <point x="411" y="4"/>
      <point x="411" y="326" type="curve" smooth="yes"/>
      <point x="411" y="428"/>
      <point x="357" y="505"/>
      <point x="261" y="505" type="curve" smooth="yes"/>
      <point x="137" y="505"/>
      <point x="44" y="407"/>
      <point x="44" y="297" type="curve" smooth="yes"/>
      <point x="44" y="226"/>
      <point x="90" y="149"/>
      <point x="191" y="149" type="curve" smooth="yes"/>
      <point x="219" y="149"/>
      <point x="302" y="201"/>
      <point x="302" y="201" type="curve"/>
      <point x="305" y="198" type="line"/>
      <point x="232" y="3"/>
      <point x="26" y="-70"/>
    </contour>
    <contour>
      <point x="220" y="208" type="curve" smooth="yes"/>
      <point x="158" y="208"/>
      <point x="121" y="260"/>
      <point x="121" y="321" type="curve" smooth="yes"/>
      <point x="121" y="403"/>
      <point x="168" y="457"/>
      <point x="236" y="457" type="curve" smooth="yes"/>
      <point x="297" y="457"/>
      <point x="331" y="403"/>
      <point x="331" y="321" type="curve" smooth="yes"/>
      <point x="331" y="302"/>
      <point x="328" y="275"/>
      <point x="321" y="245" type="curve"/>
      <point x="304" y="234"/>
      <point x="262" y="208"/>
    </contour>
  </outline>
</glyph>
<glyph name="less" format="2">
  <advance width="484"/>
  <unicode hex="003C"/>
  <outline>
    <contour>
      <point x="33" y="250" type="line"/>
      <point x="40" y="239" type="line"/>
      <point x="40" y="239"/>
      <point x="153" y="187"/>
      <point x="219" y="155" type="curve" smooth="yes"/>
      <point x="293" y="120"/>
      <point x="387" y="70"/>
      <point x="387" y="70" type="curve"/>
      <point x="422" y="110" type="line"/>
      <point x="422" y="121" type="line"/>
      <point x="422" y="121"/>
      <point x="333" y="164"/>
      <point x="259" y="200" type="curve" smooth="yes"/>
      <point x="108" y="270" type="line"/>
      <point x="109" y="276" type="line"/>
      <point x="262" y="336" type="line"/>
      <point x="345" y="370"/>
      <point x="457" y="409"/>
      <point x="457" y="409" type="curve"/>
      <point x="455" y="459" type="line"/>
      <point x="447" y="464" type="line"/>
      <point x="447" y="464"/>
      <point x="337" y="422"/>
      <point x="246" y="383" type="curve" smooth="yes"/>
      <point x="41" y="297" type="line"/>
    </contour>
  </outline>
</glyph>
<glyph name="equal" format="2">
  <advance width="486"/>
  <unicode hex="003D"/>
  <outline>
    <contour>
      <point x="467" y="210" type="line"/>
      <point x="463" y="220" type="line"/>
      <point x="463" y="220"/>
      <point x="333" y="214"/>
      <point x="256" y="214" type="curve" smooth="yes"/>
      <point x="171" y="214"/>
      <point x="27" y="215"/>
      <point x="27" y="215" type="curve"/>
      <point x="11" y="166" type="line"/>
      <point x="15" y="157" type="line"/>
      <point x="15" y="157"/>
      <point x="149" y="158"/>
      <point x="235" y="158" type="curve" smooth="yes"/>
      <point x="453" y="159" type="line"/>
    </contour>
    <contour>
      <point x="487" y="367" type="line"/>
      <point x="482" y="377" type="line"/>
      <point x="482" y="377"/>
      <point x="352" y="371"/>
      <point x="276" y="371" type="curve" smooth="yes"/>
      <point x="190" y="371"/>
      <point x="47" y="372"/>
      <point x="47" y="372" type="curve"/>
      <point x="30" y="323" type="line"/>
      <point x="35" y="314" type="line"/>
      <point x="35" y="314"/>
      <point x="168" y="315"/>
      <point x="254" y="315" type="curve" smooth="yes"/>
      <point x="473" y="316" type="line"/>
    </contour>
  </outline>
</glyph>
<glyph name="greater" format="2">
  <advance width="484"/>
  <unicode hex="003E"/>
  <outline>
    <contour>
      <point x="462" y="284" type="line"/>
      <point x="456" y="295" type="line"/>
      <point x="456" y="295"/>
      <point x="342" y="347"/>
      <point x="276" y="379" type="curve" smooth="yes"/>
      <point x="202" y="414"/>
      <point x="108" y="464"/>
      <point x="108" y="464" type="curve"/>
      <point x="73" y="424" type="line"/>
      <point x="73" y="413" type="line"/>
      <point x="73" y="413"/>
      <point x="162" y="370"/>
      <point x="236" y="334" type="curve" smooth="yes"/>
      <point x="387" y="264" type="line"/>
      <point x="386" y="258" type="line"/>
      <point x="233" y="198" type="line"/>
      <point x="150" y="164"/>
      <point x="38" y="125"/>
      <point x="38" y="125" type="curve"/>
      <point x="40" y="75" type="line"/>
      <point x="48" y="70" type="line"/>
      <point x="48" y="70"/>
      <point x="158" y="112"/>
      <point x="250" y="151" type="curve" smooth="yes"/>
      <point x="454" y="237" type="line"/>
    </contour>
  </outline>
</glyph>
<glyph name="question" format="2">
  <advance width="346"/>
  <unicode hex="003F"/>
  <outline>
    <contour>
      <point x="93" y="323" type="line"/>
      <point x="101" y="203" type="line"/>
      <point x="109" y="199" type="line"/>
      <point x="172" y="216" type="line"/>
      <point x="176" y="224" type="line"/>
      <point x="168" y="319" type="line"/>
      <point x="172" y="328" type="line"/>
      <point x="259" y="387"/>
      <point x="357" y="421"/>
      <point x="357" y="542" type="curve" smooth="yes"/>
      <point x="357" y="626"/>
      <point x="271" y="690"/>
      <point x="159" y="694" type="curve"/>
      <point x="145" y="690" type="line"/>
      <point x="106" y="637" type="line"/>
      <point x="107" y="626" type="line"/>
      <point x="215" y="619"/>
      <point x="286" y="584"/>
      <point x="286" y="511" type="curve" smooth="yes"/>
      <point x="286" y="466"/>
      <point x="256" y="436"/>
      <point x="220" y="413" type="curve"/>
      <point x="97" y="337" type="line"/>
    </contour>
    <contour>
      <point x="109" y="-12" type="curve" smooth="yes"/>
      <point x="151" y="-12"/>
      <point x="179" y="20"/>
      <point x="179" y="57" type="curve" smooth="yes"/>
      <point x="179" y="85"/>
      <point x="162" y="107"/>
      <point x="130" y="107" type="curve" smooth="yes"/>
      <point x="89" y="107"/>
      <point x="61" y="75"/>
      <point x="61" y="38" type="curve" smooth="yes"/>
      <point x="61" y="12"/>
      <point x="76" y="-12"/>
    </contour>
  </outline>
</glyph>
<glyph name="at" format="2">
  <advance width="801"/>
  <unicode hex="0040"/>
  <outline>
    <contour>
      <point x="468" y="-12" type="curve" smooth="yes"/>
      <point x="680" y="-12"/>
      <point x="790" y="142"/>
      <point x="790" y="304" type="curve" smooth="yes"/>
      <point x="790" y="477"/>
      <point x="652" y="613"/>
      <point x="451" y="613" type="curve" smooth="yes"/>
      <point x="190" y="613"/>
      <point x="24" y="406"/>
      <point x="24" y="188" type="curve" smooth="yes"/>
      <point x="24" y="-20"/>
      <point x="161" y="-197"/>
      <point x="422" y="-209" type="curve"/>
      <point x="448" y="-173" type="line"/>
      <point x="448" y="-171"/>
      <point x="448" y="-168"/>
      <point x="448" y="-166" type="curve"/>
      <point x="201" y="-152"/>
      <point x="95" y="13"/>
      <point x="95" y="206" type="curve" smooth="yes"/>
      <point x="95" y="394"/>
      <point x="223" y="557"/>
      <point x="426" y="557" type="curve" smooth="yes"/>
      <point x="603" y="557"/>
      <point x="721" y="456"/>
      <point x="721" y="280" type="curve" smooth="yes"/>
      <point x="721" y="146"/>
      <point x="650" y="54"/>
      <point x="504" y="54" type="curve"/>
      <point x="500" y="58" type="line"/>
      <point x="526" y="244"/>
      <point x="584" y="443"/>
      <point x="584" y="443" type="curve"/>
      <point x="576" y="455" type="line"/>
      <point x="545" y="470" type="line"/>
      <point x="540" y="469" type="line"/>
      <point x="531" y="444" type="line"/>
      <point x="431" y="460" type="line"/>
      <point x="324" y="460"/>
      <point x="202" y="294"/>
      <point x="202" y="124" type="curve" smooth="yes"/>
      <point x="202" y="44"/>
      <point x="228" y="-12"/>
      <point x="282" y="-12" type="curve"/>
      <point x="343" y="31"/>
      <point x="403" y="102"/>
      <point x="469" y="227" type="curve"/>
      <point x="475" y="225" type="line"/>
      <point x="475" y="225"/>
      <point x="432" y="36"/>
      <point x="432" y="17" type="curve" smooth="yes"/>
      <point x="432" y="-2"/>
      <point x="444" y="-12"/>
    </contour>
    <contour>
      <point x="301" y="69" type="curve" smooth="yes"/>
      <point x="284" y="69"/>
      <point x="272" y="118"/>
      <point x="272" y="173" type="curve" smooth="yes"/>
      <point x="272" y="296"/>
      <point x="337" y="406"/>
      <point x="400" y="406" type="curve" smooth="yes"/>
      <point x="441" y="406"/>
      <point x="488" y="381"/>
      <point x="501" y="373" type="curve"/>
      <point x="424" y="195"/>
      <point x="336" y="69"/>
    </contour>
  </outline>
</glyph>
<glyph name="F" format="2">
  <advance width="490"/>
  <unicode hex="0046"/>
  <anchor x="182" y="0" name="bottom"/>
  <anchor x="318" y="647" name="top"/>
  <outline>
    <contour>
      <point x="188" y="108" type="curve" smooth="yes"/>
      <point x="213" y="280" type="line"/>
      <point x="230" y="283"/>
      <point x="259" y="287"/>
      <point x="288" y="287" type="curve" smooth="yes"/>
      <point x="333" y="287"/>
      <point x="407" y="284"/>
      <point x="407" y="284" type="curve"/>
      <point x="426" y="341" type="line"/>
      <point x="424" y="345" type="line"/>
      <point x="424" y="345"/>
      <point x="352" y="334"/>
      <point x="322" y="334" type="curve" smooth="yes"/>
      <point x="223" y="335" type="line"/>
      <point x="256" y="551" type="line" smooth="yes"/>
      <point x="262" y="589"/>
      <point x="266" y="590"/>
      <point x="329" y="590" type="curve" smooth="yes"/>
      <point x="429" y="590"/>
      <point x="453" y="586"/>
      <point x="453" y="541" type="curve" smooth="yes"/>
      <point x="453" y="514"/>
      <point x="444" y="472"/>
      <point x="444" y="472" type="curve"/>
      <point x="487" y="476" type="line"/>
      <point x="504" y="568"/>
      <point x="530" y="643"/>
      <point x="530" y="643" type="curve"/>
      <point x="528" y="648" type="line"/>
      <point x="466" y="639"/>
      <point x="389" y="636"/>
      <point x="257" y="636" type="curve" smooth="yes"/>
      <point x="200" y="636"/>
      <point x="126" y="639"/>
      <point x="126" y="639" type="curve"/>
      <point x="115" y="597" type="line"/>
      <point x="116" y="594" type="line"/>
      <point x="116" y="594"/>
      <point x="138" y="596"/>
      <point x="149" y="596" type="curve" smooth="yes"/>
      <point x="178" y="596"/>
      <point x="183" y="585"/>
      <point x="178" y="542" type="curve" smooth="yes"/>
      <point x="125" y="117" type="line" smooth="yes"/>
      <point x="118" y="61"/>
      <point x="101" y="43"/>
      <point x="39" y="31" type="curve"/>
      <point x="29" y="-12" type="line"/>
      <point x="29" y="-12"/>
      <point x="90" y="0"/>
      <point x="137" y="0" type="curve" smooth="yes"/>
      <point x="188" y="0"/>
      <point x="279" y="-4"/>
      <point x="279" y="-4" type="curve"/>
      <point x="292" y="39" type="line"/>
      <point x="291" y="43" type="line"/>
      <point x="291" y="43"/>
      <point x="242" y="40"/>
      <point x="222" y="40" type="curve" smooth="yes"/>
      <point x="189" y="40"/>
      <point x="181" y="61"/>
    </contour>
  </outline>
</glyph>
<glyph name="H" format="2">
  <advance width="723"/>
  <unicode hex="0048"/>
  <anchor x="334" y="0" name="bottom"/>
  <anchor x="566" y="106" name="bottomright"/>
  <anchor x="373" y="318" name="center"/>
  <anchor x="412" y="636" name="top"/>
  <anchor x="70" y="636" name="topleft"/>
  <outline>
    <contour>
      <point x="28" y="-12" type="line"/>
      <point x="30" y="-7"/>
      <point x="117" y="0"/>
      <point x="176" y="0" type="curve" smooth="yes"/>
      <point x="204" y="0"/>
      <point x="254" y="-2"/>
      <point x="254" y="-3" type="curve"/>
      <point x="268" y="41" type="line"/>
      <point x="268" y="42"/>
      <point x="267" y="44"/>
      <point x="267" y="45" type="curve" smooth="yes"/>
      <point x="256" y="44"/>
      <point x="237" y="42"/>
      <point x="223" y="42" type="curve" smooth="yes"/>
      <point x="199" y="42"/>
      <point x="191" y="47"/>
      <point x="188" y="67" type="curve" smooth="yes"/>
      <point x="184" y="89"/>
      <point x="193" y="136"/>
      <point x="198" y="173" type="curve" smooth="yes"/>
      <point x="217" y="307" type="line"/>
      <point x="250" y="511" type="line" smooth="yes"/>
      <point x="261" y="585"/>
      <point x="269" y="594"/>
      <point x="325" y="603" type="curve"/>
      <point x="333" y="646" type="line"/>
      <point x="293" y="640"/>
      <point x="255" y="636"/>
      <point x="233" y="636" type="curve" smooth="yes"/>
      <point x="208" y="636"/>
      <point x="160" y="638"/>
      <point x="127" y="640" type="curve"/>
      <point x="115" y="597" type="line"/>
      <point x="117" y="594" type="line"/>
      <point x="127" y="595"/>
      <point x="142" y="596"/>
      <point x="149" y="596" type="curve" smooth="yes"/>
      <point x="178" y="596"/>
      <point x="183" y="586"/>
      <point x="178" y="542" type="curve" smooth="yes"/>
      <point x="130" y="151" type="line"/>
      <point x="122" y="63"/>
      <point x="108" y="45"/>
      <point x="39" y="31" type="curve"/>
    </contour>
    <contour>
      <point x="199" y="291" type="line"/>
      <point x="268" y="298"/>
      <point x="356" y="304"/>
      <point x="377" y="304" type="curve"/>
      <point x="544" y="303" type="line"/>
      <point x="551" y="358" type="line"/>
      <point x="471" y="349"/>
      <point x="434" y="346"/>
      <point x="387" y="346" type="curve" smooth="yes"/>
      <point x="328" y="346"/>
      <point x="269" y="347"/>
      <point x="210" y="347" type="curve"/>
    </contour>
    <contour>
      <point x="632" y="-3" type="curve"/>
      <point x="645" y="41" type="line"/>
      <point x="646" y="42"/>
      <point x="645" y="43"/>
      <point x="645" y="44" type="curve"/>
      <point x="634" y="43"/>
      <point x="615" y="41"/>
      <point x="601" y="41" type="curve" smooth="yes"/>
      <point x="574" y="41"/>
      <point x="565" y="52"/>
      <point x="565" y="84" type="curve" smooth="yes"/>
      <point x="565" y="114"/>
      <point x="587" y="264"/>
      <point x="633" y="546" type="curve"/>
      <point x="640" y="584"/>
      <point x="654" y="596"/>
      <point x="703" y="603" type="curve"/>
      <point x="711" y="646" type="line"/>
      <point x="662" y="640"/>
      <point x="619" y="636"/>
      <point x="595" y="636" type="curve" smooth="yes"/>
      <point x="569" y="636"/>
      <point x="504" y="639"/>
      <point x="505" y="640" type="curve"/>
      <point x="492" y="597" type="line"/>
      <point x="494" y="594" type="line"/>
      <point x="504" y="595"/>
      <point x="519" y="596"/>
      <point x="527" y="596" type="curve" smooth="yes"/>
      <point x="556" y="596"/>
      <point x="561" y="584"/>
      <point x="556" y="542" type="curve" smooth="yes"/>
      <point x="507" y="149" type="line" smooth="yes"/>
      <point x="496" y="61"/>
      <point x="481" y="42"/>
      <point x="420" y="41" type="curve"/>
      <point x="407" y="-2" type="line"/>
      <point x="407" y="-3"/>
      <point x="446" y="0"/>
      <point x="482" y="0" type="curve" smooth="yes"/>
      <point x="513" y="0" type="line" smooth="yes"/>
      <point x="544" y="0"/>
      <point x="599" y="-2"/>
    </contour>
  </outline>
</glyph>
<glyph name="I" format="2">
  <advance width="346"/>
  <unicode hex="0049"/>
  <anchor x="145" y="0" name="bottom"/>
  <anchor x="242" y="33" name="ogonek"/>
  <anchor x="230" y="636" name="top"/>
  <anchor x="70" y="636" name="topleft"/>
  <outline>
    <contour>
      <point x="256" y="546" type="curve" smooth="yes"/>
      <point x="262" y="584"/>
      <point x="278" y="596"/>
      <point x="332" y="603" type="curve"/>
      <point x="342" y="646" type="line"/>
      <point x="342" y="646"/>
      <point x="276" y="636"/>
      <point x="232" y="636" type="curve" smooth="yes"/>
      <point x="193" y="636"/>
      <point x="117" y="640"/>
      <point x="119" y="640" type="curve"/>
      <point x="107" y="597" type="line"/>
      <point x="107" y="596"/>
      <point x="108" y="595"/>
      <point x="108" y="594" type="curve" smooth="yes"/>
      <point x="108" y="594"/>
      <point x="135" y="596"/>
      <point x="149" y="596" type="curve" smooth="yes"/>
      <point x="178" y="596"/>
      <point x="183" y="584"/>
      <point x="178" y="542" type="curve" smooth="yes"/>
      <point x="126" y="118" type="line" smooth="yes"/>
      <point x="119" y="62"/>
      <point x="99" y="43"/>
      <point x="38" y="31" type="curve"/>
      <point x="26" y="-12" type="line"/>
      <point x="26" y="-12"/>
      <point x="89" y="0"/>
      <point x="137" y="0" type="curve" smooth="yes"/>
      <point x="183" y="0"/>
      <point x="262" y="-3"/>
      <point x="262" y="-3" type="curve"/>
      <point x="276" y="41" type="line"/>
      <point x="274" y="45" type="line"/>
      <point x="274" y="45"/>
      <point x="246" y="42"/>
      <point x="223" y="42" type="curve" smooth="yes"/>
      <point x="197" y="42"/>
      <point x="186" y="52"/>
      <point x="186" y="85" type="curve" smooth="yes"/>
      <point x="186" y="127"/>
      <point x="225" y="366"/>
    </contour>
  </outline>
</glyph>
<glyph name="M" format="2">
  <advance width="813"/>
  <unicode hex="004D"/>
  <anchor x="402" y="0" name="bottom"/>
  <anchor x="418" y="647" name="top"/>
  <outline>
    <contour>
      <point x="353" y="-19" type="curve"/>
      <point x="374" y="-13" type="line"/>
      <point x="510" y="273"/>
      <point x="570" y="400"/>
      <point x="628" y="529" type="curve"/>
      <point x="633" y="529" type="line"/>
      <point x="625" y="323"/>
      <point x="615" y="108"/>
      <point x="612" y="85" type="curve" smooth="yes"/>
      <point x="608" y="55"/>
      <point x="589" y="40"/>
      <point x="549" y="35" type="curve"/>
      <point x="540" y="-8" type="line"/>
      <point x="590" y="-2"/>
      <point x="619" y="0"/>
      <point x="638" y="0" type="curve" smooth="yes"/>
      <point x="664" y="0"/>
      <point x="704" y="-2"/>
      <point x="728" y="-3" type="curve"/>
      <point x="742" y="40" type="line"/>
      <point x="742" y="41"/>
      <point x="741" y="42"/>
      <point x="741" y="43" type="curve" smooth="yes"/>
      <point x="729" y="42"/>
      <point x="718" y="41"/>
      <point x="714" y="41" type="curve" smooth="yes"/>
      <point x="683" y="41"/>
      <point x="676" y="59"/>
      <point x="678" y="137" type="curve" smooth="yes"/>
      <point x="680" y="227"/>
      <point x="693" y="492"/>
      <point x="699" y="549" type="curve" smooth="yes"/>
      <point x="702" y="582"/>
      <point x="724" y="597"/>
      <point x="781" y="604" type="curve"/>
      <point x="790" y="638" type="line"/>
      <point x="790" y="639"/>
      <point x="789" y="641"/>
      <point x="789" y="642" type="curve" smooth="yes"/>
      <point x="756" y="639"/>
      <point x="704" y="636"/>
      <point x="684" y="636" type="curve" smooth="yes"/>
      <point x="666" y="636"/>
      <point x="623" y="641"/>
      <point x="624" y="639" type="curve"/>
      <point x="538" y="436"/>
      <point x="449" y="235"/>
      <point x="400" y="134" type="curve"/>
      <point x="396" y="134" type="line"/>
      <point x="362" y="255"/>
      <point x="316" y="467"/>
      <point x="286" y="640" type="curve"/>
      <point x="259" y="638"/>
      <point x="235" y="636"/>
      <point x="223" y="636" type="curve" smooth="yes"/>
      <point x="209" y="636"/>
      <point x="175" y="638"/>
      <point x="120" y="641" type="curve"/>
      <point x="109" y="609" type="line"/>
      <point x="111" y="605" type="line"/>
      <point x="165" y="601"/>
      <point x="189" y="586"/>
      <point x="189" y="555" type="curve" smooth="yes"/>
      <point x="189" y="532"/>
      <point x="114" y="191"/>
      <point x="98" y="113" type="curve" smooth="yes"/>
      <point x="86" y="60"/>
      <point x="69" y="41"/>
      <point x="28" y="35" type="curve"/>
      <point x="17" y="-8" type="line"/>
      <point x="62" y="-2"/>
      <point x="83" y="0"/>
      <point x="99" y="0" type="curve" smooth="yes"/>
      <point x="116" y="0"/>
      <point x="148" y="-1"/>
      <point x="191" y="-4" type="curve"/>
      <point x="205" y="39" type="line"/>
      <point x="205" y="40"/>
      <point x="204" y="41"/>
      <point x="204" y="42" type="curve" smooth="yes"/>
      <point x="191" y="42"/>
      <point x="171" y="41"/>
      <point x="164" y="41" type="curve" smooth="yes"/>
      <point x="146" y="41"/>
      <point x="138" y="49"/>
      <point x="138" y="66" type="curve" smooth="yes"/>
      <point x="138" y="75"/>
      <point x="155" y="161"/>
      <point x="227" y="529" type="curve"/>
      <point x="231" y="529" type="line"/>
      <point x="264" y="380"/>
      <point x="299" y="221"/>
    </contour>
  </outline>
</glyph>
<glyph name="N" format="2">
  <advance width="689"/>
  <unicode hex="004E"/>
  <anchor x="317" y="0" name="bottom"/>
  <anchor x="395" y="636" name="top"/>
  <outline>
    <contour>
      <point x="524" y="134" type="line"/>
      <point x="520" y="134" type="line"/>
      <point x="520" y="134"/>
      <point x="385" y="377"/>
      <point x="255" y="640" type="curve"/>
      <point x="255" y="640"/>
      <point x="224" y="636"/>
      <point x="193" y="636" type="curve" smooth="yes"/>
      <point x="167" y="636"/>
      <point x="112" y="641"/>
      <point x="112" y="641" type="curve"/>
      <point x="101" y="607" type="line" smooth="yes"/>
      <point x="101" y="605"/>
      <point x="102" y="604"/>
      <point x="102" y="602" type="curve"/>
      <point x="166" y="595"/>
      <point x="184" y="581"/>
      <point x="179" y="541" type="curve"/>
      <point x="112" y="98" type="line" smooth="yes"/>
      <point x="106" y="57"/>
      <point x="85" y="40"/>
      <point x="45" y="35" type="curve"/>
      <point x="34" y="-8" type="line"/>
      <point x="34" y="-8"/>
      <point x="86" y="0"/>
      <point x="123" y="0" type="curve" smooth="yes"/>
      <point x="165" y="0"/>
      <point x="223" y="-4"/>
      <point x="223" y="-4" type="curve"/>
      <point x="237" y="39" type="line"/>
      <point x="235" y="42" type="line"/>
      <point x="235" y="42"/>
      <point x="196" y="42"/>
      <point x="186" y="42" type="curve" smooth="yes"/>
      <point x="164" y="42"/>
      <point x="157" y="51"/>
      <point x="161" y="81" type="curve" smooth="yes"/>
      <point x="221" y="522" type="line"/>
      <point x="225" y="522" type="line"/>
      <point x="225" y="522"/>
      <point x="366" y="269"/>
      <point x="518" y="-42" type="curve"/>
      <point x="543" y="-28" type="line"/>
      <point x="625" y="538" type="line" smooth="yes"/>
      <point x="631" y="577"/>
      <point x="654" y="595"/>
      <point x="699" y="601" type="curve"/>
      <point x="709" y="645" type="line"/>
      <point x="709" y="645"/>
      <point x="654" y="636"/>
      <point x="614" y="636" type="curve" smooth="yes"/>
      <point x="582" y="636"/>
      <point x="525" y="640"/>
      <point x="525" y="640" type="curve"/>
      <point x="511" y="598" type="line"/>
      <point x="513" y="594" type="line"/>
      <point x="512" y="594"/>
      <point x="532" y="595"/>
      <point x="549" y="595" type="curve" smooth="yes"/>
      <point x="569" y="595"/>
      <point x="579" y="581"/>
      <point x="576" y="552" type="curve"/>
    </contour>
  </outline>
</glyph>
<glyph name="O" format="2">
  <advance width="665"/>
  <unicode hex="004F"/>
  <anchor x="305" y="0" name="bottom"/>
  <anchor x="344" y="318" name="center"/>
  <anchor x="402" y="10" name="ogonek"/>
  <anchor x="383" y="636" name="top"/>
  <anchor x="70" y="636" name="topleft"/>
  <anchor x="695" y="636" name="topright"/>
  <outline>
    <contour>
      <point x="296" y="-12" type="curve" smooth="yes"/>
      <point x="490" y="-12"/>
      <point x="644" y="163"/>
      <point x="644" y="382" type="curve" smooth="yes"/>
      <point x="644" y="536"/>
      <point x="535" y="648"/>
      <point x="387" y="648" type="curve" smooth="yes"/>
      <point x="197" y="648"/>
      <point x="45" y="473"/>
      <point x="45" y="254" type="curve" smooth="yes"/>
      <point x="45" y="100"/>
      <point x="151" y="-12"/>
    </contour>
    <contour>
      <point x="311" y="35" type="curve" smooth="yes"/>
      <point x="200" y="35"/>
      <point x="127" y="134"/>
      <point x="127" y="285" type="curve" smooth="yes"/>
      <point x="127" y="461"/>
      <point x="231" y="593"/>
      <point x="368" y="593" type="curve" smooth="yes"/>
      <point x="482" y="593"/>
      <point x="557" y="494"/>
      <point x="557" y="343" type="curve" smooth="yes"/>
      <point x="557" y="166"/>
      <point x="453" y="35"/>
    </contour>
  </outline>
</glyph>
<glyph name="P" format="2">
  <advance width="528"/>
  <unicode hex="0050"/>
  <anchor x="200" y="0" name="bottom"/>
  <anchor x="317" y="647" name="top"/>
  <outline>
    <contour>
      <point x="127" y="640" type="curve"/>
      <point x="115" y="598" type="line"/>
      <point x="117" y="594" type="line"/>
      <point x="117" y="594"/>
      <point x="138" y="596"/>
      <point x="149" y="596" type="curve" smooth="yes"/>
      <point x="177" y="596"/>
      <point x="183" y="585"/>
      <point x="178" y="542" type="curve" smooth="yes"/>
      <point x="126" y="117" type="line" smooth="yes"/>
      <point x="119" y="60"/>
      <point x="104" y="46"/>
      <point x="46" y="35" type="curve"/>
      <point x="34" y="-8" type="line"/>
      <point x="36" y="-5"/>
      <point x="124" y="0"/>
      <point x="177" y="0" type="curve" smooth="yes"/>
      <point x="207" y="0"/>
      <point x="262" y="-2"/>
      <point x="262" y="-3" type="curve"/>
      <point x="276" y="41" type="line"/>
      <point x="276" y="42"/>
      <point x="275" y="44"/>
      <point x="275" y="45" type="curve" smooth="yes"/>
      <point x="275" y="45"/>
      <point x="241" y="41"/>
      <point x="222" y="41" type="curve" smooth="yes"/>
      <point x="189" y="41"/>
      <point x="178" y="54"/>
      <point x="184" y="92" type="curve" smooth="yes"/>
      <point x="207" y="246" type="line"/>
      <point x="299" y="246" type="line" smooth="yes"/>
      <point x="422" y="246"/>
      <point x="535" y="364"/>
      <point x="535" y="489" type="curve" smooth="yes"/>
      <point x="535" y="587"/>
      <point x="452" y="640"/>
      <point x="332" y="640" type="curve" smooth="yes"/>
      <point x="332" y="640"/>
      <point x="258" y="636"/>
      <point x="232" y="636" type="curve" smooth="yes"/>
      <point x="196" y="636"/>
      <point x="125" y="640"/>
    </contour>
    <contour>
      <point x="317" y="286" type="curve"/>
      <point x="217" y="301" type="line"/>
      <point x="230" y="396"/>
      <point x="246" y="498"/>
      <point x="263" y="582" type="curve" smooth="yes"/>
      <point x="265" y="595"/>
      <point x="264" y="596"/>
      <point x="290" y="596" type="curve" smooth="yes"/>
      <point x="404" y="596"/>
      <point x="457" y="556"/>
      <point x="457" y="469" type="curve" smooth="yes"/>
      <point x="457" y="365"/>
      <point x="407" y="300"/>
    </contour>
  </outline>
</glyph>
<glyph name="Q" format="2">
  <advance width="670"/>
  <unicode hex="0051"/>
  <anchor x="423" y="0" name="bottom"/>
  <anchor x="333" y="647" name="top"/>
  <outline>
    <contour>
      <point x="372" y="12" type="line"/>
      <point x="287" y="-12" type="line"/>
      <point x="493" y="-184"/>
      <point x="548" y="-214"/>
      <point x="640" y="-214" type="curve" smooth="yes"/>
      <point x="658" y="-214"/>
      <point x="736" y="-148"/>
      <point x="736" y="-148" type="curve"/>
      <point x="733" y="-133" type="line"/>
      <point x="729" y="-131" type="line"/>
      <point x="729" y="-131"/>
      <point x="697" y="-141"/>
      <point x="651" y="-141" type="curve" smooth="yes"/>
      <point x="574" y="-141"/>
      <point x="497" y="-105"/>
      <point x="371" y="-6" type="curve"/>
    </contour>
    <contour>
      <point x="311" y="35" type="curve" smooth="yes"/>
      <point x="200" y="35"/>
      <point x="127" y="134"/>
      <point x="127" y="285" type="curve" smooth="yes"/>
      <point x="127" y="461"/>
      <point x="231" y="593"/>
      <point x="368" y="593" type="curve" smooth="yes"/>
      <point x="482" y="593"/>
      <point x="557" y="494"/>
      <point x="557" y="343" type="curve" smooth="yes"/>
      <point x="557" y="166"/>
      <point x="453" y="35"/>
    </contour>
    <contour>
      <point x="296" y="-12" type="curve" smooth="yes"/>
      <point x="490" y="-12"/>
      <point x="644" y="163"/>
      <point x="644" y="382" type="curve" smooth="yes"/>
      <point x="644" y="536"/>
      <point x="535" y="648"/>
      <point x="387" y="648" type="curve" smooth="yes"/>
      <point x="197" y="648"/>
      <point x="45" y="473"/>
      <point x="45" y="254" type="curve" smooth="yes"/>
      <point x="45" y="100"/>
      <point x="151" y="-12"/>
    </contour>
  </outline>
</glyph>
<glyph name="R" format="2">
  <advance width="585"/>
  <unicode hex="0052"/>
  <anchor x="265" y="0" name="bottom"/>
  <anchor x="343" y="636" name="top"/>
  <outline>
    <contour>
      <point x="212" y="276" type="line"/>
      <point x="303" y="276" type="line"/>
      <point x="383" y="79" type="line" smooth="yes"/>
      <point x="407" y="22"/>
      <point x="441" y="-16"/>
      <point x="473" y="-16" type="curve"/>
      <point x="554" y="-5" type="line"/>
      <point x="563" y="27" type="line"/>
      <point x="560" y="30" type="line"/>
      <point x="507" y="30"/>
      <point x="481" y="52"/>
      <point x="450" y="115" type="curve" smooth="yes"/>
      <point x="365" y="293" type="line"/>
      <point x="470" y="339"/>
      <point x="522" y="415"/>
      <point x="522" y="503" type="curve" smooth="yes"/>
      <point x="522" y="587"/>
      <point x="437" y="640"/>
      <point x="329" y="640" type="curve" smooth="yes"/>
      <point x="329" y="640"/>
      <point x="264" y="636"/>
      <point x="232" y="636" type="curve" smooth="yes"/>
      <point x="196" y="636"/>
      <point x="127" y="640"/>
      <point x="127" y="640" type="curve"/>
      <point x="115" y="598" type="line"/>
      <point x="117" y="594" type="line"/>
      <point x="117" y="594"/>
      <point x="138" y="596"/>
      <point x="149" y="596" type="curve" smooth="yes"/>
      <point x="177" y="596"/>
      <point x="183" y="585"/>
      <point x="178" y="541" type="curve" smooth="yes"/>
      <point x="126" y="117" type="line" smooth="yes"/>
      <point x="119" y="59"/>
      <point x="103" y="46"/>
      <point x="42" y="39" type="curve"/>
      <point x="28" y="-4" type="line"/>
      <point x="28" y="-4"/>
      <point x="90" y="0"/>
      <point x="137" y="-1" type="curve" smooth="yes"/>
      <point x="182" y="-2"/>
      <point x="237" y="-4"/>
      <point x="237" y="-4" type="curve"/>
      <point x="250" y="36" type="line"/>
      <point x="249" y="39" type="line"/>
      <point x="187" y="39"/>
      <point x="180" y="49"/>
      <point x="190" y="122" type="curve" smooth="yes"/>
    </contour>
    <contour>
      <point x="319" y="318" type="curve"/>
      <point x="221" y="328" type="line"/>
      <point x="230" y="400"/>
      <point x="239" y="472"/>
      <point x="260" y="579" type="curve" smooth="yes"/>
      <point x="265" y="597"/>
      <point x="268" y="602"/>
      <point x="281" y="602" type="curve" smooth="yes"/>
      <point x="389" y="602"/>
      <point x="443" y="562"/>
      <point x="443" y="486" type="curve" smooth="yes"/>
      <point x="443" y="348"/>
      <point x="317" y="317"/>
    </contour>
  </outline>
</glyph>
<glyph name="T" format="2">
  <advance width="523"/>
  <unicode hex="0054"/>
  <anchor x="234" y="0" name="bottom"/>
  <anchor x="273" y="318" name="center"/>
  <anchor x="312" y="636" name="top"/>
  <outline>
    <contour>
      <point x="271" y="601" type="curve"/>
      <point x="218" y="162" type="line" smooth="yes"/>
      <point x="204" y="54"/>
      <point x="196" y="45"/>
      <point x="106" y="36" type="curve"/>
      <point x="94" y="-4" type="line"/>
      <point x="94" y="-4"/>
      <point x="177" y="0"/>
      <point x="223" y="0" type="curve" smooth="yes"/>
      <point x="269" y="0"/>
      <point x="363" y="-3"/>
      <point x="363" y="-3" type="curve"/>
      <point x="377" y="40" type="line"/>
      <point x="375" y="44" type="line"/>
      <point x="375" y="44"/>
      <point x="355" y="41"/>
      <point x="320" y="41" type="curve" smooth="yes"/>
      <point x="287" y="41"/>
      <point x="273" y="56"/>
      <point x="273" y="92" type="curve" smooth="yes"/>
      <point x="273" y="130"/>
      <point x="331" y="507"/>
      <point x="351" y="601" type="curve"/>
      <point x="493" y="594"/>
      <point x="496" y="591"/>
      <point x="499" y="472" type="curve"/>
      <point x="543" y="476" type="line"/>
      <point x="543" y="476"/>
      <point x="541" y="557"/>
      <point x="549" y="640" type="curve"/>
      <point x="541" y="647" type="line"/>
      <point x="459" y="636" type="line"/>
      <point x="161" y="636" type="line"/>
      <point x="85" y="647" type="line"/>
      <point x="75" y="640" type="line"/>
      <point x="62" y="557"/>
      <point x="40" y="472"/>
      <point x="40" y="472" type="curve"/>
      <point x="84" y="476" type="line"/>
      <point x="114" y="592"/>
      <point x="116" y="594"/>
    </contour>
  </outline>
</glyph>
<glyph name="U" format="2">
  <advance width="655"/>
  <unicode hex="0055"/>
  <anchor x="300" y="0" name="bottom"/>
  <anchor x="461" y="40" name="ogonek"/>
  <anchor x="379" y="636" name="top"/>
  <anchor x="685" y="636" name="topright"/>
  <outline>
    <contour>
      <point x="178" y="252" type="curve" smooth="yes"/>
      <point x="222" y="546" type="line" smooth="yes"/>
      <point x="229" y="584"/>
      <point x="242" y="596"/>
      <point x="291" y="603" type="curve"/>
      <point x="300" y="646" type="line"/>
      <point x="300" y="646"/>
      <point x="240" y="636"/>
      <point x="199" y="636" type="curve" smooth="yes"/>
      <point x="163" y="636"/>
      <point x="93" y="639"/>
      <point x="93" y="639" type="curve"/>
      <point x="81" y="598" type="line"/>
      <point x="82" y="594" type="line"/>
      <point x="82" y="594"/>
      <point x="103" y="596"/>
      <point x="115" y="596" type="curve" smooth="yes"/>
      <point x="145" y="596"/>
      <point x="150" y="585"/>
      <point x="145" y="542" type="curve" smooth="yes"/>
      <point x="104" y="210" type="line" smooth="yes"/>
      <point x="102" y="196"/>
      <point x="101" y="183"/>
      <point x="101" y="170" type="curve" smooth="yes"/>
      <point x="100" y="54"/>
      <point x="165" y="-12"/>
      <point x="286" y="-12" type="curve" smooth="yes"/>
      <point x="436" y="-12"/>
      <point x="533" y="68"/>
      <point x="550" y="206" type="curve" smooth="yes"/>
      <point x="592" y="546" type="line" smooth="yes"/>
      <point x="597" y="588"/>
      <point x="608" y="596"/>
      <point x="665" y="603" type="curve"/>
      <point x="675" y="646" type="line"/>
      <point x="675" y="646"/>
      <point x="622" y="636"/>
      <point x="581" y="636" type="curve" smooth="yes"/>
      <point x="545" y="636"/>
      <point x="474" y="639"/>
      <point x="474" y="639" type="curve"/>
      <point x="463" y="598" type="line"/>
      <point x="463" y="594" type="line"/>
      <point x="463" y="594"/>
      <point x="494" y="596"/>
      <point x="506" y="596" type="curve" smooth="yes"/>
      <point x="534" y="596"/>
      <point x="538" y="588"/>
      <point x="535" y="542" type="curve"/>
      <point x="535" y="542"/>
      <point x="509" y="285"/>
      <point x="500" y="215" type="curve" smooth="yes"/>
      <point x="487" y="102"/>
      <point x="422" y="41"/>
      <point x="315" y="41" type="curve" smooth="yes"/>
      <point x="223" y="41"/>
      <point x="175" y="98"/>
      <point x="175" y="202" type="curve" smooth="yes"/>
      <point x="175" y="217"/>
      <point x="176" y="234"/>
    </contour>
  </outline>
</glyph>
<glyph name="V" format="2">
  <advance width="584"/>
  <unicode hex="0056"/>
  <anchor x="264" y="0" name="bottom"/>
  <anchor x="342" y="636" name="top"/>
  <outline>
    <contour>
      <point x="122" y="538" type="curve" smooth="yes"/>
      <point x="173" y="269"/>
      <point x="227" y="-17"/>
      <point x="227" y="-17" type="curve"/>
      <point x="285" y="5" type="line"/>
      <point x="553" y="547" type="line" smooth="yes"/>
      <point x="573" y="585"/>
      <point x="584" y="593"/>
      <point x="624" y="595" type="curve"/>
      <point x="637" y="640" type="line"/>
      <point x="637" y="640"/>
      <point x="577" y="636"/>
      <point x="531" y="636" type="curve" smooth="yes"/>
      <point x="468" y="636"/>
      <point x="390" y="644"/>
      <point x="390" y="644" type="curve"/>
      <point x="379" y="603" type="line"/>
      <point x="381" y="599" type="line"/>
      <point x="432" y="599" type="line" smooth="yes"/>
      <point x="475" y="599"/>
      <point x="494" y="588"/>
      <point x="494" y="563" type="curve" smooth="yes"/>
      <point x="494" y="535"/>
      <point x="343" y="234"/>
      <point x="275" y="93" type="curve"/>
      <point x="267" y="93" type="line"/>
      <point x="267" y="93"/>
      <point x="201" y="514"/>
      <point x="201" y="560" type="curve" smooth="yes"/>
      <point x="201" y="590"/>
      <point x="212" y="599"/>
      <point x="292" y="604" type="curve"/>
      <point x="301" y="641" type="line"/>
      <point x="299" y="648" type="line"/>
      <point x="299" y="648"/>
      <point x="209" y="636"/>
      <point x="159" y="636" type="curve" smooth="yes"/>
      <point x="127" y="636"/>
      <point x="50" y="639"/>
      <point x="50" y="639" type="curve"/>
      <point x="38" y="599" type="line"/>
      <point x="39" y="595" type="line"/>
      <point x="89" y="594"/>
      <point x="115" y="576"/>
    </contour>
  </outline>
</glyph>
<glyph name="W" format="2">
  <advance width="893"/>
  <unicode hex="0057"/>
  <anchor x="419" y="0" name="bottom"/>
  <anchor x="497" y="636" name="top"/>
  <outline>
    <contour>
      <point x="535" y="-17" type="line"/>
      <point x="592" y="5" type="line"/>
      <point x="862" y="547" type="line" smooth="yes"/>
      <point x="881" y="586"/>
      <point x="893" y="593"/>
      <point x="930" y="595" type="curve"/>
      <point x="942" y="640" type="line"/>
      <point x="942" y="640"/>
      <point x="884" y="636"/>
      <point x="841" y="636" type="curve" smooth="yes"/>
      <point x="780" y="636"/>
      <point x="709" y="644"/>
      <point x="709" y="644" type="curve"/>
      <point x="697" y="603" type="line"/>
      <point x="699" y="599" type="line"/>
      <point x="742" y="599" type="line" smooth="yes"/>
      <point x="785" y="599"/>
      <point x="804" y="590"/>
      <point x="804" y="568" type="curve" smooth="yes"/>
      <point x="804" y="539"/>
      <point x="654" y="231"/>
      <point x="589" y="93" type="curve"/>
      <point x="583" y="93" type="line"/>
      <point x="583" y="93"/>
      <point x="519" y="512"/>
      <point x="519" y="560" type="curve" smooth="yes"/>
      <point x="519" y="590"/>
      <point x="535" y="598"/>
      <point x="614" y="604" type="curve"/>
      <point x="622" y="641" type="line"/>
      <point x="621" y="648" type="line"/>
      <point x="621" y="648"/>
      <point x="538" y="636"/>
      <point x="481" y="636" type="curve" smooth="yes"/>
      <point x="450" y="636"/>
      <point x="375" y="639"/>
      <point x="375" y="639" type="curve"/>
      <point x="363" y="599" type="line"/>
      <point x="364" y="595" type="line"/>
      <point x="411" y="593"/>
      <point x="431" y="577"/>
      <point x="440" y="536" type="curve" smooth="yes"/>
      <point x="443" y="517"/>
      <point x="449" y="496"/>
      <point x="451" y="480" type="curve"/>
      <point x="388" y="348"/>
      <point x="326" y="223"/>
      <point x="266" y="93" type="curve"/>
      <point x="260" y="93" type="line"/>
      <point x="260" y="93"/>
      <point x="197" y="503"/>
      <point x="197" y="559" type="curve" smooth="yes"/>
      <point x="197" y="590"/>
      <point x="214" y="599"/>
      <point x="292" y="604" type="curve"/>
      <point x="299" y="641" type="line"/>
      <point x="297" y="648" type="line"/>
      <point x="297" y="648"/>
      <point x="225" y="636"/>
      <point x="157" y="636" type="curve" smooth="yes"/>
      <point x="127" y="636"/>
      <point x="51" y="639"/>
      <point x="51" y="639" type="curve"/>
      <point x="40" y="599" type="line"/>
      <point x="42" y="595" type="line"/>
      <point x="90" y="594"/>
      <point x="114" y="576"/>
      <point x="121" y="538" type="curve" smooth="yes"/>
      <point x="170" y="270"/>
      <point x="213" y="-17"/>
      <point x="213" y="-17" type="curve"/>
      <point x="272" y="5" type="line"/>
      <point x="462" y="405" type="line"/>
      <point x="468" y="405" type="line"/>
    </contour>
  </outline>
</glyph>
<glyph name="Y" format="2">
  <advance width="512"/>
  <unicode hex="0059"/>
  <anchor x="228" y="0" name="bottom"/>
  <anchor x="246" y="178" name="center"/>
  <anchor x="326" y="636" name="top"/>
  <anchor x="70" y="636" name="topleft"/>
  <outline>
    <contour>
      <point x="190" y="567" type="curve" smooth="yes"/>
      <point x="190" y="591"/>
      <point x="207" y="599"/>
      <point x="273" y="605" type="curve"/>
      <point x="281" y="638" type="line"/>
      <point x="279" y="645" type="line"/>
      <point x="279" y="645"/>
      <point x="197" y="636"/>
      <point x="142" y="636" type="curve" smooth="yes"/>
      <point x="98" y="636"/>
      <point x="39" y="640"/>
      <point x="39" y="640" type="curve"/>
      <point x="28" y="604" type="line"/>
      <point x="30" y="600" type="line"/>
      <point x="106" y="593"/>
      <point x="108" y="567"/>
      <point x="137" y="483" type="curve" smooth="yes"/>
      <point x="200" y="301" type="line"/>
      <point x="218" y="252"/>
      <point x="218" y="226"/>
      <point x="214" y="186" type="curve" smooth="yes"/>
      <point x="209" y="141" type="line" smooth="yes"/>
      <point x="201" y="66"/>
      <point x="191" y="46"/>
      <point x="121" y="31" type="curve"/>
      <point x="110" y="-12" type="line"/>
      <point x="110" y="-12"/>
      <point x="171" y="0"/>
      <point x="219" y="0" type="curve" smooth="yes"/>
      <point x="260" y="0"/>
      <point x="338" y="-3"/>
      <point x="338" y="-3" type="curve"/>
      <point x="352" y="40" type="line"/>
      <point x="350" y="44" type="line"/>
      <point x="350" y="44"/>
      <point x="322" y="41"/>
      <point x="303" y="41" type="curve" smooth="yes"/>
      <point x="268" y="41"/>
      <point x="263" y="58"/>
      <point x="270" y="110" type="curve" smooth="yes"/>
      <point x="286" y="223"/>
      <point x="287" y="257"/>
      <point x="314" y="294" type="curve"/>
      <point x="431" y="469" type="line" smooth="yes"/>
      <point x="496" y="566"/>
      <point x="505" y="587"/>
      <point x="573" y="599" type="curve"/>
      <point x="584" y="634" type="line"/>
      <point x="581" y="640" type="line"/>
      <point x="581" y="640"/>
      <point x="529" y="636"/>
      <point x="492" y="636" type="curve" smooth="yes"/>
      <point x="457" y="636"/>
      <point x="387" y="644"/>
      <point x="388" y="644" type="curve"/>
      <point x="377" y="607" type="line"/>
      <point x="379" y="603" type="line"/>
      <point x="418" y="600"/>
      <point x="431" y="591"/>
      <point x="431" y="575" type="curve" smooth="yes"/>
      <point x="431" y="562"/>
      <point x="423" y="542"/>
      <point x="410" y="522" type="curve" smooth="yes"/>
      <point x="271" y="304" type="line"/>
      <point x="267" y="304" type="line"/>
      <point x="267" y="302"/>
      <point x="190" y="531"/>
    </contour>
  </outline>
</glyph>
<glyph name="Z" format="2">
  <advance width="544"/>
  <unicode hex="005A"/>
  <anchor x="244" y="0" name="bottom"/>
  <anchor x="342" y="636" name="top"/>
  <outline>
    <contour>
      <point x="431" y="-3" type="line"/>
      <point x="447" y="13" type="line"/>
      <point x="463" y="108"/>
      <point x="496" y="215"/>
      <point x="496" y="215" type="curve"/>
      <point x="453" y="210" type="line"/>
      <point x="417" y="95"/>
      <point x="371" y="48"/>
      <point x="305" y="47" type="curve" smooth="yes"/>
      <point x="111" y="40" type="line"/>
      <point x="160" y="107"/>
      <point x="343" y="352"/>
      <point x="548" y="602" type="curve"/>
      <point x="541" y="630" type="line"/>
      <point x="297" y="637" type="line"/>
      <point x="130" y="648" type="line"/>
      <point x="119" y="639" type="line"/>
      <point x="106" y="548"/>
      <point x="78" y="447"/>
      <point x="78" y="447" type="curve"/>
      <point x="122" y="451" type="line"/>
      <point x="145" y="553"/>
      <point x="181" y="584"/>
      <point x="269" y="586" type="curve" smooth="yes"/>
      <point x="439" y="592" type="line"/>
      <point x="10" y="28" type="line"/>
      <point x="18" y="-3" type="line"/>
      <point x="87" y="3" type="line"/>
    </contour>
  </outline>
</glyph>
<glyph name="bracketleft" format="2">
  <advance width="297"/>
  <unicode hex="005B"/>
  <outline>
    <contour>
      <point x="49" y="-126" type="curve"/>
      <point x="224" y="-137" type="line"/>
      <point x="234" y="-107" type="line"/>
      <point x="231" y="-100" type="line"/>
      <point x="123" y="-76" type="line"/>
      <point x="203" y="579" type="line"/>
      <point x="315" y="603" type="line"/>
      <point x="325" y="634" type="line"/>
      <point x="321" y="640" type="line"/>
      <point x="142" y="629" type="line"/>
      <point x="142" y="629"/>
      <point x="118" y="350"/>
      <point x="106" y="250" type="curve" smooth="yes"/>
      <point x="93" y="150"/>
      <point x="49" y="-126"/>
    </contour>
  </outline>
</glyph>
<glyph name="backslash" format="2">
  <advance width="316"/>
  <unicode hex="005C"/>
  <outline>
    <contour>
      <point x="98" y="675" type="line"/>
      <point x="89" y="665" type="line"/>
      <point x="89" y="665"/>
      <point x="129" y="377"/>
      <point x="150" y="215" type="curve" smooth="yes"/>
      <point x="171" y="50"/>
      <point x="191" y="-110"/>
      <point x="191" y="-110" type="curve"/>
      <point x="240" y="-110" type="line"/>
      <point x="247" y="-102" type="line"/>
      <point x="247" y="-102"/>
      <point x="218" y="74"/>
      <point x="199" y="226" type="curve" smooth="yes"/>
      <point x="144" y="675" type="line"/>
    </contour>
  </outline>
</glyph>
<glyph name="bracketright" format="2">
  <advance width="297"/>
  <unicode hex="005D"/>
  <outline>
    <contour>
      <point x="256" y="629" type="curve"/>
      <point x="81" y="640" type="line"/>
      <point x="71" y="610" type="line"/>
      <point x="74" y="603" type="line"/>
      <point x="182" y="579" type="line"/>
      <point x="102" y="-76" type="line"/>
      <point x="-10" y="-100" type="line"/>
      <point x="-20" y="-131" type="line"/>
      <point x="-17" y="-137" type="line"/>
      <point x="163" y="-126" type="line"/>
      <point x="163" y="-126"/>
      <point x="187" y="153"/>
      <point x="199" y="253" type="curve" smooth="yes"/>
      <point x="212" y="353"/>
      <point x="256" y="629"/>
    </contour>
  </outline>
</glyph>
<glyph name="asciicircum" format="2">
  <advance width="485"/>
  <unicode hex="005E"/>
  <outline>
    <contour>
      <point x="302" y="473" type="curve"/>
      <point x="292" y="481" type="line"/>
      <point x="244" y="479" type="line"/>
      <point x="137" y="276" type="line" smooth="yes"/>
      <point x="88" y="185"/>
      <point x="35" y="75"/>
      <point x="35" y="75" type="curve"/>
      <point x="38" y="66" type="line"/>
      <point x="87" y="59" type="line"/>
      <point x="87" y="59"/>
      <point x="138" y="171"/>
      <point x="181" y="253" type="curve" smooth="yes"/>
      <point x="257" y="407" type="line"/>
      <point x="263" y="407" type="line"/>
      <point x="309" y="239" type="line"/>
      <point x="333" y="157"/>
      <point x="362" y="58"/>
      <point x="362" y="58" type="curve"/>
      <point x="373" y="57" type="line"/>
      <point x="416" y="87" type="line"/>
      <point x="416" y="87"/>
      <point x="382" y="193"/>
      <point x="358" y="275" type="curve" smooth="yes"/>
      <point x="336" y="348"/>
      <point x="302" y="473"/>
    </contour>
  </outline>
</glyph>
<glyph name="underscore" format="2">
  <advance width="439"/>
  <unicode hex="005F"/>
  <outline>
    <contour>
      <point x="407" y="-91" type="line"/>
      <point x="403" y="-81" type="line"/>
      <point x="402" y="-82"/>
      <point x="370" y="-83"/>
      <point x="328" y="-84" type="curve" smooth="yes"/>
      <point x="286" y="-86"/>
      <point x="235" y="-87"/>
      <point x="197" y="-87" type="curve" smooth="yes"/>
      <point x="111" y="-87"/>
      <point x="-31" y="-86"/>
      <point x="-33" y="-86" type="curve"/>
      <point x="-50" y="-135" type="line"/>
      <point x="-45" y="-144" type="line"/>
      <point x="-3" y="-144"/>
      <point x="240" y="-142"/>
      <point x="393" y="-142" type="curve"/>
    </contour>
  </outline>
</glyph>
<glyph name="a" format="2">
  <advance width="461"/>
  <unicode hex="0061"/>
  <anchor x="253" y="0" name="bottom"/>
  <anchor x="410" y="41" name="ogonek"/>
  <anchor x="269" y="474" name="top"/>
  <outline>
    <contour>
      <point x="334" y="60" type="curve"/>
      <point x="331" y="64" type="line"/>
      <point x="347" y="175"/>
      <point x="382" y="336"/>
      <point x="414" y="443" type="curve"/>
      <point x="406" y="455" type="line"/>
      <point x="375" y="470" type="line"/>
      <point x="370" y="469" type="line"/>
      <point x="361" y="444" type="line"/>
      <point x="261" y="460" type="line"/>
      <point x="148" y="460"/>
      <point x="32" y="288"/>
      <point x="32" y="122" type="curve" smooth="yes"/>
      <point x="32" y="38"/>
      <point x="62" y="-12"/>
      <point x="112" y="-12" type="curve"/>
      <point x="176" y="33"/>
      <point x="234" y="107"/>
      <point x="299" y="227" type="curve"/>
      <point x="305" y="225" type="line"/>
      <point x="278" y="107"/>
      <point x="262" y="30"/>
      <point x="262" y="15" type="curve" smooth="yes"/>
      <point x="262" y="-1"/>
      <point x="275" y="-12"/>
      <point x="294" y="-12" type="curve" smooth="yes"/>
      <point x="319" y="-12"/>
      <point x="349" y="10"/>
      <point x="438" y="94" type="curve"/>
      <point x="425" y="118" type="line"/>
      <point x="413" y="119" type="line"/>
      <point x="352" y="66"/>
      <point x="344" y="60"/>
    </contour>
    <contour>
      <point x="133" y="69" type="curve" smooth="yes"/>
      <point x="115" y="69"/>
      <point x="102" y="112"/>
      <point x="102" y="171" type="curve" smooth="yes"/>
      <point x="102" y="294"/>
      <point x="164" y="406"/>
      <point x="233" y="406" type="curve" smooth="yes"/>
      <point x="258" y="406"/>
      <point x="300" y="392"/>
      <point x="331" y="373" type="curve"/>
      <point x="260" y="211"/>
      <point x="168" y="69"/>
    </contour>
  </outline>
</glyph>
<glyph name="b" format="2">
  <advance width="453"/>
  <unicode hex="0062"/>
  <anchor x="170" y="0" name="bottom"/>
  <anchor x="170" y="463" name="top"/>
  <outline>
    <contour>
      <point x="57" y="35" type="curve"/>
      <point x="67" y="16" type="line"/>
      <point x="102" y="2"/>
      <point x="155" y="-8"/>
      <point x="195" y="-8" type="curve" smooth="yes"/>
      <point x="311" y="-8"/>
      <point x="420" y="144"/>
      <point x="420" y="307" type="curve" smooth="yes"/>
      <point x="420" y="400"/>
      <point x="378" y="464"/>
      <point x="318" y="464" type="curve"/>
      <point x="259" y="416"/>
      <point x="211" y="343"/>
      <point x="144" y="200" type="curve"/>
      <point x="141" y="202" type="line"/>
      <point x="163" y="351"/>
      <point x="206" y="571"/>
      <point x="242" y="721" type="curve"/>
      <point x="233" y="733" type="line"/>
      <point x="186" y="730"/>
      <point x="113" y="727"/>
      <point x="72" y="727" type="curve"/>
      <point x="66" y="689" type="line"/>
      <point x="107" y="689" type="line" smooth="yes"/>
      <point x="137" y="689"/>
      <point x="149" y="677"/>
      <point x="149" y="650" type="curve" smooth="yes"/>
      <point x="149" y="625"/>
      <point x="106" y="340"/>
    </contour>
    <contour>
      <point x="305" y="381" type="curve" smooth="yes"/>
      <point x="329" y="381"/>
      <point x="351" y="323"/>
      <point x="351" y="259" type="curve" smooth="yes"/>
      <point x="351" y="150"/>
      <point x="293" y="46"/>
      <point x="233" y="46" type="curve" smooth="yes"/>
      <point x="207" y="46"/>
      <point x="154" y="57"/>
      <point x="121" y="69" type="curve"/>
      <point x="203" y="262"/>
      <point x="274" y="381"/>
    </contour>
  </outline>
</glyph>
<glyph name="c" format="2">
  <advance width="344"/>
  <unicode hex="0063"/>
  <anchor x="174" y="0" name="bottom"/>
  <anchor x="250" y="452" name="top"/>
  <outline>
    <contour>
      <point x="229" y="405" type="curve" smooth="yes"/>
      <point x="256" y="405"/>
      <point x="281" y="391"/>
      <point x="302" y="362" type="curve"/>
      <point x="316" y="365" type="line"/>
      <point x="350" y="432" type="line"/>
      <point x="345" y="443" type="line"/>
      <point x="326" y="456"/>
      <point x="294" y="464"/>
      <point x="260" y="464" type="curve" smooth="yes"/>
      <point x="146" y="464"/>
      <point x="34" y="310"/>
      <point x="34" y="153" type="curve" smooth="yes"/>
      <point x="34" y="51"/>
      <point x="78" y="-12"/>
      <point x="150" y="-12" type="curve" smooth="yes"/>
      <point x="207" y="-12"/>
      <point x="273" y="38"/>
      <point x="311" y="109" type="curve"/>
      <point x="296" y="133" type="line"/>
      <point x="282" y="134" type="line"/>
      <point x="258" y="83"/>
      <point x="213" y="47"/>
      <point x="173" y="47" type="curve" smooth="yes"/>
      <point x="131" y="47"/>
      <point x="104" y="100"/>
      <point x="104" y="183" type="curve" smooth="yes"/>
      <point x="104" y="295"/>
      <point x="166" y="405"/>
    </contour>
  </outline>
</glyph>
<glyph name="d" format="2">
  <advance width="463"/>
  <unicode hex="0064"/>
  <anchor x="204" y="0" name="bottom"/>
  <anchor x="232" y="226" name="center"/>
  <anchor x="260" y="452" name="top"/>
  <anchor x="471" y="452" name="topright"/>
  <outline>
    <contour>
      <point x="334" y="60" type="curve"/>
      <point x="331" y="64" type="line"/>
      <point x="361" y="292"/>
      <point x="453" y="721"/>
      <point x="453" y="721" type="curve"/>
      <point x="444" y="733" type="line"/>
      <point x="444" y="733"/>
      <point x="344" y="727"/>
      <point x="283" y="727" type="curve"/>
      <point x="277" y="689" type="line"/>
      <point x="318" y="689" type="line" smooth="yes"/>
      <point x="351" y="689"/>
      <point x="363" y="676"/>
      <point x="359" y="645" type="curve" smooth="yes"/>
      <point x="333" y="448" type="line"/>
      <point x="261" y="460" type="line"/>
      <point x="149" y="460"/>
      <point x="32" y="288"/>
      <point x="32" y="124" type="curve" smooth="yes"/>
      <point x="32" y="38"/>
      <point x="61" y="-12"/>
      <point x="112" y="-12" type="curve"/>
      <point x="175" y="32"/>
      <point x="233" y="106"/>
      <point x="298" y="227" type="curve"/>
      <point x="305" y="225" type="line"/>
      <point x="305" y="225"/>
      <point x="262" y="37"/>
      <point x="262" y="17" type="curve" smooth="yes"/>
      <point x="262" y="-2"/>
      <point x="274" y="-12"/>
      <point x="298" y="-12" type="curve" smooth="yes"/>
      <point x="319" y="-12"/>
      <point x="355" y="16"/>
      <point x="438" y="94" type="curve"/>
      <point x="425" y="118" type="line"/>
      <point x="413" y="119" type="line"/>
      <point x="348" y="64"/>
      <point x="343" y="60"/>
    </contour>
    <contour>
      <point x="131" y="69" type="curve" smooth="yes"/>
      <point x="115" y="69"/>
      <point x="102" y="115"/>
      <point x="102" y="173" type="curve" smooth="yes"/>
      <point x="102" y="292"/>
      <point x="165" y="406"/>
      <point x="230" y="406" type="curve" smooth="yes"/>
      <point x="256" y="406"/>
      <point x="296" y="393"/>
      <point x="328" y="374" type="curve"/>
      <point x="255" y="204"/>
      <point x="168" y="69"/>
    </contour>
  </outline>
</glyph>
<glyph name="e" format="2">
  <advance width="359"/>
  <unicode hex="0065"/>
  <anchor x="152" y="0" name="bottom"/>
  <anchor x="295" y="10" name="ogonek"/>
  <anchor x="238" y="452" name="top"/>
  <outline>
    <contour>
      <point x="340" y="386" type="curve" smooth="yes"/>
      <point x="340" y="436"/>
      <point x="311" y="464"/>
      <point x="261" y="464" type="curve" smooth="yes"/>
      <point x="149" y="464"/>
      <point x="34" y="307"/>
      <point x="34" y="153" type="curve" smooth="yes"/>
      <point x="34" y="51"/>
      <point x="78" y="-12"/>
      <point x="150" y="-12" type="curve" smooth="yes"/>
      <point x="207" y="-12"/>
      <point x="273" y="38"/>
      <point x="311" y="109" type="curve"/>
      <point x="296" y="133" type="line"/>
      <point x="282" y="134" type="line"/>
      <point x="255" y="82"/>
      <point x="212" y="48"/>
      <point x="172" y="48" type="curve" smooth="yes"/>
      <point x="125" y="48"/>
      <point x="97" y="105"/>
      <point x="102" y="190" type="curve"/>
      <point x="273" y="247"/>
      <point x="340" y="302"/>
    </contour>
    <contour>
      <point x="229" y="406" type="curve" smooth="yes"/>
      <point x="255" y="406"/>
      <point x="269" y="390"/>
      <point x="269" y="360" type="curve" smooth="yes"/>
      <point x="269" y="305"/>
      <point x="222" y="268"/>
      <point x="106" y="232" type="curve"/>
      <point x="121" y="327"/>
      <point x="177" y="406"/>
    </contour>
  </outline>
</glyph>
<glyph name="f" format="2">
  <advance width="257"/>
  <unicode hex="0066"/>
  <anchor x="155" y="0" name="bottom"/>
  <anchor x="263" y="749" name="top"/>
  <outline>
    <contour>
      <point x="34" y="410" type="line"/>
      <point x="37" y="405" type="line"/>
      <point x="106" y="402" type="line"/>
      <point x="113" y="397" type="line"/>
      <point x="85" y="57" type="line" smooth="yes"/>
      <point x="81" y="3"/>
      <point x="81" y="-51"/>
      <point x="73" y="-116" type="curve" smooth="yes"/>
      <point x="67" y="-161"/>
      <point x="36" y="-195"/>
      <point x="1" y="-195" type="curve" smooth="yes"/>
      <point x="-42" y="-195"/>
      <point x="-70" y="-162"/>
      <point x="-69" y="-112" type="curve"/>
      <point x="-83" y="-112" type="line"/>
      <point x="-94" y="-131"/>
      <point x="-111" y="-173"/>
      <point x="-117" y="-196" type="curve"/>
      <point x="-108" y="-222"/>
      <point x="-69" y="-242"/>
      <point x="-27" y="-242" type="curve" smooth="yes"/>
      <point x="58" y="-242"/>
      <point x="116" y="-181"/>
      <point x="128" y="-75" type="curve" smooth="yes"/>
      <point x="180" y="402" type="line"/>
      <point x="190" y="408" type="line"/>
      <point x="326" y="407" type="line"/>
      <point x="334" y="447" type="line"/>
      <point x="330" y="450" type="line"/>
      <point x="185" y="449" type="line"/>
      <point x="200" y="569" type="line" smooth="yes"/>
      <point x="209" y="645"/>
      <point x="240" y="683"/>
      <point x="293" y="683" type="curve" smooth="yes"/>
      <point x="320" y="683"/>
      <point x="355" y="672"/>
      <point x="392" y="650" type="curve"/>
      <point x="411" y="653" type="line"/>
      <point x="442" y="716" type="line"/>
      <point x="438" y="727" type="line"/>
      <point x="413" y="736"/>
      <point x="371" y="742"/>
      <point x="337" y="742" type="curve" smooth="yes"/>
      <point x="230" y="742"/>
      <point x="141" y="653"/>
      <point x="126" y="531" type="curve" smooth="yes"/>
      <point x="117" y="451" type="line"/>
      <point x="38" y="439" type="line"/>
    </contour>
  </outline>
</glyph>
<glyph name="g" format="2">
  <advance width="444"/>
  <unicode hex="0067"/>
  <anchor x="263" y="-215" name="bottom"/>
  <anchor x="265" y="484" name="top"/>
  <outline>
    <contour>
      <point x="80" y="-241" type="curve" smooth="yes"/>
      <point x="191" y="-241"/>
      <point x="325" y="-116"/>
      <point x="339" y="0" type="curve" smooth="yes"/>
      <point x="344" y="41"/>
      <point x="347" y="172"/>
      <point x="355" y="238" type="curve" smooth="yes"/>
      <point x="361" y="291"/>
      <point x="386" y="357"/>
      <point x="434" y="446" type="curve"/>
      <point x="426" y="455" type="line"/>
      <point x="395" y="470" type="line"/>
      <point x="390" y="469" type="line"/>
      <point x="379" y="444" type="line"/>
      <point x="277" y="460" type="line"/>
      <point x="172" y="460"/>
      <point x="59" y="299"/>
      <point x="59" y="149" type="curve" smooth="yes"/>
      <point x="59" y="88"/>
      <point x="78" y="40"/>
      <point x="110" y="21" type="curve"/>
      <point x="109" y="12" type="line"/>
      <point x="26" y="-37"/>
      <point x="-43" y="-82"/>
      <point x="-78" y="-110" type="curve"/>
      <point x="-80" y="-115" type="line"/>
      <point x="-84" y="-177"/>
      <point x="-3" y="-241"/>
    </contour>
    <contour>
      <point x="113" y="-183" type="curve" smooth="yes"/>
      <point x="60" y="-183"/>
      <point x="-1" y="-141"/>
      <point x="-1" y="-107" type="curve" smooth="yes"/>
      <point x="-1" y="-87"/>
      <point x="90" y="-38"/>
      <point x="153" y="8" type="curve" smooth="yes"/>
      <point x="201" y="43"/>
      <point x="232" y="83"/>
      <point x="294" y="198" type="curve"/>
      <point x="302" y="196" type="line"/>
      <point x="277" y="-11" type="line" smooth="yes"/>
      <point x="264" y="-118"/>
      <point x="198" y="-183"/>
    </contour>
    <contour>
      <point x="166" y="87" type="curve" smooth="yes"/>
      <point x="146" y="87"/>
      <point x="128" y="138"/>
      <point x="128" y="196" type="curve" smooth="yes"/>
      <point x="128" y="302"/>
      <point x="186" y="406"/>
      <point x="246" y="406" type="curve" smooth="yes"/>
      <point x="271" y="406"/>
      <point x="307" y="395"/>
      <point x="347" y="375" type="curve"/>
      <point x="263" y="194"/>
      <point x="196" y="87"/>
    </contour>
  </outline>
</glyph>
<glyph name="h" format="2">
  <advance width="490"/>
  <unicode hex="0068"/>
  <anchor x="217" y="0" name="bottom"/>
  <anchor x="245" y="226" name="center"/>
  <anchor x="167" y="697" name="top"/>
  <outline>
    <contour>
      <point x="343" y="60" type="curve"/>
      <point x="340" y="64" type="line"/>
      <point x="358" y="148"/>
      <point x="427" y="298"/>
      <point x="427" y="367" type="curve" smooth="yes"/>
      <point x="427" y="420"/>
      <point x="391" y="464"/>
      <point x="348" y="464" type="curve"/>
      <point x="286" y="428"/>
      <point x="214" y="334"/>
      <point x="145" y="199" type="curve"/>
      <point x="140" y="202" type="line"/>
      <point x="177" y="452"/>
      <point x="241" y="721"/>
      <point x="241" y="721" type="curve"/>
      <point x="232" y="733" type="line"/>
      <point x="232" y="733"/>
      <point x="132" y="727"/>
      <point x="71" y="727" type="curve"/>
      <point x="65" y="689" type="line"/>
      <point x="106" y="689" type="line" smooth="yes"/>
      <point x="136" y="689"/>
      <point x="148" y="677"/>
      <point x="148" y="650" type="curve"/>
      <point x="148" y="610"/>
      <point x="52" y="0"/>
      <point x="52" y="0" type="curve"/>
      <point x="59" y="-9" type="line"/>
      <point x="75" y="-9"/>
      <point x="120" y="8"/>
      <point x="121" y="14" type="curve" smooth="yes"/>
      <point x="132" y="98" type="line"/>
      <point x="201" y="260"/>
      <point x="276" y="371"/>
      <point x="318" y="371" type="curve" smooth="yes"/>
      <point x="338" y="371"/>
      <point x="352" y="354"/>
      <point x="352" y="330" type="curve" smooth="yes"/>
      <point x="352" y="261"/>
      <point x="276" y="78"/>
      <point x="276" y="17" type="curve" smooth="yes"/>
      <point x="276" y="-2"/>
      <point x="287" y="-12"/>
      <point x="307" y="-12" type="curve" smooth="yes"/>
      <point x="329" y="-12"/>
      <point x="373" y="21"/>
      <point x="447" y="94" type="curve"/>
      <point x="434" y="118" type="line"/>
      <point x="422" y="119" type="line"/>
      <point x="362" y="67"/>
      <point x="353" y="60"/>
    </contour>
  </outline>
</glyph>
<glyph name="j" format="2">
  <advance width="245"/>
  <unicode hex="006A"/>
  <anchor x="243" y="0" name="bottom"/>
  <anchor x="125" y="463" name="top"/>
  <outline>
    <contour>
      <point x="124" y="21" type="curve" smooth="yes"/>
      <point x="145" y="179"/>
      <point x="210" y="440"/>
      <point x="210" y="440" type="curve"/>
      <point x="200" y="452" type="line"/>
      <point x="200" y="452"/>
      <point x="102" y="446"/>
      <point x="41" y="446" type="curve"/>
      <point x="33" y="408" type="line"/>
      <point x="74" y="408" type="line" smooth="yes"/>
      <point x="105" y="408"/>
      <point x="118" y="395"/>
      <point x="118" y="365" type="curve" smooth="yes"/>
      <point x="118" y="330"/>
      <point x="68" y="38"/>
      <point x="68" y="38" type="curve"/>
      <point x="50" y="-103"/>
      <point x="17" y="-159"/>
      <point x="-60" y="-214" type="curve"/>
      <point x="-63" y="-222" type="line"/>
      <point x="-48" y="-241" type="line"/>
      <point x="47" y="-192"/>
      <point x="105" y="-118"/>
    </contour>
    <contour>
      <point x="175" y="592" type="curve" smooth="yes"/>
      <point x="209" y="592"/>
      <point x="239" y="622"/>
      <point x="239" y="658" type="curve" smooth="yes"/>
      <point x="239" y="684"/>
      <point x="222" y="702"/>
      <point x="197" y="702" type="curve" smooth="yes"/>
      <point x="162" y="702"/>
      <point x="133" y="672"/>
      <point x="133" y="636" type="curve" smooth="yes"/>
      <point x="133" y="610"/>
      <point x="150" y="592"/>
    </contour>
  </outline>
</glyph>
<glyph name="k" format="2">
  <advance width="445"/>
  <unicode hex="006B"/>
  <anchor x="167" y="697" name="top"/>
  <outline>
    <contour>
      <point x="207" y="179" type="line"/>
      <point x="315" y="-17" type="line"/>
      <point x="328" y="-24" type="line"/>
      <point x="389" y="8" type="line"/>
      <point x="387" y="20" type="line"/>
      <point x="387" y="20"/>
      <point x="328" y="87"/>
      <point x="265" y="186" type="curve"/>
      <point x="365" y="245"/>
      <point x="419" y="310"/>
      <point x="419" y="372" type="curve" smooth="yes"/>
      <point x="419" y="423"/>
      <point x="385" y="464"/>
      <point x="343" y="464" type="curve"/>
      <point x="281" y="428"/>
      <point x="209" y="334"/>
      <point x="140" y="199" type="curve"/>
      <point x="135" y="202" type="line"/>
      <point x="172" y="452"/>
      <point x="236" y="721"/>
      <point x="236" y="721" type="curve"/>
      <point x="227" y="733" type="line"/>
      <point x="227" y="733"/>
      <point x="127" y="727"/>
      <point x="66" y="727" type="curve"/>
      <point x="60" y="689" type="line"/>
      <point x="101" y="689" type="line" smooth="yes"/>
      <point x="131" y="689"/>
      <point x="143" y="677"/>
      <point x="143" y="650" type="curve" smooth="yes"/>
      <point x="143" y="610"/>
      <point x="47" y="0"/>
      <point x="47" y="0" type="curve"/>
      <point x="54" y="-9" type="line"/>
      <point x="70" y="-9"/>
      <point x="115" y="8"/>
      <point x="116" y="14" type="curve" smooth="yes"/>
      <point x="127" y="97" type="line"/>
      <point x="195" y="258"/>
      <point x="272" y="371"/>
      <point x="314" y="371" type="curve" smooth="yes"/>
      <point x="333" y="371"/>
      <point x="347" y="356"/>
      <point x="347" y="334" type="curve" smooth="yes"/>
      <point x="347" y="285"/>
      <point x="304" y="241"/>
      <point x="211" y="194" type="curve"/>
    </contour>
  </outline>
</glyph>
<glyph name="l" format="2">
  <advance width="250"/>
  <unicode hex="006C"/>
  <anchor x="97" y="0" name="bottom"/>
  <anchor x="125" y="226" name="center"/>
  <anchor x="192" y="730" name="top"/>
  <anchor x="258" y="452" name="topright"/>
  <outline>
    <contour>
      <point x="121" y="60" type="curve"/>
      <point x="118" y="64" type="line"/>
      <point x="152" y="322"/>
      <point x="241" y="721"/>
      <point x="241" y="721" type="curve"/>
      <point x="232" y="733" type="line"/>
      <point x="232" y="733"/>
      <point x="132" y="727"/>
      <point x="71" y="727" type="curve"/>
      <point x="65" y="689" type="line"/>
      <point x="106" y="689" type="line" smooth="yes"/>
      <point x="136" y="689"/>
      <point x="148" y="677"/>
      <point x="148" y="649" type="curve" smooth="yes"/>
      <point x="148" y="609"/>
      <point x="54" y="34"/>
      <point x="54" y="17" type="curve" smooth="yes"/>
      <point x="54" y="-2"/>
      <point x="65" y="-12"/>
      <point x="85" y="-12" type="curve" smooth="yes"/>
      <point x="108" y="-12"/>
      <point x="156" y="25"/>
      <point x="225" y="94" type="curve"/>
      <point x="212" y="118" type="line"/>
      <point x="200" y="119" type="line"/>
      <point x="143" y="69"/>
      <point x="131" y="60"/>
    </contour>
  </outline>
</glyph>
<glyph name="m" format="2">
  <advance width="736"/>
  <unicode hex="006D"/>
  <anchor x="340" y="0" name="bottom"/>
  <anchor x="396" y="452" name="top"/>
  <outline>
    <contour>
      <point x="588" y="60" type="curve"/>
      <point x="585" y="64" type="line"/>
      <point x="605" y="149"/>
      <point x="674" y="300"/>
      <point x="674" y="371" type="curve" smooth="yes"/>
      <point x="674" y="424"/>
      <point x="642" y="464"/>
      <point x="600" y="464" type="curve"/>
      <point x="535" y="426"/>
      <point x="459" y="329"/>
      <point x="393" y="199" type="curve"/>
      <point x="390" y="202" type="line"/>
      <point x="390" y="202"/>
      <point x="431" y="337"/>
      <point x="431" y="371" type="curve" smooth="yes"/>
      <point x="431" y="422"/>
      <point x="396" y="464"/>
      <point x="354" y="464" type="curve"/>
      <point x="293" y="428"/>
      <point x="223" y="335"/>
      <point x="155" y="199" type="curve"/>
      <point x="152" y="202" type="line"/>
      <point x="171" y="319"/>
      <point x="213" y="440"/>
      <point x="213" y="440" type="curve"/>
      <point x="204" y="452" type="line"/>
      <point x="204" y="452"/>
      <point x="103" y="446"/>
      <point x="42" y="446" type="curve"/>
      <point x="35" y="408" type="line"/>
      <point x="76" y="408" type="line" smooth="yes"/>
      <point x="107" y="408"/>
      <point x="119" y="396"/>
      <point x="119" y="368" type="curve"/>
      <point x="119" y="336"/>
      <point x="64" y="0"/>
      <point x="64" y="0" type="curve"/>
      <point x="71" y="-9" type="line"/>
      <point x="87" y="-9"/>
      <point x="132" y="8"/>
      <point x="133" y="14" type="curve" smooth="yes"/>
      <point x="144" y="99" type="line"/>
      <point x="211" y="261"/>
      <point x="284" y="371"/>
      <point x="324" y="371" type="curve" smooth="yes"/>
      <point x="344" y="371"/>
      <point x="358" y="354"/>
      <point x="358" y="330" type="curve" smooth="yes"/>
      <point x="358" y="293"/>
      <point x="291" y="0"/>
      <point x="291" y="0" type="curve"/>
      <point x="298" y="-9" type="line"/>
      <point x="314" y="-9"/>
      <point x="359" y="8"/>
      <point x="360" y="14" type="curve" smooth="yes"/>
      <point x="372" y="79" type="line"/>
      <point x="445" y="252"/>
      <point x="525" y="371"/>
      <point x="568" y="371" type="curve" smooth="yes"/>
      <point x="588" y="371"/>
      <point x="602" y="354"/>
      <point x="602" y="330" type="curve" smooth="yes"/>
      <point x="602" y="262"/>
      <point x="520" y="77"/>
      <point x="520" y="17" type="curve" smooth="yes"/>
      <point x="520" y="-2"/>
      <point x="531" y="-12"/>
      <point x="551" y="-12" type="curve" smooth="yes"/>
      <point x="572" y="-12"/>
      <point x="617" y="21"/>
      <point x="693" y="94" type="curve"/>
      <point x="680" y="118" type="line"/>
      <point x="668" y="119" type="line"/>
      <point x="606" y="66"/>
      <point x="598" y="60"/>
    </contour>
  </outline>
</glyph>
<glyph name="o" format="2">
  <advance width="406"/>
  <unicode hex="006F"/>
  <anchor x="175" y="0" name="bottom"/>
  <anchor x="203" y="226" name="center"/>
  <anchor x="247" y="40" name="ogonek"/>
  <anchor x="231" y="452" name="top"/>
  <anchor x="414" y="452" name="topright"/>
  <outline>
    <contour>
      <point x="146" y="-12" type="curve" smooth="yes"/>
      <point x="271" y="-12"/>
      <point x="375" y="139"/>
      <point x="375" y="315" type="curve" smooth="yes"/>
      <point x="375" y="409"/>
      <point x="331" y="464"/>
      <point x="261" y="464" type="curve" smooth="yes"/>
      <point x="140" y="464"/>
      <point x="34" y="316"/>
      <point x="34" y="152" type="curve" smooth="yes"/>
      <point x="34" y="52"/>
      <point x="80" y="-12"/>
    </contour>
    <contour>
      <point x="186" y="43" type="curve" smooth="yes"/>
      <point x="139" y="43"/>
      <point x="106" y="108"/>
      <point x="106" y="202" type="curve" smooth="yes"/>
      <point x="106" y="318"/>
      <point x="154" y="404"/>
      <point x="219" y="404" type="curve" smooth="yes"/>
      <point x="269" y="404"/>
      <point x="300" y="349"/>
      <point x="300" y="260" type="curve" smooth="yes"/>
      <point x="300" y="135"/>
      <point x="252" y="43"/>
    </contour>
  </outline>
</glyph>
<glyph name="p" format="2">
  <advance width="465"/>
  <unicode hex="0070"/>
  <outline>
    <contour>
      <point x="-10" y="-199" type="curve"/>
      <point x="-16" y="-235" type="line"/>
      <point x="35" y="-231"/>
      <point x="119" y="-228"/>
      <point x="182" y="-228" type="curve"/>
      <point x="188" y="-195" type="line"/>
      <point x="187" y="-189" type="line"/>
      <point x="146" y="-189" type="line" smooth="yes"/>
      <point x="108" y="-189"/>
      <point x="99" y="-178"/>
      <point x="104" y="-140" type="curve" smooth="yes"/>
      <point x="125" y="5" type="line"/>
      <point x="220" y="-8" type="line"/>
      <point x="322" y="-8"/>
      <point x="432" y="156"/>
      <point x="432" y="307" type="curve" smooth="yes"/>
      <point x="432" y="400"/>
      <point x="390" y="464"/>
      <point x="330" y="464" type="curve"/>
      <point x="274" y="418"/>
      <point x="227" y="347"/>
      <point x="157" y="202" type="curve"/>
      <point x="153" y="205" type="line"/>
      <point x="168" y="289"/>
      <point x="187" y="361"/>
      <point x="215" y="440" type="curve"/>
      <point x="206" y="452" type="line"/>
      <point x="159" y="449"/>
      <point x="86" y="446"/>
      <point x="44" y="446" type="curve"/>
      <point x="37" y="408" type="line"/>
      <point x="78" y="408" type="line" smooth="yes"/>
      <point x="109" y="408"/>
      <point x="121" y="396"/>
      <point x="121" y="368" type="curve" smooth="yes"/>
      <point x="121" y="332"/>
      <point x="58" y="-85"/>
      <point x="45" y="-133" type="curve" smooth="yes"/>
      <point x="32" y="-183"/>
      <point x="21" y="-196"/>
    </contour>
    <contour>
      <point x="317" y="381" type="curve" smooth="yes"/>
      <point x="341" y="381"/>
      <point x="363" y="323"/>
      <point x="363" y="259" type="curve" smooth="yes"/>
      <point x="363" y="155"/>
      <point x="307" y="46"/>
      <point x="253" y="46" type="curve" smooth="yes"/>
      <point x="222" y="46"/>
      <point x="172" y="58"/>
      <point x="136" y="75" type="curve"/>
      <point x="212" y="257"/>
      <point x="286" y="381"/>
    </contour>
  </outline>
</glyph>
<glyph name="q" format="2">
  <advance width="442"/>
  <unicode hex="0071"/>
  <anchor x="146" y="0" name="bottom"/>
  <anchor x="253" y="463" name="top"/>
  <outline>
    <contour>
      <point x="273" y="51" type="line"/>
      <point x="243" y="-123" type="line" smooth="yes"/>
      <point x="232" y="-183"/>
      <point x="217" y="-193"/>
      <point x="164" y="-200" type="curve"/>
      <point x="158" y="-239" type="line"/>
      <point x="158" y="-239"/>
      <point x="261" y="-227"/>
      <point x="366" y="-227" type="curve"/>
      <point x="371" y="-193" type="line"/>
      <point x="369" y="-187" type="line"/>
      <point x="333" y="-187" type="line"/>
      <point x="310" y="-187"/>
      <point x="302" y="-176"/>
      <point x="302" y="-144" type="curve" smooth="yes"/>
      <point x="302" y="-41"/>
      <point x="394" y="415"/>
      <point x="427" y="475" type="curve"/>
      <point x="420" y="487" type="line"/>
      <point x="387" y="498" type="line"/>
      <point x="380" y="496" type="line"/>
      <point x="359" y="444" type="line"/>
      <point x="261" y="460" type="line"/>
      <point x="151" y="460"/>
      <point x="34" y="295"/>
      <point x="34" y="139" type="curve" smooth="yes"/>
      <point x="34" y="49"/>
      <point x="72" y="-12"/>
      <point x="127" y="-12" type="curve"/>
      <point x="181" y="33"/>
      <point x="232" y="104"/>
      <point x="296" y="224" type="curve"/>
      <point x="303" y="223" type="line"/>
    </contour>
    <contour>
      <point x="141" y="69" type="curve" smooth="yes"/>
      <point x="120" y="69"/>
      <point x="102" y="123"/>
      <point x="102" y="184" type="curve" smooth="yes"/>
      <point x="102" y="297"/>
      <point x="165" y="406"/>
      <point x="230" y="406" type="curve" smooth="yes"/>
      <point x="256" y="406"/>
      <point x="293" y="394"/>
      <point x="329" y="374" type="curve"/>
      <point x="243" y="183"/>
      <point x="172" y="69"/>
    </contour>
  </outline>
</glyph>
<glyph name="r" format="2">
  <advance width="346"/>
  <unicode hex="0072"/>
  <anchor x="108" y="0" name="bottom"/>
  <anchor x="221" y="452" name="top"/>
  <outline>
    <contour>
      <point x="64" y="0" type="curve"/>
      <point x="71" y="-9" type="line"/>
      <point x="87" y="-9"/>
      <point x="132" y="8"/>
      <point x="133" y="14" type="curve" smooth="yes"/>
      <point x="148" y="127" type="line"/>
      <point x="206" y="270"/>
      <point x="277" y="358"/>
      <point x="327" y="358" type="curve" smooth="yes"/>
      <point x="337" y="358"/>
      <point x="345" y="355"/>
      <point x="352" y="348" type="curve"/>
      <point x="362" y="351" type="line"/>
      <point x="362" y="351"/>
      <point x="374" y="362"/>
      <point x="374" y="400" type="curve" smooth="yes"/>
      <point x="374" y="425"/>
      <point x="364" y="452"/>
      <point x="352" y="460" type="curve"/>
      <point x="299" y="455"/>
      <point x="221" y="363"/>
      <point x="163" y="232" type="curve"/>
      <point x="159" y="233" type="line"/>
      <point x="178" y="332"/>
      <point x="213" y="440"/>
      <point x="213" y="440" type="curve"/>
      <point x="204" y="452" type="line"/>
      <point x="204" y="452"/>
      <point x="103" y="446"/>
      <point x="42" y="446" type="curve"/>
      <point x="35" y="408" type="line"/>
      <point x="76" y="408" type="line" smooth="yes"/>
      <point x="108" y="408"/>
      <point x="119" y="396"/>
      <point x="119" y="364" type="curve" smooth="yes"/>
      <point x="119" y="324"/>
      <point x="64" y="0"/>
    </contour>
  </outline>
</glyph>
<glyph name="s" format="2">
  <advance width="339"/>
  <unicode hex="0073"/>
  <anchor x="142" y="0" name="bottom"/>
  <anchor x="198" y="452" name="top"/>
  <outline>
    <contour>
      <point x="57" y="138" type="curve"/>
      <point x="43" y="138" type="line"/>
      <point x="32" y="119"/>
      <point x="15" y="74"/>
      <point x="7" y="44" type="curve"/>
      <point x="18" y="9"/>
      <point x="63" y="-12"/>
      <point x="124" y="-12" type="curve" smooth="yes"/>
      <point x="210" y="-12"/>
      <point x="289" y="60"/>
      <point x="289" y="137" type="curve" smooth="yes"/>
      <point x="289" y="209"/>
      <point x="208" y="254"/>
      <point x="163" y="302" type="curve" smooth="yes"/>
      <point x="145" y="321"/>
      <point x="133" y="340"/>
      <point x="133" y="362" type="curve" smooth="yes"/>
      <point x="133" y="393"/>
      <point x="158" y="416"/>
      <point x="190" y="416" type="curve" smooth="yes"/>
      <point x="230" y="416"/>
      <point x="262" y="390"/>
      <point x="277" y="346" type="curve"/>
      <point x="291" y="346" type="line"/>
      <point x="300" y="365"/>
      <point x="317" y="400"/>
      <point x="325" y="424" type="curve"/>
      <point x="306" y="449"/>
      <point x="267" y="464"/>
      <point x="222" y="464" type="curve" smooth="yes"/>
      <point x="139" y="464"/>
      <point x="66" y="399"/>
      <point x="66" y="324" type="curve" smooth="yes"/>
      <point x="66" y="267"/>
      <point x="116" y="227"/>
      <point x="160" y="189" type="curve" smooth="yes"/>
      <point x="194" y="160"/>
      <point x="223" y="132"/>
      <point x="223" y="98" type="curve" smooth="yes"/>
      <point x="223" y="63"/>
      <point x="191" y="34"/>
      <point x="153" y="34" type="curve" smooth="yes"/>
      <point x="91" y="34"/>
      <point x="57" y="70"/>
    </contour>
  </outline>
</glyph>
<glyph name="t" format="2">
  <advance width="285"/>
  <unicode hex="0074"/>
  <anchor x="115" y="0" name="bottom"/>
  <anchor x="143" y="226" name="center"/>
  <anchor x="181" y="545" name="top"/>
  <anchor x="283" y="482" name="topright"/>
  <outline>
    <contour>
      <point x="255" y="128" type="line"/>
      <point x="242" y="129" type="line"/>
      <point x="188" y="78"/>
      <point x="161" y="60"/>
      <point x="143" y="60" type="curve" smooth="yes"/>
      <point x="124" y="60"/>
      <point x="117" y="72"/>
      <point x="120" y="95" type="curve"/>
      <point x="181" y="402" type="line"/>
      <point x="192" y="408" type="line"/>
      <point x="310" y="407" type="line"/>
      <point x="318" y="447" type="line"/>
      <point x="314" y="450" type="line"/>
      <point x="192" y="449" type="line"/>
      <point x="210" y="527"/>
      <point x="232" y="595"/>
      <point x="232" y="595" type="curve"/>
      <point x="226" y="607" type="line"/>
      <point x="136" y="572" type="line"/>
      <point x="136" y="572"/>
      <point x="128" y="509"/>
      <point x="120" y="452" type="curve"/>
      <point x="40" y="439" type="line"/>
      <point x="36" y="410" type="line"/>
      <point x="39" y="405" type="line"/>
      <point x="108" y="402" type="line"/>
      <point x="113" y="398" type="line"/>
      <point x="58" y="55" type="line"/>
      <point x="53" y="14"/>
      <point x="76" y="-12"/>
      <point x="116" y="-12" type="curve" smooth="yes"/>
      <point x="148" y="-12"/>
      <point x="210" y="41"/>
      <point x="267" y="104" type="curve"/>
    </contour>
  </outline>
</glyph>
<glyph name="v" format="2">
  <advance width="421"/>
  <unicode hex="0076"/>
  <anchor x="204" y="0" name="bottom"/>
  <anchor x="273" y="474" name="top"/>
  <outline>
    <contour>
      <point x="148" y="-11" type="line"/>
      <point x="206" y="-11" type="line"/>
      <point x="336" y="179"/>
      <point x="406" y="319"/>
      <point x="406" y="388" type="curve" smooth="yes"/>
      <point x="406" y="421"/>
      <point x="393" y="450"/>
      <point x="371" y="464" type="curve"/>
      <point x="290" y="442" type="line"/>
      <point x="286" y="425" type="line"/>
      <point x="286" y="425"/>
      <point x="334" y="399"/>
      <point x="334" y="346" type="curve" smooth="yes"/>
      <point x="334" y="290"/>
      <point x="283" y="183"/>
      <point x="196" y="58" type="curve"/>
      <point x="187" y="58" type="line"/>
      <point x="188" y="207"/>
      <point x="181" y="333"/>
      <point x="166" y="449" type="curve"/>
      <point x="155" y="459" type="line"/>
      <point x="155" y="459"/>
      <point x="68" y="443"/>
      <point x="7" y="435" type="curve"/>
      <point x="4" y="397" type="line"/>
      <point x="4" y="397"/>
      <point x="45" y="402"/>
      <point x="56" y="402" type="curve" smooth="yes"/>
      <point x="82" y="402"/>
      <point x="92" y="393"/>
      <point x="97" y="362" type="curve" smooth="yes"/>
      <point x="115" y="261"/>
      <point x="130" y="105"/>
      <point x="133" y="1" type="curve"/>
    </contour>
  </outline>
</glyph>
<glyph name="w" format="2">
  <advance width="643"/>
  <unicode hex="0077"/>
  <outline>
    <contour>
      <point x="196" y="58" type="curve"/>
      <point x="187" y="58" type="line"/>
      <point x="188" y="201"/>
      <point x="181" y="327"/>
      <point x="166" y="449" type="curve"/>
      <point x="155" y="459" type="line"/>
      <point x="112" y="451"/>
      <point x="47" y="440"/>
      <point x="7" y="435" type="curve"/>
      <point x="4" y="397" type="line"/>
      <point x="22" y="399"/>
      <point x="48" y="402"/>
      <point x="56" y="402" type="curve" smooth="yes"/>
      <point x="82" y="402"/>
      <point x="92" y="393"/>
      <point x="97" y="362" type="curve"/>
      <point x="114" y="263"/>
      <point x="130" y="108"/>
      <point x="133" y="1" type="curve"/>
      <point x="148" y="-11" type="line"/>
      <point x="206" y="-11" type="line"/>
      <point x="267" y="86"/>
      <point x="305" y="149"/>
      <point x="331" y="199" type="curve"/>
      <point x="338" y="199" type="line"/>
      <point x="359" y="1" type="line"/>
      <point x="374" y="-11" type="line"/>
      <point x="432" y="-11" type="line"/>
      <point x="560" y="183"/>
      <point x="628" y="320"/>
      <point x="628" y="388" type="curve" smooth="yes"/>
      <point x="628" y="421"/>
      <point x="615" y="449"/>
      <point x="593" y="464" type="curve"/>
      <point x="512" y="442" type="line"/>
      <point x="508" y="425" type="line"/>
      <point x="536" y="410"/>
      <point x="556" y="378"/>
      <point x="556" y="347" type="curve" smooth="yes"/>
      <point x="556" y="291"/>
      <point x="505" y="180"/>
      <point x="422" y="58" type="curve"/>
      <point x="413" y="58" type="line"/>
      <point x="386" y="313" type="line"/>
      <point x="399" y="346"/>
      <point x="404" y="367"/>
      <point x="404" y="388" type="curve" smooth="yes"/>
      <point x="404" y="421"/>
      <point x="391" y="450"/>
      <point x="369" y="464" type="curve"/>
      <point x="313" y="447" type="line"/>
      <point x="306" y="437" type="line"/>
      <point x="323" y="294" type="line"/>
      <point x="301" y="229"/>
      <point x="257" y="147"/>
    </contour>
  </outline>
</glyph>
<glyph name="x" format="2">
  <advance width="462"/>
  <unicode hex="0078"/>
  <anchor x="174" y="0" name="bottom"/>
  <anchor x="191" y="463" name="top"/>
  <outline>
    <contour>
      <point x="416" y="464" type="curve" smooth="yes"/>
      <point x="353" y="464"/>
      <point x="303" y="412"/>
      <point x="247" y="290" type="curve"/>
      <point x="210" y="428"/>
      <point x="194" y="464"/>
      <point x="169" y="464" type="curve" smooth="yes"/>
      <point x="134" y="464"/>
      <point x="90" y="433"/>
      <point x="22" y="358" type="curve"/>
      <point x="34" y="334" type="line"/>
      <point x="47" y="333" type="line"/>
      <point x="102" y="383"/>
      <point x="115" y="392"/>
      <point x="125" y="392" type="curve" smooth="yes"/>
      <point x="141" y="392"/>
      <point x="149" y="372"/>
      <point x="191" y="226" type="curve"/>
      <point x="138" y="98"/>
      <point x="95" y="35"/>
      <point x="61" y="35" type="curve" smooth="yes"/>
      <point x="38" y="35"/>
      <point x="26" y="63"/>
      <point x="29" y="108" type="curve"/>
      <point x="15" y="108" type="line"/>
      <point x="3" y="89"/>
      <point x="-14" y="48"/>
      <point x="-20" y="24" type="curve"/>
      <point x="-18" y="2"/>
      <point x="5" y="-12"/>
      <point x="37" y="-12" type="curve" smooth="yes"/>
      <point x="105" y="-12"/>
      <point x="156" y="42"/>
      <point x="215" y="176" type="curve"/>
      <point x="255" y="30"/>
      <point x="274" y="-12"/>
      <point x="301" y="-12" type="curve" smooth="yes"/>
      <point x="334" y="-12"/>
      <point x="367" y="12"/>
      <point x="448" y="94" type="curve"/>
      <point x="435" y="118" type="line"/>
      <point x="423" y="119" type="line"/>
      <point x="359" y="69"/>
      <point x="345" y="60"/>
      <point x="334" y="60" type="curve" smooth="yes"/>
      <point x="316" y="60"/>
      <point x="302" y="99"/>
      <point x="269" y="239" type="curve"/>
      <point x="324" y="367"/>
      <point x="355" y="411"/>
      <point x="388" y="411" type="curve" smooth="yes"/>
      <point x="406" y="411"/>
      <point x="420" y="392"/>
      <point x="429" y="356" type="curve"/>
      <point x="443" y="356" type="line"/>
      <point x="455" y="380"/>
      <point x="467" y="408"/>
      <point x="477" y="434" type="curve"/>
      <point x="465" y="453"/>
      <point x="443" y="464"/>
    </contour>
  </outline>
</glyph>
<glyph name="y" format="2">
  <advance width="438"/>
  <unicode hex="0079"/>
  <anchor x="309" y="1" name="bottom"/>
  <anchor x="247" y="452" name="top"/>
  <outline>
    <contour>
      <point x="307" y="442" type="line"/>
      <point x="303" y="425" type="line"/>
      <point x="333" y="405"/>
      <point x="351" y="376"/>
      <point x="351" y="346" type="curve" smooth="yes"/>
      <point x="351" y="294"/>
      <point x="303" y="191"/>
      <point x="212" y="48" type="curve"/>
      <point x="202" y="48" type="line"/>
      <point x="203" y="213"/>
      <point x="197" y="339"/>
      <point x="182" y="449" type="curve"/>
      <point x="171" y="459" type="line"/>
      <point x="23" y="435" type="line"/>
      <point x="20" y="397" type="line"/>
      <point x="38" y="399"/>
      <point x="64" y="402"/>
      <point x="72" y="402" type="curve" smooth="yes"/>
      <point x="98" y="402"/>
      <point x="108" y="393"/>
      <point x="113" y="362" type="curve" smooth="yes"/>
      <point x="132" y="221"/>
      <point x="143" y="101"/>
      <point x="151" y="-43" type="curve"/>
      <point x="66" y="-160"/>
      <point x="-3" y="-187"/>
      <point x="-59" y="-124" type="curve"/>
      <point x="-73" y="-124" type="line"/>
      <point x="-83" y="-147"/>
      <point x="-90" y="-177"/>
      <point x="-91" y="-198" type="curve"/>
      <point x="-85" y="-220"/>
      <point x="-54" y="-235"/>
      <point x="-15" y="-235" type="curve" smooth="yes"/>
      <point x="46" y="-235"/>
      <point x="122" y="-159"/>
      <point x="243" y="21" type="curve" smooth="yes"/>
      <point x="360" y="196"/>
      <point x="423" y="323"/>
      <point x="423" y="388" type="curve" smooth="yes"/>
      <point x="423" y="421"/>
      <point x="409" y="451"/>
      <point x="388" y="464" type="curve"/>
    </contour>
  </outline>
</glyph>
<glyph name="z" format="2">
  <advance width="398"/>
  <unicode hex="007A"/>
  <anchor x="171" y="0" name="bottom"/>
  <anchor x="227" y="452" name="top"/>
  <outline>
    <contour>
      <point x="51" y="314" type="curve"/>
      <point x="90" y="320" type="line"/>
      <point x="106" y="369"/>
      <point x="128" y="385"/>
      <point x="182" y="385" type="curve" smooth="yes"/>
      <point x="283" y="384" type="line"/>
      <point x="-1" y="20" type="line"/>
      <point x="10" y="3" type="line"/>
      <point x="44" y="23"/>
      <point x="73" y="33"/>
      <point x="102" y="33" type="curve" smooth="yes"/>
      <point x="175" y="33"/>
      <point x="226" y="-12"/>
      <point x="287" y="-12" type="curve" smooth="yes"/>
      <point x="335" y="-12"/>
      <point x="375" y="35"/>
      <point x="375" y="91" type="curve" smooth="yes"/>
      <point x="375" y="101"/>
      <point x="373" y="111"/>
      <point x="367" y="130" type="curve"/>
      <point x="349" y="132" type="line"/>
      <point x="339" y="89"/>
      <point x="313" y="67"/>
      <point x="276" y="67" type="curve" smooth="yes"/>
      <point x="232" y="67"/>
      <point x="177" y="89"/>
      <point x="134" y="89" type="curve"/>
      <point x="105" y="82" type="line"/>
      <point x="166" y="164"/>
      <point x="288" y="314"/>
      <point x="400" y="445" type="curve"/>
      <point x="395" y="464" type="line"/>
      <point x="351" y="471" type="line"/>
      <point x="335" y="451" type="line" smooth="yes"/>
      <point x="327" y="441"/>
      <point x="322" y="439"/>
      <point x="309" y="439" type="curve" smooth="yes"/>
      <point x="271" y="439"/>
      <point x="99" y="464"/>
      <point x="99" y="464" type="curve"/>
      <point x="85" y="454" type="line"/>
      <point x="75" y="392"/>
      <point x="51" y="314"/>
    </contour>
  </outline>
</glyph>
<glyph name="braceleft" format="2">
  <advance width="297"/>
  <unicode hex="007B"/>
  <outline>
    <contour>
      <point x="54" y="268" type="curve"/>
      <point x="47" y="247" type="line"/>
      <point x="94" y="236"/>
      <point x="130" y="212"/>
      <point x="130" y="168" type="curve" smooth="yes"/>
      <point x="130" y="121"/>
      <point x="67" y="36"/>
      <point x="67" y="-30" type="curve" smooth="yes"/>
      <point x="67" y="-86"/>
      <point x="104" y="-133"/>
      <point x="173" y="-133" type="curve" smooth="yes"/>
      <point x="203" y="-133"/>
      <point x="228" y="-125"/>
      <point x="228" y="-125" type="curve"/>
      <point x="239" y="-97" type="line"/>
      <point x="236" y="-91" type="line"/>
      <point x="236" y="-91"/>
      <point x="207" y="-97"/>
      <point x="188" y="-97" type="curve" smooth="yes"/>
      <point x="151" y="-97"/>
      <point x="136" y="-71"/>
      <point x="136" y="-40" type="curve" smooth="yes"/>
      <point x="136" y="10"/>
      <point x="187" y="109"/>
      <point x="187" y="169" type="curve" smooth="yes"/>
      <point x="187" y="220"/>
      <point x="160" y="246"/>
      <point x="128" y="259" type="curve"/>
      <point x="129" y="265" type="line"/>
      <point x="167" y="277"/>
      <point x="213" y="309"/>
      <point x="213" y="388" type="curve" smooth="yes"/>
      <point x="213" y="427"/>
      <point x="206" y="487"/>
      <point x="206" y="524" type="curve" smooth="yes"/>
      <point x="206" y="572"/>
      <point x="226" y="613"/>
      <point x="274" y="613" type="curve" smooth="yes"/>
      <point x="291" y="613"/>
      <point x="318" y="608"/>
      <point x="318" y="608" type="curve"/>
      <point x="329" y="638" type="line"/>
      <point x="327" y="643" type="line"/>
      <point x="327" y="643"/>
      <point x="297" y="649"/>
      <point x="272" y="649" type="curve" smooth="yes"/>
      <point x="185" y="649"/>
      <point x="134" y="587"/>
      <point x="134" y="517" type="curve" smooth="yes"/>
      <point x="134" y="467"/>
      <point x="153" y="402"/>
      <point x="153" y="361" type="curve" smooth="yes"/>
      <point x="153" y="311"/>
      <point x="104" y="282"/>
    </contour>
  </outline>
</glyph>
<glyph name="bar" format="2">
  <advance width="355"/>
  <unicode hex="007C"/>
  <outline>
    <contour>
      <point x="287" y="801" type="curve"/>
      <point x="277" y="807" type="line"/>
      <point x="216" y="796" type="line"/>
      <point x="152" y="276" type="line" smooth="yes"/>
      <point x="129" y="97"/>
      <point x="85" y="-263"/>
      <point x="85" y="-263" type="curve"/>
      <point x="93" y="-269" type="line"/>
      <point x="152" y="-258" type="line"/>
      <point x="152" y="-258"/>
      <point x="198" y="119"/>
      <point x="219" y="291" type="curve" smooth="yes"/>
      <point x="239" y="457"/>
      <point x="287" y="801"/>
    </contour>
  </outline>
</glyph>
<glyph name="braceright" format="2">
  <advance width="297"/>
  <unicode hex="007D"/>
  <outline>
    <contour>
      <point x="253" y="248" type="curve"/>
      <point x="259" y="269" type="line"/>
      <point x="213" y="280"/>
      <point x="177" y="304"/>
      <point x="177" y="348" type="curve" smooth="yes"/>
      <point x="177" y="395"/>
      <point x="240" y="480"/>
      <point x="240" y="546" type="curve" smooth="yes"/>
      <point x="240" y="602"/>
      <point x="203" y="649"/>
      <point x="134" y="649" type="curve" smooth="yes"/>
      <point x="104" y="649"/>
      <point x="79" y="641"/>
      <point x="79" y="641" type="curve"/>
      <point x="68" y="613" type="line"/>
      <point x="70" y="607" type="line"/>
      <point x="70" y="607"/>
      <point x="99" y="613"/>
      <point x="119" y="613" type="curve" smooth="yes"/>
      <point x="156" y="613"/>
      <point x="170" y="587"/>
      <point x="170" y="556" type="curve" smooth="yes"/>
      <point x="170" y="506"/>
      <point x="120" y="407"/>
      <point x="120" y="347" type="curve" smooth="yes"/>
      <point x="120" y="296"/>
      <point x="147" y="270"/>
      <point x="178" y="257" type="curve"/>
      <point x="178" y="251" type="line"/>
      <point x="140" y="239"/>
      <point x="94" y="207"/>
      <point x="94" y="128" type="curve" smooth="yes"/>
      <point x="94" y="89"/>
      <point x="100" y="29"/>
      <point x="100" y="-8" type="curve" smooth="yes"/>
      <point x="100" y="-56"/>
      <point x="80" y="-97"/>
      <point x="32" y="-97" type="curve" smooth="yes"/>
      <point x="16" y="-97"/>
      <point x="-11" y="-92"/>
      <point x="-11" y="-92" type="curve"/>
      <point x="-22" y="-122" type="line"/>
      <point x="-20" y="-127" type="line"/>
      <point x="-20" y="-127"/>
      <point x="10" y="-133"/>
      <point x="35" y="-133" type="curve" smooth="yes"/>
      <point x="121" y="-133"/>
      <point x="173" y="-71"/>
      <point x="173" y="-1" type="curve" smooth="yes"/>
      <point x="173" y="49"/>
      <point x="154" y="114"/>
      <point x="154" y="155" type="curve" smooth="yes"/>
      <point x="154" y="205"/>
      <point x="203" y="234"/>
    </contour>
  </outline>
</glyph>
<glyph name="asciitilde" format="2">
  <advance width="486"/>
  <unicode hex="007E"/>
  <outline>
    <contour>
      <point x="60" y="202" type="line"/>
      <point x="66" y="202" type="line"/>
      <point x="66" y="202"/>
      <point x="111" y="257"/>
      <point x="134" y="257" type="curve" smooth="yes"/>
      <point x="178" y="257"/>
      <point x="306" y="214"/>
      <point x="358" y="214" type="curve"/>
      <point x="374" y="218" type="line"/>
      <point x="459" y="307" type="line"/>
      <point x="459" y="312" type="line"/>
      <point x="440" y="333" type="line"/>
      <point x="434" y="333" type="line"/>
      <point x="434" y="333"/>
      <point x="389" y="278"/>
      <point x="366" y="278" type="curve" smooth="yes"/>
      <point x="322" y="278"/>
      <point x="194" y="321"/>
      <point x="142" y="321" type="curve"/>
      <point x="126" y="317" type="line"/>
      <point x="41" y="228" type="line"/>
      <point x="41" y="223" type="line"/>
    </contour>
  </outline>
</glyph>
<glyph name="exclamdown" format="2">
  <advance width="273"/>
  <unicode hex="00A1"/>
  <outline>
    <contour>
      <point x="191" y="464" type="curve" smooth="yes"/>
      <point x="149" y="464"/>
      <point x="121" y="432"/>
      <point x="121" y="395" type="curve" smooth="yes"/>
      <point x="121" y="367"/>
      <point x="138" y="345"/>
      <point x="170" y="345" type="curve" smooth="yes"/>
      <point x="211" y="345"/>
      <point x="239" y="377"/>
      <point x="239" y="414" type="curve" smooth="yes"/>
      <point x="239" y="440"/>
      <point x="224" y="464"/>
    </contour>
    <contour>
      <point x="128" y="-214" type="line"/>
      <point x="175" y="242" type="line"/>
      <point x="165" y="250" type="line"/>
      <point x="136" y="243" type="line"/>
      <point x="27" y="-231" type="line"/>
      <point x="35" y="-242" type="line"/>
      <point x="119" y="-224" type="line"/>
    </contour>
  </outline>
</glyph>
<glyph name="cent" format="2">
  <advance width="358"/>
  <unicode hex="00A2"/>
  <anchor x="244" y="0" name="bottom"/>
  <anchor x="256" y="472" name="top"/>
  <outline>
    <contour>
      <point x="175" y="29" type="line"/>
      <point x="143" y="29" type="line"/>
      <point x="105" y="-147" type="line"/>
      <point x="109" y="-154" type="line"/>
      <point x="136" y="-151" type="line"/>
    </contour>
    <contour>
      <point x="143" y="29" type="line"/>
      <point x="175" y="29" type="line"/>
      <point x="260" y="425" type="line"/>
      <point x="227" y="425" type="line"/>
    </contour>
    <contour>
      <point x="227" y="425" type="line"/>
      <point x="260" y="425" type="line"/>
      <point x="308" y="649" type="line"/>
      <point x="304" y="658" type="line"/>
      <point x="276" y="654" type="line"/>
    </contour>
    <contour>
      <point x="225" y="405" type="curve" smooth="yes"/>
      <point x="252" y="405"/>
      <point x="277" y="391"/>
      <point x="298" y="362" type="curve"/>
      <point x="312" y="365" type="line"/>
      <point x="346" y="432" type="line"/>
      <point x="341" y="443" type="line"/>
      <point x="322" y="456"/>
      <point x="290" y="464"/>
      <point x="256" y="464" type="curve" smooth="yes"/>
      <point x="142" y="464"/>
      <point x="30" y="310"/>
      <point x="30" y="153" type="curve" smooth="yes"/>
      <point x="30" y="51"/>
      <point x="74" y="-12"/>
      <point x="146" y="-12" type="curve" smooth="yes"/>
      <point x="203" y="-12"/>
      <point x="269" y="38"/>
      <point x="307" y="109" type="curve"/>
      <point x="292" y="133" type="line"/>
      <point x="278" y="134" type="line"/>
      <point x="254" y="83"/>
      <point x="209" y="47"/>
      <point x="169" y="47" type="curve" smooth="yes"/>
      <point x="127" y="47"/>
      <point x="100" y="100"/>
      <point x="100" y="183" type="curve" smooth="yes"/>
      <point x="100" y="295"/>
      <point x="162" y="405"/>
    </contour>
  </outline>
</glyph>
<glyph name="sterling" format="2">
  <advance width="509"/>
  <unicode hex="00A3"/>
  <outline>
    <contour>
      <point x="431" y="140" type="curve"/>
      <point x="414" y="142" type="line"/>
      <point x="403" y="91"/>
      <point x="376" y="67"/>
      <point x="333" y="67" type="curve" smooth="yes"/>
      <point x="286" y="67"/>
      <point x="228" y="89"/>
      <point x="173" y="89" type="curve"/>
      <point x="119" y="78" type="line"/>
      <point x="159" y="110"/>
      <point x="186" y="155"/>
      <point x="195" y="208" type="curve"/>
      <point x="207" y="287" type="line"/>
      <point x="281" y="287"/>
      <point x="355" y="284"/>
      <point x="355" y="284" type="curve"/>
      <point x="372" y="337" type="line"/>
      <point x="369" y="340" type="line"/>
      <point x="369" y="340"/>
      <point x="289" y="337"/>
      <point x="215" y="337" type="curve"/>
      <point x="227" y="415" type="line" smooth="yes"/>
      <point x="240" y="498"/>
      <point x="273" y="539"/>
      <point x="328" y="539" type="curve" smooth="yes"/>
      <point x="354" y="539"/>
      <point x="387" y="528"/>
      <point x="424" y="506" type="curve"/>
      <point x="442" y="509" type="line"/>
      <point x="473" y="572" type="line"/>
      <point x="469" y="583" type="line"/>
      <point x="451" y="592"/>
      <point x="410" y="598"/>
      <point x="372" y="598" type="curve" smooth="yes"/>
      <point x="259" y="598"/>
      <point x="171" y="504"/>
      <point x="153" y="361" type="curve" smooth="yes"/>
      <point x="151" y="344" type="line"/>
      <point x="92" y="333" type="line"/>
      <point x="81" y="299" type="line"/>
      <point x="84" y="293" type="line"/>
      <point x="132" y="290"/>
      <point x="142" y="283"/>
      <point x="140" y="252" type="curve"/>
      <point x="134" y="204" type="line" smooth="yes"/>
      <point x="126" y="141"/>
      <point x="86" y="87"/>
      <point x="15" y="41" type="curve"/>
      <point x="25" y="7" type="line"/>
      <point x="32" y="3" type="line"/>
      <point x="62" y="24"/>
      <point x="88" y="33"/>
      <point x="118" y="33" type="curve" smooth="yes"/>
      <point x="193" y="33"/>
      <point x="284" y="-12"/>
      <point x="352" y="-12" type="curve" smooth="yes"/>
      <point x="398" y="-12"/>
      <point x="438" y="35"/>
      <point x="438" y="95" type="curve" smooth="yes"/>
      <point x="438" y="109"/>
      <point x="436" y="125"/>
    </contour>
  </outline>
</glyph>
<glyph name="currency" format="2">
  <advance width="461"/>
  <unicode hex="00A4"/>
  <outline>
    <contour>
      <point x="104" y="343" type="curve" smooth="yes"/>
      <point x="104" y="320"/>
      <point x="109" y="295"/>
      <point x="118" y="277" type="curve"/>
      <point x="83" y="245"/>
      <point x="49" y="215"/>
      <point x="48" y="215" type="curve"/>
      <point x="67" y="176" type="line"/>
      <point x="77" y="173" type="line"/>
      <point x="77" y="173"/>
      <point x="112" y="204"/>
      <point x="150" y="240" type="curve"/>
      <point x="171" y="223"/>
      <point x="197" y="213"/>
      <point x="228" y="213" type="curve" smooth="yes"/>
      <point x="258" y="213"/>
      <point x="288" y="223"/>
      <point x="313" y="240" type="curve"/>
      <point x="368" y="174" type="line"/>
      <point x="412" y="204" type="line"/>
      <point x="416" y="215" type="line"/>
      <point x="416" y="215"/>
      <point x="387" y="247"/>
      <point x="356" y="281" type="curve"/>
      <point x="375" y="308"/>
      <point x="389" y="339"/>
      <point x="389" y="375" type="curve" smooth="yes"/>
      <point x="389" y="400"/>
      <point x="383" y="426"/>
      <point x="372" y="445" type="curve"/>
      <point x="448" y="514" type="line"/>
      <point x="425" y="554" type="line"/>
      <point x="413" y="557" type="line"/>
      <point x="413" y="557"/>
      <point x="376" y="520"/>
      <point x="338" y="482" type="curve"/>
      <point x="318" y="497"/>
      <point x="292" y="506"/>
      <point x="264" y="506" type="curve" smooth="yes"/>
      <point x="235" y="506"/>
      <point x="207" y="497"/>
      <point x="184" y="482" type="curve"/>
      <point x="155" y="517"/>
      <point x="128" y="551"/>
      <point x="128" y="551" type="curve"/>
      <point x="85" y="525" type="line"/>
      <point x="82" y="513" type="line"/>
      <point x="82" y="513"/>
      <point x="111" y="480"/>
      <point x="141" y="444" type="curve"/>
      <point x="118" y="415"/>
      <point x="104" y="382"/>
    </contour>
    <contour>
      <point x="152" y="349" type="curve" smooth="yes"/>
      <point x="152" y="408"/>
      <point x="202" y="458"/>
      <point x="258" y="458" type="curve" smooth="yes"/>
      <point x="306" y="458"/>
      <point x="341" y="419"/>
      <point x="341" y="370" type="curve" smooth="yes"/>
      <point x="341" y="310"/>
      <point x="290" y="261"/>
      <point x="234" y="261" type="curve" smooth="yes"/>
      <point x="186" y="261"/>
      <point x="152" y="300"/>
    </contour>
  </outline>
</glyph>
<glyph name="yen" format="2">
  <advance width="514"/>
  <unicode hex="00A5"/>
  <outline>
    <contour>
      <point x="203" y="438" type="curve" smooth="yes"/>
      <point x="203" y="451"/>
      <point x="212" y="459"/>
      <point x="266" y="465" type="curve"/>
      <point x="273" y="499" type="line"/>
      <point x="270" y="509" type="line" smooth="yes"/>
      <point x="269" y="510"/>
      <point x="197" y="502"/>
      <point x="152" y="502" type="curve" smooth="yes"/>
      <point x="115" y="502"/>
      <point x="59" y="505"/>
      <point x="59" y="505" type="curve"/>
      <point x="55" y="493"/>
      <point x="51" y="481"/>
      <point x="48" y="469" type="curve"/>
      <point x="48" y="466"/>
      <point x="48" y="463"/>
      <point x="48" y="460" type="curve"/>
      <point x="126" y="456"/>
      <point x="128" y="407"/>
      <point x="165" y="314" type="curve"/>
      <point x="58" y="314" type="line"/>
      <point x="50" y="285" type="line"/>
      <point x="54" y="278" type="line"/>
      <point x="95" y="278"/>
      <point x="138" y="279"/>
      <point x="180" y="279" type="curve"/>
      <point x="198" y="236" type="line" smooth="yes"/>
      <point x="206" y="216"/>
      <point x="209" y="200"/>
      <point x="211" y="183" type="curve"/>
      <point x="42" y="183" type="line"/>
      <point x="34" y="154" type="line"/>
      <point x="38" y="147" type="line"/>
      <point x="94" y="147"/>
      <point x="152" y="148"/>
      <point x="210" y="148" type="curve"/>
      <point x="200" y="63"/>
      <point x="201" y="45"/>
      <point x="132" y="33" type="curve"/>
      <point x="122" y="-10" type="line"/>
      <point x="122" y="-10"/>
      <point x="183" y="0"/>
      <point x="222" y="0" type="curve" smooth="yes"/>
      <point x="258" y="0"/>
      <point x="329" y="-2"/>
      <point x="329" y="-2" type="curve"/>
      <point x="342" y="36" type="line"/>
      <point x="341" y="44" type="line"/>
      <point x="341" y="44"/>
      <point x="316" y="43"/>
      <point x="303" y="43" type="curve" smooth="yes"/>
      <point x="277" y="43"/>
      <point x="270" y="49"/>
      <point x="270" y="69" type="curve" smooth="yes"/>
      <point x="270" y="76"/>
      <point x="279" y="142"/>
      <point x="280" y="148" type="curve"/>
      <point x="459" y="148" type="line"/>
      <point x="465" y="178" type="line"/>
      <point x="461" y="187" type="line"/>
      <point x="404" y="186"/>
      <point x="345" y="184"/>
      <point x="286" y="183" type="curve"/>
      <point x="288" y="196"/>
      <point x="294" y="212"/>
      <point x="300" y="222" type="curve"/>
      <point x="340" y="279" type="line"/>
      <point x="475" y="279" type="line"/>
      <point x="482" y="309" type="line"/>
      <point x="477" y="318" type="line"/>
      <point x="367" y="316" type="line"/>
      <point x="415" y="384" type="line" smooth="yes"/>
      <point x="453" y="438"/>
      <point x="465" y="453"/>
      <point x="517" y="461" type="curve"/>
      <point x="527" y="498" type="line"/>
      <point x="523" y="505" type="line"/>
      <point x="523" y="505"/>
      <point x="478" y="502"/>
      <point x="446" y="502" type="curve" smooth="yes"/>
      <point x="411" y="502"/>
      <point x="353" y="508"/>
      <point x="351" y="508" type="curve"/>
      <point x="342" y="471" type="line"/>
      <point x="342" y="464" type="line"/>
      <point x="371" y="463"/>
      <point x="390" y="457"/>
      <point x="390" y="447" type="curve" smooth="yes"/>
      <point x="390" y="434"/>
      <point x="382" y="421"/>
      <point x="373" y="407" type="curve" smooth="yes"/>
      <point x="266" y="248" type="line"/>
      <point x="210" y="405" type="line"/>
      <point x="211" y="405" type="line"/>
      <point x="206" y="420"/>
      <point x="203" y="430"/>
    </contour>
  </outline>
</glyph>
<glyph name="brokenbar" format="2">
  <advance width="355"/>
  <unicode hex="00A6"/>
  <outline>
    <contour>
      <point x="201" y="178" type="line"/>
      <point x="137" y="166" type="line"/>
      <point x="119" y="23"/>
      <point x="102" y="-120"/>
      <point x="84" y="-263" type="curve"/>
      <point x="92" y="-269" type="line"/>
      <point x="152" y="-258" type="line"/>
      <point x="152" y="-258"/>
      <point x="180" y="-19"/>
      <point x="204" y="175" type="curve"/>
    </contour>
    <contour>
      <point x="167" y="367" type="line"/>
      <point x="229" y="376" type="line"/>
      <point x="252" y="552"/>
      <point x="287" y="801"/>
      <point x="287" y="801" type="curve"/>
      <point x="277" y="807" type="line"/>
      <point x="216" y="796" type="line"/>
      <point x="199" y="654"/>
      <point x="181" y="512"/>
      <point x="163" y="370" type="curve"/>
    </contour>
  </outline>
</glyph>
<glyph name="section" format="2">
  <advance width="490"/>
  <unicode hex="00A7"/>
  <outline>
    <contour>
      <point x="325" y="42" type="curve"/>
      <point x="343" y="187"/>
      <point x="109" y="260"/>
      <point x="109" y="375" type="curve" smooth="yes"/>
      <point x="109" y="419"/>
      <point x="131" y="451"/>
      <point x="191" y="484" type="curve"/>
      <point x="190" y="518" type="line"/>
      <point x="105" y="472"/>
      <point x="48" y="402"/>
      <point x="48" y="334" type="curve" smooth="yes"/>
      <point x="48" y="186"/>
      <point x="263" y="135"/>
      <point x="263" y="23" type="curve" smooth="yes"/>
      <point x="263" y="-23"/>
      <point x="224" y="-58"/>
      <point x="181" y="-58" type="curve" smooth="yes"/>
      <point x="125" y="-58"/>
      <point x="87" y="-11"/>
      <point x="83" y="60" type="curve"/>
      <point x="68" y="60" type="line"/>
      <point x="58" y="48"/>
      <point x="42" y="-7"/>
      <point x="42" y="-31" type="curve" smooth="yes"/>
      <point x="42" y="-74"/>
      <point x="85" y="-105"/>
      <point x="146" y="-105" type="curve" smooth="yes"/>
      <point x="239" y="-105"/>
      <point x="320" y="-19"/>
    </contour>
    <contour>
      <point x="314" y="68" type="curve"/>
      <point x="314" y="31" type="line"/>
      <point x="394" y="67"/>
      <point x="457" y="147"/>
      <point x="457" y="222" type="curve" smooth="yes"/>
      <point x="457" y="363"/>
      <point x="238" y="416"/>
      <point x="238" y="529" type="curve" smooth="yes"/>
      <point x="238" y="570"/>
      <point x="266" y="600"/>
      <point x="299" y="600" type="curve" smooth="yes"/>
      <point x="337" y="600"/>
      <point x="374" y="568"/>
      <point x="386" y="522" type="curve"/>
      <point x="400" y="522" type="line"/>
      <point x="410" y="532"/>
      <point x="429" y="583"/>
      <point x="429" y="602" type="curve" smooth="yes"/>
      <point x="429" y="627"/>
      <point x="387" y="649"/>
      <point x="338" y="649" type="curve" smooth="yes"/>
      <point x="254" y="649"/>
      <point x="177" y="574"/>
      <point x="177" y="493" type="curve" smooth="yes"/>
      <point x="177" y="365"/>
      <point x="394" y="284"/>
      <point x="394" y="180" type="curve" smooth="yes"/>
      <point x="394" y="135"/>
      <point x="366" y="97"/>
    </contour>
  </outline>
</glyph>
<glyph name="copyright" format="2">
  <advance width="665"/>
  <unicode hex="00A9"/>
  <anchor x="324.288" y="131" name="bottom"/>
  <anchor x="365.084" y="459.02" name="top"/>
  <outline>
    <contour>
      <point x="47" y="261" type="curve" smooth="yes"/>
      <point x="47" y="109"/>
      <point x="154" y="-12"/>
      <point x="304" y="-12" type="curve" smooth="yes"/>
      <point x="479" y="-12"/>
      <point x="636" y="142"/>
      <point x="636" y="325" type="curve" smooth="yes"/>
      <point x="636" y="477"/>
      <point x="528" y="598"/>
      <point x="379" y="598" type="curve" smooth="yes"/>
      <point x="204" y="598"/>
      <point x="47" y="444"/>
    </contour>
    <contour>
      <point x="88" y="265" type="curve" smooth="yes"/>
      <point x="88" y="424"/>
      <point x="224" y="558"/>
      <point x="374" y="558" type="curve" smooth="yes"/>
      <point x="502" y="558"/>
      <point x="595" y="453"/>
      <point x="595" y="321" type="curve" smooth="yes"/>
      <point x="595" y="162"/>
      <point x="459" y="28"/>
      <point x="309" y="28" type="curve" smooth="yes"/>
      <point x="181" y="28"/>
      <point x="88" y="133"/>
    </contour>
    <contour>
      <point x="330.868" y="125.06" type="curve" smooth="yes"/>
      <point x="393.378" y="125.06"/>
      <point x="436.148" y="145.52"/>
      <point x="436.148" y="145.52" type="curve"/>
      <point x="440.096" y="150.8" type="line"/>
      <point x="447.992" y="188.42"/>
      <point x="463.784" y="237.26"/>
      <point x="463.784" y="237.26" type="curve"/>
      <point x="433.516" y="234.62" type="line"/>
      <point x="414.434" y="179.84"/>
      <point x="384.824" y="155.42"/>
      <point x="340.08" y="155.42" type="curve" smooth="yes"/>
      <point x="280.202" y="155.42"/>
      <point x="244.67" y="202.28"/>
      <point x="244.67" y="276.2" type="curve" smooth="yes"/>
      <point x="244.67" y="371.24"/>
      <point x="295.336" y="431.3"/>
      <point x="369.69" y="431.3" type="curve" smooth="yes"/>
      <point x="414.434" y="431.3"/>
      <point x="436.148" y="417.44"/>
      <point x="436.148" y="389.72" type="curve" smooth="yes"/>
      <point x="436.148" y="379.82"/>
      <point x="431.542" y="358.04"/>
      <point x="431.542" y="358.04" type="curve"/>
      <point x="461.81" y="360.68" type="line"/>
      <point x="471.022" y="409.52"/>
      <point x="486.156" y="449.12"/>
      <point x="486.156" y="449.12" type="curve"/>
      <point x="484.182" y="453.08" type="line"/>
      <point x="484.182" y="453.08"/>
      <point x="430.884" y="465.62"/>
      <point x="388.114" y="465.62" type="curve" smooth="yes"/>
      <point x="272.306" y="465.62"/>
      <point x="188.74" y="380.48"/>
      <point x="188.74" y="263" type="curve" smooth="yes"/>
      <point x="188.74" y="177.86"/>
      <point x="245.328" y="125.06"/>
    </contour>
  </outline>
</glyph>
<glyph name="ordfeminine" format="2">
  <advance width="324"/>
  <unicode hex="00AA"/>
  <anchor x="253" y="0" name="bottom"/>
  <anchor x="410" y="41" name="ogonek"/>
  <anchor x="259" y="474" name="top"/>
  <outline>
    <contour>
      <point x="246" y="405" type="curve"/>
      <point x="244" y="407" type="line"/>
      <point x="260" y="515"/>
      <point x="293" y="631"/>
      <point x="293" y="631" type="curve"/>
      <point x="288" y="641" type="line"/>
      <point x="251" y="650" type="line"/>
      <point x="245" y="647" type="line"/>
      <point x="240" y="632" type="line"/>
      <point x="181" y="643" type="line"/>
      <point x="107" y="643"/>
      <point x="30" y="535"/>
      <point x="30" y="433" type="curve" smooth="yes"/>
      <point x="30" y="376"/>
      <point x="54" y="343"/>
      <point x="94" y="343" type="curve"/>
      <point x="131" y="369"/>
      <point x="164" y="411"/>
      <point x="204" y="482" type="curve"/>
      <point x="208" y="481" type="line"/>
      <point x="205" y="467"/>
      <point x="184" y="378"/>
      <point x="184" y="365" type="curve" smooth="yes"/>
      <point x="184" y="351"/>
      <point x="193" y="343"/>
      <point x="210" y="343" type="curve" smooth="yes"/>
      <point x="229" y="343"/>
      <point x="255" y="362"/>
      <point x="311" y="419" type="curve"/>
      <point x="302" y="438" type="line"/>
      <point x="292" y="439" type="line"/>
      <point x="258" y="410"/>
      <point x="252" y="405"/>
    </contour>
    <contour>
      <point x="110" y="407" type="curve" smooth="yes"/>
      <point x="101" y="407"/>
      <point x="94" y="433"/>
      <point x="94" y="467" type="curve" smooth="yes"/>
      <point x="94" y="533"/>
      <point x="127" y="600"/>
      <point x="161" y="600" type="curve" smooth="yes"/>
      <point x="177" y="600"/>
      <point x="201" y="593"/>
      <point x="221" y="580" type="curve"/>
      <point x="182" y="487"/>
      <point x="131" y="407"/>
    </contour>
  </outline>
</glyph>
<glyph name="logicalnot" format="2">
  <advance width="486"/>
  <unicode hex="00AC"/>
  <outline>
    <contour>
      <point x="448" y="287" type="curve"/>
      <point x="443" y="297" type="line"/>
      <point x="443" y="297"/>
      <point x="342" y="291"/>
      <point x="266" y="291" type="curve" smooth="yes"/>
      <point x="180" y="291"/>
      <point x="37" y="292"/>
      <point x="37" y="292" type="curve"/>
      <point x="20" y="243" type="line"/>
      <point x="25" y="234" type="line"/>
      <point x="25" y="234"/>
      <point x="158" y="235"/>
      <point x="245" y="235" type="curve" smooth="yes"/>
      <point x="378" y="236" type="line"/>
      <point x="367" y="148"/>
      <point x="352" y="36"/>
      <point x="352" y="36" type="curve"/>
      <point x="360" y="30" type="line"/>
      <point x="411" y="41" type="line"/>
      <point x="411" y="41"/>
      <point x="418" y="107"/>
      <point x="427" y="177" type="curve" smooth="yes"/>
      <point x="433" y="224"/>
      <point x="448" y="287"/>
    </contour>
  </outline>
</glyph>
<glyph name="registered" format="2">
  <advance width="449"/>
  <unicode hex="00AE"/>
  <outline>
    <contour>
      <point x="62" y="485" type="curve" smooth="yes"/>
      <point x="62" y="384"/>
      <point x="135" y="303"/>
      <point x="235" y="303" type="curve" smooth="yes"/>
      <point x="352" y="303"/>
      <point x="457" y="405"/>
      <point x="457" y="529" type="curve" smooth="yes"/>
      <point x="457" y="630"/>
      <point x="385" y="711"/>
      <point x="285" y="711" type="curve" smooth="yes"/>
      <point x="168" y="711"/>
      <point x="62" y="609"/>
    </contour>
    <contour>
      <point x="97" y="489" type="curve" smooth="yes"/>
      <point x="97" y="591"/>
      <point x="185" y="676"/>
      <point x="281" y="676" type="curve" smooth="yes"/>
      <point x="363" y="676"/>
      <point x="423" y="609"/>
      <point x="423" y="525" type="curve" smooth="yes"/>
      <point x="423" y="423"/>
      <point x="335" y="338"/>
      <point x="239" y="338" type="curve" smooth="yes"/>
      <point x="157" y="338"/>
      <point x="97" y="405"/>
    </contour>
    <contour>
      <point x="162" y="432" type="curve"/>
      <point x="158" y="411" type="line"/>
      <point x="158" y="411"/>
      <point x="184" y="413"/>
      <point x="201" y="413" type="curve" smooth="yes"/>
      <point x="213" y="413" type="line" smooth="yes"/>
      <point x="226" y="413"/>
      <point x="244" y="412"/>
      <point x="244" y="412" type="curve"/>
      <point x="248" y="429" type="line"/>
      <point x="247" y="430"/>
      <point x="247" y="432"/>
      <point x="246" y="433" type="curve"/>
      <point x="230" y="433"/>
      <point x="225" y="436"/>
      <point x="225" y="448" type="curve" smooth="yes"/>
      <point x="225" y="457"/>
      <point x="229" y="480"/>
      <point x="232" y="494" type="curve"/>
      <point x="256" y="494" type="line"/>
      <point x="276" y="439" type="line" smooth="yes"/>
      <point x="285" y="416"/>
      <point x="295" y="407"/>
      <point x="308" y="407" type="curve" smooth="yes"/>
      <point x="334" y="407"/>
      <point x="346" y="407"/>
      <point x="348" y="424" type="curve"/>
      <point x="345" y="428" type="line"/>
      <point x="332" y="428"/>
      <point x="321" y="439"/>
      <point x="310" y="460" type="curve" smooth="yes"/>
      <point x="288" y="503" type="line"/>
      <point x="315" y="515"/>
      <point x="342" y="534"/>
      <point x="342" y="572" type="curve" smooth="yes"/>
      <point x="342" y="603"/>
      <point x="315" y="621"/>
      <point x="270" y="621" type="curve" smooth="yes"/>
      <point x="270" y="621"/>
      <point x="252" y="620"/>
      <point x="240" y="619" type="curve" smooth="yes"/>
      <point x="229" y="619" type="line" smooth="yes"/>
      <point x="217" y="619"/>
      <point x="189" y="620"/>
      <point x="188" y="620" type="curve"/>
      <point x="183" y="603" type="line"/>
      <point x="185" y="599" type="line"/>
      <point x="188" y="599"/>
      <point x="191" y="599"/>
      <point x="195" y="599" type="curve" smooth="yes"/>
      <point x="204" y="599"/>
      <point x="206" y="596"/>
      <point x="204" y="581" type="curve" smooth="yes"/>
      <point x="191" y="470" type="line" smooth="yes"/>
      <point x="187" y="441"/>
      <point x="185" y="434"/>
    </contour>
    <contour>
      <point x="246" y="589" type="curve" smooth="yes"/>
      <point x="247" y="595"/>
      <point x="248" y="597"/>
      <point x="253" y="597" type="curve" smooth="yes"/>
      <point x="281" y="597"/>
      <point x="298" y="588"/>
      <point x="298" y="564" type="curve" smooth="yes"/>
      <point x="298" y="532"/>
      <point x="274" y="521"/>
      <point x="263" y="517" type="curve"/>
      <point x="254" y="518"/>
      <point x="243" y="520"/>
      <point x="236" y="520" type="curve"/>
      <point x="239" y="543"/>
      <point x="243" y="566"/>
    </contour>
  </outline>
</glyph>
<glyph name="degree" format="2">
  <advance width="290"/>
  <unicode hex="00B0"/>
  <outline>
    <contour>
      <point x="60" y="510" type="curve" smooth="yes"/>
      <point x="60" y="447"/>
      <point x="105" y="397"/>
      <point x="167" y="397" type="curve" smooth="yes"/>
      <point x="239" y="397"/>
      <point x="304" y="460"/>
      <point x="304" y="536" type="curve" smooth="yes"/>
      <point x="304" y="599"/>
      <point x="260" y="649"/>
      <point x="198" y="649" type="curve" smooth="yes"/>
      <point x="125" y="649"/>
      <point x="60" y="586"/>
    </contour>
    <contour>
      <point x="102" y="514" type="curve" smooth="yes"/>
      <point x="102" y="564"/>
      <point x="141" y="607"/>
      <point x="188" y="607" type="curve" smooth="yes"/>
      <point x="229" y="607"/>
      <point x="263" y="573"/>
      <point x="263" y="532" type="curve" smooth="yes"/>
      <point x="263" y="482"/>
      <point x="223" y="439"/>
      <point x="176" y="439" type="curve" smooth="yes"/>
      <point x="135" y="439"/>
      <point x="102" y="473"/>
    </contour>
  </outline>
</glyph>
<glyph name="plusminus" format="2">
  <advance width="486"/>
  <unicode hex="00B1"/>
  <outline>
    <contour>
      <point x="308" y="497" type="curve"/>
      <point x="299" y="503" type="line"/>
      <point x="247" y="495" type="line"/>
      <point x="239" y="431"/>
      <point x="230" y="368"/>
      <point x="222" y="304" type="curve"/>
      <point x="139" y="304"/>
      <point x="38" y="305"/>
      <point x="38" y="305" type="curve"/>
      <point x="22" y="256" type="line"/>
      <point x="26" y="247" type="line"/>
      <point x="26" y="247"/>
      <point x="131" y="248"/>
      <point x="215" y="248" type="curve"/>
      <point x="205" y="162"/>
      <point x="191" y="59"/>
      <point x="191" y="59" type="curve"/>
      <point x="199" y="53" type="line"/>
      <point x="250" y="64" type="line"/>
      <point x="250" y="64"/>
      <point x="261" y="163"/>
      <point x="272" y="248" type="curve"/>
      <point x="335" y="248"/>
      <point x="400" y="249"/>
      <point x="464" y="249" type="curve"/>
      <point x="478" y="300" type="line"/>
      <point x="474" y="310" type="line"/>
      <point x="474" y="310"/>
      <point x="355" y="304"/>
      <point x="278" y="304" type="curve"/>
      <point x="288" y="384"/>
      <point x="308" y="497"/>
    </contour>
    <contour>
      <point x="438" y="-22" type="line"/>
      <point x="434" y="-12" type="line"/>
      <point x="434" y="-13"/>
      <point x="401" y="-14"/>
      <point x="359" y="-15" type="curve" smooth="yes"/>
      <point x="317" y="-17"/>
      <point x="266" y="-18"/>
      <point x="228" y="-18" type="curve" smooth="yes"/>
      <point x="143" y="-18"/>
      <point x="1" y="-17"/>
      <point x="-1" y="-17" type="curve"/>
      <point x="-17" y="-66" type="line"/>
      <point x="-13" y="-75" type="line"/>
      <point x="29" y="-75"/>
      <point x="271" y="-73"/>
      <point x="424" y="-73" type="curve"/>
    </contour>
  </outline>
</glyph>
<glyph name="twosuperior" format="2">
  <advance width="318"/>
  <unicode hex="00B2"/>
  <outline>
    <contour>
      <point x="12" y="369" type="line"/>
      <point x="16" y="344" type="line"/>
      <point x="57" y="351" type="line"/>
      <point x="113" y="351"/>
      <point x="258" y="346"/>
      <point x="258" y="346" type="curve"/>
      <point x="267" y="352" type="line"/>
      <point x="277" y="401"/>
      <point x="299" y="463"/>
      <point x="299" y="463" type="curve"/>
      <point x="260" y="459" type="line"/>
      <point x="244" y="413"/>
      <point x="231" y="402"/>
      <point x="190" y="402" type="curve" smooth="yes"/>
      <point x="114" y="402" type="line"/>
      <point x="112" y="407" type="line"/>
      <point x="239" y="542"/>
      <point x="278" y="600"/>
      <point x="278" y="651" type="curve" smooth="yes"/>
      <point x="278" y="698"/>
      <point x="238" y="728"/>
      <point x="181" y="728" type="curve" smooth="yes"/>
      <point x="135" y="728"/>
      <point x="82" y="694"/>
      <point x="51" y="648" type="curve"/>
      <point x="55" y="607" type="line"/>
      <point x="63" y="607" type="line"/>
      <point x="91" y="647"/>
      <point x="125" y="669"/>
      <point x="158" y="669" type="curve" smooth="yes"/>
      <point x="187" y="669"/>
      <point x="202" y="656"/>
      <point x="202" y="631" type="curve" smooth="yes"/>
      <point x="202" y="592"/>
      <point x="162" y="527"/>
      <point x="89" y="446" type="curve" smooth="yes"/>
    </contour>
  </outline>
</glyph>
<glyph name="threesuperior" format="2">
  <advance width="284"/>
  <unicode hex="00B3"/>
  <outline>
    <contour>
      <point x="30" y="407" type="curve"/>
      <point x="23" y="400" type="line"/>
      <point x="19" y="359"/>
      <point x="29" y="343"/>
      <point x="61" y="343" type="curve" smooth="yes"/>
      <point x="148" y="343"/>
      <point x="249" y="415"/>
      <point x="249" y="481" type="curve" smooth="yes"/>
      <point x="249" y="519"/>
      <point x="225" y="545"/>
      <point x="175" y="560" type="curve"/>
      <point x="176" y="565" type="line"/>
      <point x="223" y="586"/>
      <point x="255" y="623"/>
      <point x="255" y="661" type="curve" smooth="yes"/>
      <point x="255" y="701"/>
      <point x="220" y="728"/>
      <point x="173" y="728" type="curve" smooth="yes"/>
      <point x="129" y="728"/>
      <point x="73" y="692"/>
      <point x="61" y="685" type="curve"/>
      <point x="67" y="648" type="line"/>
      <point x="74" y="648" type="line"/>
      <point x="96" y="665"/>
      <point x="126" y="676"/>
      <point x="147" y="676" type="curve" smooth="yes"/>
      <point x="169" y="676"/>
      <point x="183" y="662"/>
      <point x="183" y="641" type="curve" smooth="yes"/>
      <point x="183" y="613"/>
      <point x="158" y="585"/>
      <point x="125" y="569" type="curve"/>
      <point x="83" y="560" type="line"/>
      <point x="83" y="528" type="line"/>
      <point x="88" y="523" type="line"/>
      <point x="150" y="523"/>
      <point x="179" y="507"/>
      <point x="179" y="471" type="curve" smooth="yes"/>
      <point x="179" y="429"/>
      <point x="135" y="399"/>
      <point x="80" y="399" type="curve" smooth="yes"/>
      <point x="63" y="399"/>
      <point x="46" y="402"/>
    </contour>
  </outline>
</glyph>
<glyph name="micro" format="2">
  <advance width="518"/>
  <unicode hex="00B5"/>
  <outline>
    <contour>
      <point x="185" y="-7" type="curve"/>
      <point x="240" y="-7"/>
      <point x="282" y="43"/>
      <point x="334" y="169" type="curve"/>
      <point x="347" y="165" type="line"/>
      <point x="377" y="217"/>
      <point x="412" y="290"/>
      <point x="467" y="414" type="curve"/>
      <point x="455" y="431"/>
      <point x="440" y="446"/>
      <point x="415" y="463" type="curve"/>
      <point x="383" y="443" type="line"/>
      <point x="372" y="406"/>
      <point x="361" y="357"/>
      <point x="352" y="304" type="curve"/>
      <point x="303" y="176"/>
      <point x="236" y="86"/>
      <point x="190" y="86" type="curve" smooth="yes"/>
      <point x="161" y="86"/>
      <point x="146" y="117"/>
      <point x="141" y="179" type="curve"/>
      <point x="95" y="50" type="line"/>
      <point x="136" y="69" type="line"/>
      <point x="149" y="27"/>
      <point x="164" y="5"/>
    </contour>
    <contour>
      <point x="33" y="-240" type="line"/>
      <point x="62" y="-235"/>
      <point x="96" y="-230"/>
      <point x="115" y="-224" type="curve"/>
      <point x="114" y="-94"/>
      <point x="120" y="21"/>
      <point x="134" y="128" type="curve"/>
      <point x="212" y="433" type="line"/>
      <point x="155" y="461" type="line"/>
      <point x="144" y="461" type="line"/>
      <point x="122" y="448" type="line"/>
      <point x="107" y="346"/>
      <point x="102" y="243"/>
      <point x="106" y="139" type="curve"/>
      <point x="119" y="264" type="line"/>
      <point x="18" y="-229" type="line"/>
    </contour>
    <contour>
      <point x="422" y="-11" type="curve"/>
      <point x="455" y="14"/>
      <point x="481" y="52"/>
      <point x="495" y="97" type="curve"/>
      <point x="489" y="105" type="line"/>
      <point x="404" y="58"/>
      <point x="360" y="92"/>
      <point x="378" y="190" type="curve" smooth="yes"/>
      <point x="393" y="271" type="line"/>
      <point x="351" y="268" type="line"/>
      <point x="337" y="129" type="line" smooth="yes"/>
      <point x="327" y="30"/>
      <point x="353" y="-11"/>
    </contour>
  </outline>
</glyph>
<glyph name="paragraph" format="2">
  <advance width="539"/>
  <unicode hex="00B6"/>
  <outline>
    <contour>
      <point x="371" y="578" type="curve" smooth="yes"/>
      <point x="316" y="134" type="line" smooth="yes"/>
      <point x="299" y="-6"/>
      <point x="276" y="-58"/>
      <point x="196" y="-58" type="curve" smooth="yes"/>
      <point x="142" y="-58"/>
      <point x="110" y="-12"/>
      <point x="121" y="78" type="curve"/>
      <point x="106" y="78" type="line"/>
      <point x="82" y="53"/>
      <point x="58" y="11"/>
      <point x="58" y="-20" type="curve" smooth="yes"/>
      <point x="58" y="-79"/>
      <point x="114" y="-105"/>
      <point x="176" y="-105" type="curve" smooth="yes"/>
      <point x="327" y="-105"/>
      <point x="366" y="-9"/>
      <point x="386" y="154" type="curve" smooth="yes"/>
      <point x="396" y="231"/>
      <point x="430" y="490"/>
      <point x="446" y="549" type="curve" smooth="yes"/>
      <point x="453" y="585"/>
      <point x="469" y="597"/>
      <point x="527" y="594" type="curve"/>
      <point x="529" y="598" type="line"/>
      <point x="540" y="640" type="line"/>
      <point x="540" y="640"/>
      <point x="455" y="637"/>
      <point x="419" y="637" type="curve" smooth="yes"/>
      <point x="393" y="637"/>
      <point x="342" y="641"/>
      <point x="294" y="641" type="curve" smooth="yes"/>
      <point x="159" y="641"/>
      <point x="65" y="541"/>
      <point x="65" y="417" type="curve" smooth="yes"/>
      <point x="65" y="286"/>
      <point x="160" y="222"/>
      <point x="273" y="212" type="curve"/>
      <point x="275" y="227" type="line"/>
      <point x="246" y="276"/>
      <point x="231" y="326"/>
      <point x="231" y="393" type="curve" smooth="yes"/>
      <point x="231" y="511"/>
      <point x="270" y="592"/>
      <point x="346" y="592" type="curve" smooth="yes"/>
      <point x="371" y="592"/>
      <point x="371" y="591"/>
    </contour>
  </outline>
</glyph>
<glyph name="periodcentered" format="2">
  <advance width="229"/>
  <unicode hex="00B7"/>
  <outline>
    <contour>
      <point x="105" y="168" type="curve" smooth="yes"/>
      <point x="146" y="168"/>
      <point x="175" y="200"/>
      <point x="175" y="237" type="curve" smooth="yes"/>
      <point x="175" y="265"/>
      <point x="158" y="287"/>
      <point x="125" y="287" type="curve" smooth="yes"/>
      <point x="85" y="287"/>
      <point x="57" y="255"/>
      <point x="57" y="218" type="curve" smooth="yes"/>
      <point x="57" y="192"/>
      <point x="71" y="168"/>
    </contour>
  </outline>
</glyph>
<glyph name="onesuperior" format="2">
  <advance width="240"/>
  <unicode hex="00B9"/>
  <outline>
    <contour>
      <point x="184" y="662" type="curve" smooth="yes"/>
      <point x="190" y="689"/>
      <point x="198" y="700"/>
      <point x="214" y="713" type="curve"/>
      <point x="210" y="728" type="line"/>
      <point x="210" y="728"/>
      <point x="194" y="725"/>
      <point x="132" y="716" type="curve" smooth="yes"/>
      <point x="102" y="711"/>
      <point x="68" y="707"/>
      <point x="60" y="706" type="curve"/>
      <point x="53" y="674" type="line"/>
      <point x="55" y="671" type="line"/>
      <point x="55" y="671"/>
      <point x="75" y="674"/>
      <point x="87" y="674" type="curve" smooth="yes"/>
      <point x="109" y="674"/>
      <point x="118" y="670"/>
      <point x="115" y="639" type="curve" smooth="yes"/>
      <point x="89" y="430" type="line" smooth="yes"/>
      <point x="85" y="393"/>
      <point x="66" y="382"/>
      <point x="28" y="379" type="curve"/>
      <point x="19" y="344" type="line"/>
      <point x="19" y="344"/>
      <point x="73" y="351"/>
      <point x="109" y="351" type="curve" smooth="yes"/>
      <point x="140" y="351"/>
      <point x="195" y="349"/>
      <point x="195" y="349" type="curve"/>
      <point x="206" y="385" type="line"/>
      <point x="205" y="388" type="line"/>
      <point x="205" y="388"/>
      <point x="188" y="386"/>
      <point x="173" y="386" type="curve" smooth="yes"/>
      <point x="156" y="386"/>
      <point x="149" y="394"/>
      <point x="149" y="415" type="curve" smooth="yes"/>
      <point x="149" y="439"/>
      <point x="172" y="601"/>
    </contour>
  </outline>
</glyph>
<glyph name="questiondown" format="2">
  <advance width="346"/>
  <unicode hex="00BF"/>
  <outline>
    <contour>
      <point x="255" y="129" type="line"/>
      <point x="247" y="249" type="line"/>
      <point x="238" y="253" type="line"/>
      <point x="176" y="236" type="line"/>
      <point x="172" y="228" type="line"/>
      <point x="180" y="133" type="line"/>
      <point x="176" y="124" type="line"/>
      <point x="89" y="65"/>
      <point x="-9" y="31"/>
      <point x="-9" y="-90" type="curve" smooth="yes"/>
      <point x="-9" y="-174"/>
      <point x="77" y="-238"/>
      <point x="189" y="-242" type="curve"/>
      <point x="203" y="-238" type="line"/>
      <point x="241" y="-185" type="line"/>
      <point x="240" y="-174" type="line"/>
      <point x="133" y="-167"/>
      <point x="61" y="-132"/>
      <point x="61" y="-59" type="curve" smooth="yes"/>
      <point x="61" y="-14"/>
      <point x="92" y="16"/>
      <point x="127" y="39" type="curve" smooth="yes"/>
      <point x="250" y="115" type="line"/>
    </contour>
    <contour>
      <point x="238" y="464" type="curve" smooth="yes"/>
      <point x="197" y="464"/>
      <point x="169" y="432"/>
      <point x="169" y="395" type="curve" smooth="yes"/>
      <point x="169" y="367"/>
      <point x="185" y="345"/>
      <point x="218" y="345" type="curve" smooth="yes"/>
      <point x="258" y="345"/>
      <point x="287" y="377"/>
      <point x="287" y="414" type="curve" smooth="yes"/>
      <point x="287" y="440"/>
      <point x="272" y="464"/>
    </contour>
  </outline>
</glyph>
<glyph name="AE" format="2">
  <advance width="778"/>
  <unicode hex="00C6"/>
  <anchor x="499" y="647" name="top"/>
  <outline>
    <contour>
      <point x="266" y="35" type="curve"/>
      <point x="260" y="-3" type="line"/>
      <point x="261" y="-10" type="line"/>
      <point x="261" y="-10"/>
      <point x="330" y="0"/>
      <point x="404" y="0" type="curve" smooth="yes"/>
      <point x="503" y="0"/>
      <point x="697" y="-5"/>
      <point x="695" y="-7" type="curve"/>
      <point x="700" y="-1" type="line"/>
      <point x="719" y="83"/>
      <point x="747" y="166"/>
      <point x="747" y="166" type="curve"/>
      <point x="744" y="171" type="line"/>
      <point x="700" y="166" type="line"/>
      <point x="671" y="56"/>
      <point x="653" y="44"/>
      <point x="515" y="44" type="curve" smooth="yes"/>
      <point x="462" y="44"/>
      <point x="442" y="62"/>
      <point x="441" y="112" type="curve" smooth="yes"/>
      <point x="435" y="283" type="line"/>
      <point x="543" y="292" type="line"/>
      <point x="626" y="294" type="line"/>
      <point x="645" y="346" type="line"/>
      <point x="641" y="351" type="line"/>
      <point x="551" y="338" type="line"/>
      <point x="435" y="327" type="line"/>
      <point x="433" y="557" type="line"/>
      <point x="433" y="580"/>
      <point x="443" y="588"/>
      <point x="502" y="588" type="curve" smooth="yes"/>
      <point x="626" y="588"/>
      <point x="648" y="581"/>
      <point x="648" y="537" type="curve" smooth="yes"/>
      <point x="648" y="512"/>
      <point x="639" y="474"/>
      <point x="639" y="474" type="curve"/>
      <point x="686" y="478" type="line"/>
      <point x="703" y="570"/>
      <point x="728" y="643"/>
      <point x="728" y="643" type="curve"/>
      <point x="726" y="649" type="line"/>
      <point x="669" y="640"/>
      <point x="593" y="637"/>
      <point x="438" y="637" type="curve" smooth="yes"/>
      <point x="367" y="637"/>
      <point x="285" y="639"/>
      <point x="285" y="640" type="curve"/>
      <point x="272" y="597" type="line"/>
      <point x="274" y="593" type="line"/>
      <point x="274" y="593"/>
      <point x="295" y="595"/>
      <point x="307" y="595" type="curve" smooth="yes"/>
      <point x="321" y="595"/>
      <point x="327" y="590"/>
      <point x="329" y="579" type="curve"/>
      <point x="38" y="121" type="line" smooth="yes"/>
      <point x="3" y="65"/>
      <point x="-33" y="30"/>
      <point x="-33" y="30" type="curve"/>
      <point x="-31" y="-4" type="line"/>
      <point x="-31" y="-4"/>
      <point x="13" y="0"/>
      <point x="35" y="0" type="curve" smooth="yes"/>
      <point x="96" y="0"/>
      <point x="167" y="-7"/>
      <point x="167" y="-7" type="curve"/>
      <point x="178" y="39" type="line"/>
      <point x="124" y="39" type="line" smooth="yes"/>
      <point x="88" y="39"/>
      <point x="75" y="47"/>
      <point x="75" y="69" type="curve" smooth="yes"/>
      <point x="75" y="82"/>
      <point x="79" y="92"/>
      <point x="96" y="120" type="curve" smooth="yes"/>
      <point x="180" y="260" type="line"/>
      <point x="269" y="269" type="line"/>
      <point x="365" y="277" type="line"/>
      <point x="367" y="153" type="line" smooth="yes"/>
      <point x="367" y="143"/>
      <point x="367" y="127"/>
      <point x="367" y="117" type="curve" smooth="yes"/>
      <point x="367" y="70"/>
      <point x="329" y="39"/>
    </contour>
    <contour>
      <point x="293" y="315" type="line"/>
      <point x="213" y="310" type="line"/>
      <point x="354" y="540" type="line"/>
      <point x="363" y="540" type="line"/>
      <point x="364" y="321" type="line"/>
    </contour>
  </outline>
</glyph>
<glyph name="Eth" format="2">
  <advance width="684"/>
  <unicode hex="00D0"/>
  <outline>
    <contour>
      <point x="190" y="304" type="line"/>
      <point x="195" y="343" type="line"/>
      <point x="31" y="343" type="line"/>
      <point x="20" y="311" type="line"/>
      <point x="26" y="304" type="line"/>
    </contour>
    <contour>
      <point x="213" y="343" type="line"/>
      <point x="208" y="304" type="line"/>
      <point x="390" y="304" type="line"/>
      <point x="400" y="336" type="line"/>
      <point x="396" y="343" type="line"/>
    </contour>
    <component base="D" xOffset="10"/>
  </outline>
</glyph>
<glyph name="multiply" format="2">
  <advance width="486"/>
  <unicode hex="00D7"/>
  <outline>
    <contour>
      <point x="414" y="446" type="line"/>
      <point x="404" y="449" type="line"/>
      <point x="404" y="449"/>
      <point x="314" y="359"/>
      <point x="253" y="301" type="curve"/>
      <point x="201" y="363"/>
      <point x="137" y="442"/>
      <point x="137" y="442" type="curve"/>
      <point x="90" y="416" type="line"/>
      <point x="87" y="405" type="line"/>
      <point x="87" y="405"/>
      <point x="155" y="323"/>
      <point x="208" y="261" type="curve"/>
      <point x="141" y="199"/>
      <point x="60" y="125"/>
      <point x="60" y="125" type="curve"/>
      <point x="82" y="83" type="line"/>
      <point x="92" y="80" type="line"/>
      <point x="92" y="80"/>
      <point x="175" y="159"/>
      <point x="243" y="222" type="curve"/>
      <point x="359" y="84" type="line"/>
      <point x="404" y="114" type="line"/>
      <point x="409" y="126" type="line"/>
      <point x="409" y="126"/>
      <point x="336" y="204"/>
      <point x="287" y="261" type="curve"/>
      <point x="440" y="404" type="line"/>
    </contour>
  </outline>
</glyph>
<glyph name="Oslash" format="2">
  <advance width="663"/>
  <unicode hex="00D8"/>
  <anchor x="328" y="647" name="top"/>
  <outline>
    <contour>
      <point x="496" y="579" type="line"/>
      <point x="553" y="689" type="line"/>
      <point x="550" y="701" type="line"/>
      <point x="521" y="708" type="line"/>
      <point x="463" y="593" type="line"/>
    </contour>
    <contour>
      <point x="208" y="34" type="line"/>
      <point x="496" y="579" type="line"/>
      <point x="463" y="593" type="line"/>
      <point x="176" y="48" type="line"/>
    </contour>
    <contour>
      <point x="176" y="48" type="line"/>
      <point x="108" y="-82" type="line"/>
      <point x="110" y="-92" type="line"/>
      <point x="137" y="-98" type="line"/>
      <point x="208" y="34" type="line"/>
    </contour>
    <component base="O"/>
  </outline>
</glyph>
<glyph name="Thorn" format="2">
  <advance width="523"/>
  <unicode hex="00DE"/>
  <outline>
    <contour>
      <point x="252" y="506" type="line"/>
      <point x="260" y="544" type="line" smooth="yes"/>
      <point x="268" y="582"/>
      <point x="281" y="594"/>
      <point x="335" y="601" type="curve"/>
      <point x="345" y="646" type="line"/>
      <point x="345" y="646"/>
      <point x="276" y="637"/>
      <point x="232" y="637" type="curve" smooth="yes"/>
      <point x="192" y="637"/>
      <point x="118" y="640"/>
      <point x="117" y="640" type="curve"/>
      <point x="104" y="596" type="line"/>
      <point x="106" y="592" type="line"/>
      <point x="106" y="592"/>
      <point x="132" y="594"/>
      <point x="146" y="594" type="curve" smooth="yes"/>
      <point x="175" y="594"/>
      <point x="180" y="582"/>
      <point x="175" y="540" type="curve" smooth="yes"/>
      <point x="123" y="120" type="line" smooth="yes"/>
      <point x="116" y="64"/>
      <point x="97" y="46"/>
      <point x="36" y="34" type="curve"/>
      <point x="24" y="-12" type="line"/>
      <point x="24" y="-12"/>
      <point x="89" y="0"/>
      <point x="138" y="0" type="curve" smooth="yes"/>
      <point x="183" y="0"/>
      <point x="265" y="-3"/>
      <point x="265" y="-3" type="curve"/>
      <point x="279" y="43" type="line"/>
      <point x="278" y="47" type="line"/>
      <point x="278" y="47"/>
      <point x="250" y="44"/>
      <point x="227" y="44" type="curve" smooth="yes"/>
      <point x="193" y="44"/>
      <point x="187" y="58"/>
      <point x="193" y="112" type="curve" smooth="yes"/>
      <point x="197" y="151" type="line"/>
      <point x="265" y="151" type="line" smooth="yes"/>
      <point x="394" y="151"/>
      <point x="518" y="248"/>
      <point x="518" y="363" type="curve" smooth="yes"/>
      <point x="518" y="455"/>
      <point x="452" y="506"/>
      <point x="330" y="506" type="curve" smooth="yes"/>
    </contour>
    <contour>
      <point x="242" y="449" type="curve" smooth="yes"/>
      <point x="243" y="456"/>
      <point x="247" y="457"/>
      <point x="268" y="457" type="curve" smooth="yes"/>
      <point x="380" y="457"/>
      <point x="431" y="421"/>
      <point x="431" y="344" type="curve" smooth="yes"/>
      <point x="431" y="258"/>
      <point x="387" y="206"/>
      <point x="300" y="195" type="curve"/>
      <point x="273" y="196"/>
      <point x="227" y="204"/>
      <point x="205" y="212" type="curve"/>
      <point x="212" y="263"/>
      <point x="226" y="334"/>
    </contour>
  </outline>
</glyph>
<glyph name="germandbls" format="2">
  <advance width="549"/>
  <unicode hex="00DF"/>
  <outline>
    <contour>
      <point x="34" y="410" type="line"/>
      <point x="37" y="405" type="line"/>
      <point x="106" y="402" type="line"/>
      <point x="113" y="397" type="line"/>
      <point x="85" y="57" type="line" smooth="yes"/>
      <point x="54" y="-330"/>
      <point x="67" y="-151"/>
      <point x="73" y="-116" type="curve" smooth="yes"/>
      <point x="67" y="-161"/>
      <point x="36" y="-195"/>
      <point x="1" y="-195" type="curve" smooth="yes"/>
      <point x="-42" y="-195"/>
      <point x="-70" y="-162"/>
      <point x="-69" y="-112" type="curve"/>
      <point x="-83" y="-112" type="line"/>
      <point x="-94" y="-131"/>
      <point x="-111" y="-173"/>
      <point x="-117" y="-196" type="curve"/>
      <point x="-109" y="-222"/>
      <point x="-69" y="-242"/>
      <point x="-27" y="-242" type="curve" smooth="yes"/>
      <point x="59" y="-242"/>
      <point x="116" y="-180"/>
      <point x="128" y="-75" type="curve" smooth="yes"/>
      <point x="200" y="569" type="line" smooth="yes"/>
      <point x="210" y="645"/>
      <point x="244" y="683"/>
      <point x="303" y="683" type="curve" smooth="yes"/>
      <point x="381" y="683"/>
      <point x="430" y="650"/>
      <point x="430" y="598" type="curve" smooth="yes"/>
      <point x="430" y="512"/>
      <point x="277" y="472"/>
      <point x="277" y="365" type="curve" smooth="yes"/>
      <point x="277" y="244"/>
      <point x="457" y="217"/>
      <point x="457" y="123" type="curve" smooth="yes"/>
      <point x="457" y="78"/>
      <point x="415" y="32"/>
      <point x="374" y="32" type="curve" smooth="yes"/>
      <point x="317" y="32"/>
      <point x="288" y="67"/>
      <point x="296" y="127" type="curve"/>
      <point x="282" y="127" type="line"/>
      <point x="263" y="108"/>
      <point x="237" y="60"/>
      <point x="234" y="41" type="curve"/>
      <point x="231" y="13"/>
      <point x="285" y="-12"/>
      <point x="350" y="-12" type="curve" smooth="yes"/>
      <point x="447" y="-12"/>
      <point x="533" y="68"/>
      <point x="533" y="160" type="curve" smooth="yes"/>
      <point x="533" y="282"/>
      <point x="352" y="311"/>
      <point x="352" y="392" type="curve" smooth="yes"/>
      <point x="352" y="476"/>
      <point x="503" y="505"/>
      <point x="503" y="629" type="curve" smooth="yes"/>
      <point x="503" y="692"/>
      <point x="433" y="742"/>
      <point x="345" y="742" type="curve" smooth="yes"/>
      <point x="233" y="742"/>
      <point x="142" y="654"/>
      <point x="126" y="531" type="curve" smooth="yes"/>
      <point x="117" y="451" type="line"/>
      <point x="38" y="439" type="line"/>
    </contour>
  </outline>
</glyph>
<glyph name="ae" format="2">
  <advance width="587"/>
  <unicode hex="00E6"/>
  <outline>
    <contour>
      <point x="316" y="293" type="line"/>
      <point x="421" y="443" type="line"/>
      <point x="261" y="460" type="line"/>
      <point x="149" y="460"/>
      <point x="32" y="288"/>
      <point x="32" y="124" type="curve" smooth="yes"/>
      <point x="32" y="38"/>
      <point x="61" y="-12"/>
      <point x="112" y="-12" type="curve"/>
      <point x="176" y="33"/>
      <point x="234" y="107"/>
      <point x="299" y="227" type="curve"/>
    </contour>
    <contour>
      <point x="131" y="69" type="curve" smooth="yes"/>
      <point x="115" y="69"/>
      <point x="102" y="115"/>
      <point x="102" y="173" type="curve" smooth="yes"/>
      <point x="102" y="292"/>
      <point x="165" y="406"/>
      <point x="230" y="406" type="curve" smooth="yes"/>
      <point x="257" y="406"/>
      <point x="298" y="397"/>
      <point x="331" y="383" type="curve"/>
      <point x="258" y="211"/>
      <point x="168" y="69"/>
    </contour>
    <contour>
      <point x="568" y="386" type="curve" smooth="yes"/>
      <point x="568" y="436"/>
      <point x="539" y="464"/>
      <point x="489" y="464" type="curve" smooth="yes"/>
      <point x="377" y="464"/>
      <point x="262" y="307"/>
      <point x="262" y="153" type="curve" smooth="yes"/>
      <point x="262" y="51"/>
      <point x="306" y="-12"/>
      <point x="378" y="-12" type="curve" smooth="yes"/>
      <point x="435" y="-12"/>
      <point x="501" y="38"/>
      <point x="539" y="109" type="curve"/>
      <point x="524" y="133" type="line"/>
      <point x="510" y="134" type="line"/>
      <point x="483" y="82"/>
      <point x="440" y="48"/>
      <point x="400" y="48" type="curve" smooth="yes"/>
      <point x="353" y="48"/>
      <point x="325" y="105"/>
      <point x="330" y="190" type="curve"/>
      <point x="501" y="247"/>
      <point x="568" y="302"/>
    </contour>
    <contour>
      <point x="457" y="406" type="curve" smooth="yes"/>
      <point x="483" y="406"/>
      <point x="497" y="390"/>
      <point x="497" y="360" type="curve" smooth="yes"/>
      <point x="497" y="305"/>
      <point x="450" y="268"/>
      <point x="334" y="232" type="curve"/>
      <point x="349" y="327"/>
      <point x="405" y="406"/>
    </contour>
  </outline>
</glyph>
<glyph name="eth" format="2">
  <advance width="416"/>
  <unicode hex="00F0"/>
  <outline>
    <contour>
      <point x="148" y="-12" type="curve" smooth="yes"/>
      <point x="272" y="-12"/>
      <point x="377" y="137"/>
      <point x="377" y="313" type="curve" smooth="yes"/>
      <point x="377" y="405"/>
      <point x="334" y="460"/>
      <point x="263" y="460" type="curve" smooth="yes"/>
      <point x="143" y="460"/>
      <point x="36" y="315"/>
      <point x="36" y="151" type="curve" smooth="yes"/>
      <point x="36" y="53"/>
      <point x="81" y="-12"/>
    </contour>
    <contour>
      <point x="188" y="43" type="curve" smooth="yes"/>
      <point x="141" y="43"/>
      <point x="108" y="107"/>
      <point x="108" y="200" type="curve" smooth="yes"/>
      <point x="108" y="316"/>
      <point x="156" y="401"/>
      <point x="221" y="401" type="curve" smooth="yes"/>
      <point x="271" y="401"/>
      <point x="302" y="346"/>
      <point x="302" y="258" type="curve" smooth="yes"/>
      <point x="302" y="134"/>
      <point x="254" y="43"/>
    </contour>
    <contour>
      <point x="304" y="313" type="curve"/>
      <point x="377" y="313" type="line"/>
      <point x="377" y="414"/>
      <point x="336" y="522"/>
      <point x="269" y="599" type="curve"/>
      <point x="386" y="658" type="line"/>
      <point x="384" y="687" type="line"/>
      <point x="378" y="692" type="line"/>
      <point x="243" y="625" type="line"/>
      <point x="197" y="671"/>
      <point x="143" y="710"/>
      <point x="82" y="741" type="curve"/>
      <point x="72" y="737" type="line"/>
      <point x="52" y="704" type="line"/>
      <point x="106" y="675"/>
      <point x="150" y="640"/>
      <point x="186" y="599" type="curve"/>
      <point x="73" y="541" type="line"/>
      <point x="75" y="511" type="line"/>
      <point x="82" y="508" type="line"/>
      <point x="212" y="572" type="line"/>
      <point x="260" y="508"/>
      <point x="283" y="443"/>
    </contour>
  </outline>
</glyph>
<glyph name="divide" format="2">
  <advance width="486"/>
  <unicode hex="00F7"/>
  <outline>
    <contour>
      <point x="477" y="287" type="line"/>
      <point x="472" y="297" type="line"/>
      <point x="472" y="297"/>
      <point x="343" y="291"/>
      <point x="266" y="291" type="curve" smooth="yes"/>
      <point x="180" y="291"/>
      <point x="37" y="292"/>
      <point x="37" y="292" type="curve"/>
      <point x="20" y="243" type="line"/>
      <point x="25" y="234" type="line"/>
      <point x="25" y="234"/>
      <point x="158" y="235"/>
      <point x="245" y="235" type="curve" smooth="yes"/>
      <point x="463" y="236" type="line"/>
    </contour>
    <contour>
      <point x="212" y="29" type="curve" smooth="yes"/>
      <point x="253" y="29"/>
      <point x="281" y="61"/>
      <point x="281" y="98" type="curve" smooth="yes"/>
      <point x="281" y="126"/>
      <point x="265" y="148"/>
      <point x="232" y="148" type="curve" smooth="yes"/>
      <point x="192" y="148"/>
      <point x="164" y="116"/>
      <point x="164" y="79" type="curve" smooth="yes"/>
      <point x="164" y="53"/>
      <point x="179" y="29"/>
    </contour>
    <contour>
      <point x="255" y="378" type="curve" smooth="yes"/>
      <point x="296" y="378"/>
      <point x="324" y="410"/>
      <point x="324" y="447" type="curve" smooth="yes"/>
      <point x="324" y="475"/>
      <point x="308" y="497"/>
      <point x="275" y="497" type="curve" smooth="yes"/>
      <point x="235" y="497"/>
      <point x="207" y="465"/>
      <point x="207" y="428" type="curve" smooth="yes"/>
      <point x="207" y="402"/>
      <point x="221" y="378"/>
    </contour>
  </outline>
</glyph>
<glyph name="thorn" format="2">
  <advance width="453"/>
  <unicode hex="00FE"/>
  <anchor x="170" y="0" name="bottom"/>
  <anchor x="170" y="463" name="top"/>
  <outline>
    <contour>
      <point x="32" y="-133" type="curve"/>
      <point x="24" y="-184"/>
      <point x="8" y="-196"/>
      <point x="-23" y="-199" type="curve"/>
      <point x="-29" y="-235" type="line"/>
      <point x="-29" y="-235"/>
      <point x="59" y="-228"/>
      <point x="169" y="-228" type="curve"/>
      <point x="175" y="-195" type="line" smooth="yes"/>
      <point x="175" y="-193"/>
      <point x="174" y="-191"/>
      <point x="174" y="-189" type="curve"/>
      <point x="133" y="-189" type="line" smooth="yes"/>
      <point x="95" y="-189"/>
      <point x="86" y="-178"/>
      <point x="91" y="-140" type="curve" smooth="yes"/>
      <point x="111" y="2" type="line"/>
      <point x="133" y="-3"/>
      <point x="163" y="-8"/>
      <point x="195" y="-8" type="curve" smooth="yes"/>
      <point x="311" y="-8"/>
      <point x="420" y="144"/>
      <point x="420" y="307" type="curve" smooth="yes"/>
      <point x="420" y="400"/>
      <point x="378" y="464"/>
      <point x="318" y="464" type="curve"/>
      <point x="258" y="415"/>
      <point x="209" y="340"/>
      <point x="144" y="200" type="curve"/>
      <point x="141" y="202" type="line"/>
      <point x="178" y="452"/>
      <point x="242" y="721"/>
      <point x="242" y="721" type="curve"/>
      <point x="233" y="733" type="line"/>
      <point x="233" y="733"/>
      <point x="133" y="727"/>
      <point x="72" y="727" type="curve"/>
      <point x="66" y="689" type="line"/>
      <point x="107" y="689" type="line" smooth="yes"/>
      <point x="137" y="689"/>
      <point x="149" y="677"/>
      <point x="149" y="650" type="curve" smooth="yes"/>
      <point x="149" y="616"/>
      <point x="32" y="-133"/>
    </contour>
    <contour>
      <point x="305" y="381" type="curve" smooth="yes"/>
      <point x="329" y="381"/>
      <point x="351" y="321"/>
      <point x="351" y="259" type="curve" smooth="yes"/>
      <point x="351" y="150"/>
      <point x="293" y="46"/>
      <point x="233" y="46" type="curve" smooth="yes"/>
      <point x="207" y="46"/>
      <point x="154" y="57"/>
      <point x="121" y="69" type="curve"/>
      <point x="204" y="262"/>
      <point x="274" y="381"/>
    </contour>
  </outline>
</glyph>
<glyph name="aogonek" format="2">
  <advance width="461"/>
  <unicode hex="0105"/>
  <outline>
    <contour>
      <point x="334" y="60" type="curve"/>
      <point x="331" y="64" type="line"/>
      <point x="357" y="250"/>
      <point x="414" y="443"/>
      <point x="414" y="443" type="curve"/>
      <point x="406" y="455" type="line"/>
      <point x="375" y="470" type="line"/>
      <point x="370" y="469" type="line"/>
      <point x="361" y="444" type="line"/>
      <point x="261" y="460" type="line"/>
      <point x="149" y="460"/>
      <point x="32" y="289"/>
      <point x="32" y="122" type="curve" smooth="yes"/>
      <point x="32" y="39"/>
      <point x="61" y="-12"/>
      <point x="112" y="-12" type="curve"/>
      <point x="176" y="33"/>
      <point x="234" y="107"/>
      <point x="299" y="227" type="curve"/>
      <point x="305" y="225" type="line"/>
      <point x="305" y="225"/>
      <point x="262" y="43"/>
      <point x="262" y="14" type="curve" smooth="yes"/>
      <point x="262" y="-1"/>
      <point x="274" y="-12"/>
      <point x="298" y="-12" type="curve"/>
      <point x="441" y="90" type="line"/>
      <point x="425" y="118" type="line"/>
      <point x="413" y="119" type="line"/>
      <point x="353" y="67"/>
      <point x="344" y="60"/>
    </contour>
    <contour>
      <point x="133" y="69" type="curve" smooth="yes"/>
      <point x="113" y="69"/>
      <point x="102" y="119"/>
      <point x="102" y="171" type="curve" smooth="yes"/>
      <point x="102" y="292"/>
      <point x="163" y="406"/>
      <point x="233" y="406" type="curve" smooth="yes"/>
      <point x="256" y="406"/>
      <point x="298" y="393"/>
      <point x="331" y="373" type="curve"/>
      <point x="258" y="205"/>
      <point x="166" y="69"/>
    </contour>
    <contour>
      <point x="385" y="-178" type="curve"/>
      <point x="375" y="-159" type="line"/>
      <point x="375" y="-159"/>
      <point x="334" y="-182"/>
      <point x="299" y="-182" type="curve" smooth="yes"/>
      <point x="268" y="-182"/>
      <point x="249" y="-164"/>
      <point x="249" y="-132" type="curve" smooth="yes"/>
      <point x="249" y="-77"/>
      <point x="303" y="-26"/>
      <point x="441" y="90" type="curve"/>
      <point x="340" y="42" type="line"/>
      <point x="247" y="-43"/>
      <point x="185" y="-96"/>
      <point x="185" y="-160" type="curve" smooth="yes"/>
      <point x="185" y="-210"/>
      <point x="224" y="-241"/>
      <point x="281" y="-241" type="curve"/>
      <point x="332" y="-224"/>
      <point x="385" y="-178"/>
    </contour>
  </outline>
</glyph>
<glyph name="dcroat" format="2">
  <advance width="463"/>
  <unicode hex="0111"/>
  <outline>
    <contour>
      <point x="405" y="584" type="line"/>
      <point x="405" y="584" type="line"/>
      <point x="238" y="585" type="line"/>
      <point x="231" y="546" type="line"/>
      <point x="240" y="537" type="line"/>
      <point x="383" y="538" type="line"/>
      <point x="522" y="539" type="line"/>
      <point x="526" y="576" type="line"/>
      <point x="513" y="589" type="line"/>
    </contour>
    <component base="d"/>
  </outline>
</glyph>
<glyph name="eogonek" format="2">
  <advance width="359"/>
  <unicode hex="0119"/>
  <outline>
    <contour>
      <point x="340" y="386" type="curve" smooth="yes"/>
      <point x="340" y="436"/>
      <point x="311" y="464"/>
      <point x="261" y="464" type="curve" smooth="yes"/>
      <point x="149" y="464"/>
      <point x="34" y="307"/>
      <point x="34" y="153" type="curve" smooth="yes"/>
      <point x="34" y="51"/>
      <point x="78" y="-12"/>
      <point x="150" y="-12" type="curve" smooth="yes"/>
      <point x="188" y="-12"/>
      <point x="218" y="33"/>
      <point x="311" y="109" type="curve"/>
      <point x="296" y="133" type="line"/>
      <point x="282" y="134" type="line"/>
      <point x="255" y="82"/>
      <point x="212" y="48"/>
      <point x="172" y="48" type="curve" smooth="yes"/>
      <point x="125" y="48"/>
      <point x="97" y="105"/>
      <point x="102" y="190" type="curve"/>
      <point x="273" y="247"/>
      <point x="340" y="302"/>
    </contour>
    <contour>
      <point x="229" y="406" type="curve" smooth="yes"/>
      <point x="255" y="406"/>
      <point x="269" y="390"/>
      <point x="269" y="360" type="curve" smooth="yes"/>
      <point x="269" y="305"/>
      <point x="222" y="268"/>
      <point x="106" y="232" type="curve"/>
      <point x="121" y="327"/>
      <point x="177" y="406"/>
    </contour>
    <contour>
      <point x="266" y="-178" type="curve"/>
      <point x="256" y="-159" type="line"/>
      <point x="256" y="-159"/>
      <point x="216" y="-182"/>
      <point x="179" y="-182" type="curve" smooth="yes"/>
      <point x="149" y="-182"/>
      <point x="130" y="-162"/>
      <point x="130" y="-134" type="curve" smooth="yes"/>
      <point x="130" y="-56"/>
      <point x="229" y="-20"/>
      <point x="311" y="109" type="curve"/>
      <point x="221" y="42" type="line"/>
      <point x="138" y="-34"/>
      <point x="66" y="-94"/>
      <point x="66" y="-158" type="curve" smooth="yes"/>
      <point x="66" y="-211"/>
      <point x="105" y="-241"/>
      <point x="162" y="-241" type="curve"/>
      <point x="213" y="-224"/>
      <point x="266" y="-178"/>
    </contour>
  </outline>
</glyph>
<glyph name="Hbar" format="2">
  <advance width="723"/>
  <unicode hex="0126"/>
  <outline>
    <contour>
      <point x="414" y="495" type="curve" smooth="yes"/>
      <point x="274" y="495"/>
      <point x="67" y="496"/>
      <point x="67" y="496" type="curve"/>
      <point x="60" y="457" type="line"/>
      <point x="69" y="448" type="line"/>
      <point x="69" y="448"/>
      <point x="251" y="449"/>
      <point x="392" y="449" type="curve" smooth="yes"/>
      <point x="721" y="450" type="line"/>
      <point x="725" y="487" type="line"/>
      <point x="712" y="500" type="line"/>
      <point x="712" y="500"/>
      <point x="534" y="495"/>
    </contour>
    <component base="H"/>
  </outline>
</glyph>
<glyph name="hbar" format="2">
  <advance width="490"/>
  <unicode hex="0127"/>
  <outline>
    <contour>
      <point x="176" y="568" type="line"/>
      <point x="39" y="569" type="line"/>
      <point x="32" y="530" type="line"/>
      <point x="41" y="521" type="line"/>
      <point x="154" y="522" type="line"/>
      <point x="328" y="523" type="line"/>
      <point x="332" y="560" type="line"/>
      <point x="319" y="573" type="line"/>
    </contour>
    <component base="h"/>
  </outline>
</glyph>
<glyph name="kgreenlandic" format="2">
  <advance width="464"/>
  <unicode hex="0138"/>
  <anchor x="196" y="0" name="bottom"/>
  <anchor x="252" y="452" name="top"/>
  <outline>
    <contour>
      <point x="347" y="-24" type="line"/>
      <point x="408" y="8" type="line"/>
      <point x="406" y="20" type="line"/>
      <point x="406" y="20"/>
      <point x="347" y="87"/>
      <point x="284" y="186" type="curve"/>
      <point x="384" y="245"/>
      <point x="438" y="310"/>
      <point x="438" y="372" type="curve" smooth="yes"/>
      <point x="438" y="423"/>
      <point x="404" y="464"/>
      <point x="362" y="464" type="curve"/>
      <point x="300" y="428"/>
      <point x="228" y="334"/>
      <point x="159" y="199" type="curve"/>
      <point x="154" y="202" type="line"/>
      <point x="173" y="319"/>
      <point x="215" y="440"/>
      <point x="215" y="440" type="curve"/>
      <point x="206" y="452" type="line"/>
      <point x="206" y="452"/>
      <point x="105" y="446"/>
      <point x="44" y="446" type="curve"/>
      <point x="37" y="408" type="line"/>
      <point x="78" y="408" type="line" smooth="yes"/>
      <point x="109" y="408"/>
      <point x="121" y="396"/>
      <point x="121" y="368" type="curve" smooth="yes"/>
      <point x="121" y="336"/>
      <point x="66" y="0"/>
      <point x="66" y="0" type="curve"/>
      <point x="73" y="-9" type="line"/>
      <point x="89" y="-9"/>
      <point x="134" y="8"/>
      <point x="135" y="14" type="curve" smooth="yes"/>
      <point x="146" y="97" type="line"/>
      <point x="214" y="258"/>
      <point x="291" y="371"/>
      <point x="333" y="371" type="curve" smooth="yes"/>
      <point x="352" y="371"/>
      <point x="366" y="356"/>
      <point x="366" y="334" type="curve" smooth="yes"/>
      <point x="366" y="285"/>
      <point x="323" y="241"/>
      <point x="230" y="194" type="curve"/>
      <point x="226" y="179" type="line"/>
      <point x="334" y="-17" type="line"/>
    </contour>
  </outline>
</glyph>
